<svg width="412" height="274" viewBox="0 0 412 274" fill="none" xmlns="http://www.w3.org/2000/svg">
<g clip-path="url(#clip0_459_1565)">
<path d="M252.824 91.8772C262.629 91.8772 270.578 83.9284 270.578 74.1229C270.578 64.3175 262.629 56.3687 252.824 56.3687C243.018 56.3687 235.069 64.3175 235.069 74.1229C235.069 83.9284 243.018 91.8772 252.824 91.8772Z" fill="#F2F2F2"/>
<path d="M147.285 56.3688C155.456 56.3688 162.08 49.7447 162.08 41.5736C162.08 33.4024 155.456 26.7783 147.285 26.7783C139.113 26.7783 132.489 33.4024 132.489 41.5736C132.489 49.7447 139.113 56.3688 147.285 56.3688Z" fill="#F2F2F2"/>
<path d="M98.9535 196.43C107.125 196.43 113.749 189.806 113.749 181.635C113.749 173.464 107.125 166.84 98.9535 166.84C90.7823 166.84 84.1582 173.464 84.1582 181.635C84.1582 189.806 90.7823 196.43 98.9535 196.43Z" fill="#F2F2F2"/>
<path d="M83.915 204.321C88.2007 209.401 92.8366 246.022 97.7831 250.451L329.862 250.944C334.808 246.515 339.444 209.894 343.73 204.814L83.915 204.321Z" fill="#E6E6E6"/>
<path d="M156.259 161.304V211.884H191.693V161.304C191.695 160.557 191.209 159.897 190.495 159.677C190.331 159.623 190.16 159.596 189.987 159.598H157.97C157.027 159.596 156.261 160.359 156.259 161.302L156.259 161.304ZM170.087 178.684C170.107 176.595 171.816 174.917 173.905 174.936C175.967 174.955 177.634 176.622 177.653 178.684V184.552C177.643 186.642 175.941 188.327 173.852 188.317C171.777 188.307 170.097 186.627 170.087 184.552V178.684Z" fill="#3F3D56"/>
<path d="M100.516 85.0992V177.451C100.518 179.902 102.504 181.888 104.954 181.89H241.81C244.261 181.888 246.247 179.902 246.249 177.451V85.0992C246.243 82.651 244.259 80.6686 241.81 80.6655H104.954C102.506 80.6686 100.521 82.651 100.516 85.0992Z" fill="#3F3D56"/>
<path d="M103.726 86.2482V176.312C103.728 177.621 104.789 178.682 106.098 178.684H240.671C241.98 178.682 243.04 177.621 243.043 176.312V86.2482C243.043 84.9373 241.981 83.8739 240.671 83.8711H106.098C104.787 83.874 103.726 84.9373 103.726 86.2482Z" fill="#FF8000"/>
<path d="M131.166 217.25C131.444 217.598 131.865 217.799 132.31 217.797H212.372C213.186 217.796 213.845 217.136 213.844 216.322C213.844 216.221 213.833 216.121 213.813 216.022L212.57 210.119C212.465 209.629 212.12 209.227 211.652 209.048C211.486 208.983 211.309 208.95 211.13 208.95H133.548C133.369 208.95 133.192 208.983 133.025 209.048C132.558 209.227 132.213 209.629 132.108 210.119L130.865 216.022C130.776 216.456 130.886 216.907 131.166 217.25Z" fill="#3F3D56"/>
<path d="M110.425 96.2779H236.344C236.62 96.2719 236.84 96.0428 236.834 95.7662C236.828 95.4981 236.612 95.2822 236.344 95.2764H110.425C110.148 95.2824 109.929 95.5114 109.935 95.788C109.941 96.0561 110.156 96.272 110.425 96.2779Z" fill="#3F3D56"/>
<path d="M392.66 194.125C392.65 194.101 392.645 194.081 392.635 194.061C392.445 193.548 392.222 193.047 391.969 192.562C390.534 189.864 392.053 185.722 390.435 181.145C387.822 173.728 384.636 169.353 379.965 165.433C379.827 165.314 379.689 165.201 379.546 165.082L379.541 165.077C376.424 162.518 372.666 160.126 368.001 157.147C367.029 156.526 363.671 158.321 363.75 155.244C363.839 151.826 363.932 148.285 362.255 146.075L362.147 145.932L361.974 145.888C356.225 144.751 350.362 144.299 344.506 144.542H344.501C342.015 144.634 339.546 144.996 337.138 145.622C336.96 145.671 336.783 145.72 336.61 145.78C336.477 145.814 336.344 145.858 336.211 145.903L336.102 145.942L336.019 146.021C334.396 147.644 334.021 150.553 333.844 153.586V153.591C333.809 154.144 333.78 154.696 333.755 155.248C333.617 158.198 326.5 160.58 323.788 161.916C318.693 164.431 319.462 170.292 319.402 170.292C319.402 170.292 310.837 187.877 310.733 205.685C310.728 206.677 310.722 207.673 310.714 208.674C310.655 216.969 310.497 225.407 309.875 233.096C309.604 236.4 309.254 239.562 308.785 242.516C306.507 256.902 296.185 244.957 291.248 254.529C291.41 255.471 291.683 256.389 292.062 257.267C292.629 257.602 293.211 257.927 293.788 258.253C296.348 259.678 298.955 261.008 301.61 262.243C301.758 262.312 301.906 262.381 302.053 262.445C306.923 264.698 311.943 266.613 317.076 268.176C318.077 268.481 319.078 268.772 320.089 269.048C329.032 271.517 338.241 272.897 347.514 273.157C347.552 273.152 347.59 273.151 347.628 273.152C358.596 272.848 369.492 271.278 380.098 268.471C380.246 268.432 380.394 268.393 380.542 268.353C381.238 268.166 381.928 267.978 382.619 267.781C388.723 266.044 394.704 263.899 400.521 261.36C400.527 261.577 400.548 261.792 400.585 262.006C400.59 262.076 400.6 262.145 400.615 262.213C400.625 262.134 400.634 262.055 400.639 261.976C400.669 261.745 400.693 261.508 400.718 261.271C403.736 231.838 397.468 206.849 392.66 194.125Z" fill="#CCCCCC"/>
<path d="M349.001 141.986C364.818 141.986 377.64 129.163 377.64 113.347C377.64 97.5296 364.818 84.7075 349.001 84.7075C333.184 84.7075 320.362 97.5296 320.362 113.347C320.362 129.163 333.184 141.986 349.001 141.986Z" fill="#FFB6B6"/>
<path d="M351.122 142.501C355.488 141.721 359.78 140.569 363.951 139.059C368.045 137.361 376.222 128.514 378.061 123.79C379.428 120.28 379.74 115.154 379.762 111.472C379.854 101.612 375.761 92.1757 368.5 85.5053C367.094 84.1069 365.337 83.1143 363.413 82.6327C363.245 82.602 363.074 82.5792 362.902 82.5646C360.202 82.3891 357.616 81.4107 355.477 79.7549C355.058 79.4171 354.616 79.1099 354.154 78.8357C351.85 77.5512 349.274 76.8302 346.638 76.7317C342.356 76.4353 336.677 78.6639 329.759 83.3586C326.283 85.7173 322.023 85.9386 318.699 85.8681C318.321 85.8687 317.972 86.0697 317.781 86.3962C316.673 87.9345 315.023 88.9961 313.163 89.3676C312.033 89.6398 311.144 91.4513 310.099 93.7914C309.862 94.3226 309.586 94.9425 309.374 95.328L309.213 94.698L308.707 95.5345C306.101 99.8377 307.478 105.438 311.781 108.043C312.938 108.743 314.235 109.177 315.58 109.314C316.787 109.395 317.998 109.354 319.196 109.189C319.926 109.114 320.682 109.036 321.417 109.021C326.247 109.067 330.698 111.648 333.137 115.817C334.151 117.521 336.355 118.081 338.06 117.067C338.327 116.908 338.573 116.714 338.791 116.492C340.067 115.027 341.979 114.28 343.91 114.492C344.769 114.772 345.506 115.338 345.996 116.097C346.577 116.936 347.393 117.583 348.343 117.955C351.522 118.882 353.007 125.442 353.041 131.146C353.074 136.643 351.844 140.864 350.05 141.41C348.669 141.831 348.527 141.962 348.474 142.231L348.426 142.472L348.625 142.65C349.458 142.781 350.31 142.73 351.122 142.501Z" fill="#2F2E41"/>
<path d="M249.761 231.045C255.244 231.045 259.69 229.626 259.69 227.876C259.69 226.126 255.244 224.707 249.761 224.707C244.277 224.707 239.832 226.126 239.832 227.876C239.832 229.626 244.277 231.045 249.761 231.045Z" fill="#3F3D56"/>
<path d="M249.761 228.932C255.244 228.932 259.69 227.513 259.69 225.763C259.69 224.013 255.244 222.594 249.761 222.594C244.277 222.594 239.832 224.013 239.832 225.763C239.832 227.513 244.277 228.932 249.761 228.932Z" fill="#3F3D56"/>
<path d="M248.015 227.886L249.495 227.864L249.086 200.237C248.966 191.064 253.731 182.518 261.598 177.798L289.837 160.918L289.078 159.648L260.839 176.528C252.519 181.52 247.479 190.558 247.607 200.259L248.015 227.886Z" fill="#3F3D56"/>
<path d="M289.104 173.373C287.121 173.373 285.513 171.765 285.513 169.782V147.389C285.513 145.406 287.121 143.798 289.104 143.798C291.087 143.798 292.695 145.406 292.695 147.389V169.782C292.695 171.765 291.087 173.373 289.104 173.373Z" fill="#FF8000"/>
<path d="M242.139 190.356C243.384 194.907 248.082 197.588 252.634 196.344C253.119 196.211 253.592 196.036 254.046 195.82L275.343 217.46L278.638 202.03L257.909 183.846C255.595 179.705 250.362 178.223 246.22 180.538C242.755 182.474 241.067 186.533 242.139 190.356Z" fill="#FFB6B6"/>
<path d="M353.382 167.76L353.247 167.684L337.718 162.344C333.73 160.973 329.345 161.38 325.678 163.462C324.836 163.939 324.045 164.498 323.315 165.133L323.31 165.134C320.877 167.236 319.2 170.078 318.537 173.224L310.381 211.947L293.982 203.109L287.299 201.514L281.216 195.409L266.026 189.224L265.183 190.23L257.54 199.366L256.939 200.084L273.769 224.432L281.313 225.253L283.426 229.013L283.575 229.081L289.76 231.868L316.136 243.752L328.908 233.977L330.907 232.442C347.431 217.133 355.156 204.817 358.381 195.438C360.088 190.483 360.537 186.354 360.368 183.026C359.843 172.739 353.644 167.957 353.382 167.76Z" fill="#CCCCCC"/>
<path d="M367.98 177.196H360.582C339.201 177.196 321.868 194.529 321.868 215.91C314.967 224.444 315.39 235.161 321.868 247.681L300.664 238.841C297.644 237.59 294.182 239.023 292.931 242.043C291.683 245.053 293.104 248.505 296.109 249.766L321.868 260.504V262.504C321.868 268.775 326.952 273.858 333.223 273.858H395.339C401.61 273.858 406.694 268.775 406.694 262.504C411.299 245.609 414.182 229.224 406.694 215.91C406.694 194.529 389.361 177.196 367.98 177.196Z" fill="#3F3D56"/>
<path d="M190.684 144.647C191.773 144.647 192.656 143.764 192.656 142.674C192.656 141.585 191.773 140.702 190.684 140.702C189.594 140.702 188.711 141.585 188.711 142.674C188.711 143.764 189.594 144.647 190.684 144.647Z" fill="#F2F2F2"/>
<path d="M197.588 144.647C198.677 144.647 199.561 143.764 199.561 142.674C199.561 141.585 198.677 140.702 197.588 140.702C196.498 140.702 195.615 141.585 195.615 142.674C195.615 143.764 196.498 144.647 197.588 144.647Z" fill="#F2F2F2"/>
<path d="M204.492 144.647C205.582 144.647 206.465 143.764 206.465 142.674C206.465 141.585 205.582 140.702 204.492 140.702C203.403 140.702 202.52 141.585 202.52 142.674C202.52 143.764 203.403 144.647 204.492 144.647Z" fill="#F2F2F2"/>
<path d="M141.002 121.979L155.727 122.198C156.135 122.184 156.455 121.841 156.441 121.433C156.427 121.044 156.115 120.732 155.727 120.718L141.002 120.499C140.593 120.513 140.273 120.856 140.288 121.264C140.301 121.653 140.613 121.965 141.002 121.979Z" fill="white"/>
<path d="M158.742 137.462C160.484 138.807 163.285 137.63 163.771 135.552C164.338 133.132 162.224 130.853 159.824 130.906C157.155 130.964 155.269 133.209 154.98 135.735C154.754 138.064 155.704 140.353 157.513 141.838C159.437 143.522 162.073 144.137 164.544 143.48C165.456 143.212 165.068 141.783 164.151 142.054C160.903 142.891 157.571 141.025 156.589 137.818C156.124 136.073 156.563 133.894 158.189 132.895C159.651 131.998 161.721 132.324 162.278 134.121C162.609 135.068 162.11 136.104 161.163 136.435C160.597 136.633 159.971 136.539 159.488 136.184C159.135 135.981 158.684 136.099 158.476 136.45C158.28 136.804 158.397 137.249 158.742 137.462Z" fill="white"/>
<path d="M173.837 130.785C172.352 132.448 171.021 134.244 169.863 136.149L168.134 131.579C167.8 130.697 166.37 131.079 166.707 131.972C167.442 133.915 168.177 135.857 168.912 137.8C168.066 139.365 167.334 140.99 166.723 142.662C166.396 143.558 167.825 143.944 168.15 143.055C168.576 141.895 169.064 140.759 169.613 139.652C170.286 141.432 170.959 143.211 171.632 144.99C171.966 145.872 173.397 145.49 173.059 144.597C172.217 142.37 171.374 140.144 170.532 137.917C171.759 135.738 173.218 133.698 174.883 131.832C175.516 131.124 174.473 130.074 173.837 130.785Z" fill="white"/>
<path d="M147.564 121.256L148.599 143.432C148.643 144.38 150.123 144.385 150.078 143.432L149.044 121.256C149 120.307 147.52 120.302 147.564 121.256Z" fill="white"/>
<path d="M184.059 132.811H180.332C180.323 132.062 180.313 131.313 180.298 130.566C180.278 129.615 178.799 129.612 178.818 130.566C178.833 131.314 178.848 132.063 178.863 132.811H175.671C175.262 132.825 174.942 133.168 174.957 133.576C174.97 133.965 175.282 134.277 175.671 134.29H178.893C178.899 134.605 178.906 134.919 178.912 135.234C178.891 136.689 178.954 138.145 179.099 139.594C179.415 141.919 180.991 144.562 183.684 144.334C184.626 144.254 184.634 142.773 183.684 142.854C181.254 143.06 180.556 140.204 180.465 138.335C180.399 136.989 180.371 135.64 180.351 134.29H184.059C184.467 134.276 184.787 133.933 184.772 133.525C184.759 133.136 184.447 132.824 184.059 132.811Z" fill="#F2F2F2"/>
<path d="M38.9189 201.717C38.4395 201.719 37.9613 201.764 37.49 201.852L29.6477 152.206L37.5042 104.412C38.5828 97.8524 34.1391 91.6601 27.579 90.5815C21.659 89.6082 15.926 93.1429 14.1366 98.8693C11.1914 108.294 9.73394 118.12 9.81682 127.993L10.0908 160.588L30.9977 210.646C31.5215 215.022 35.4936 218.145 39.8696 217.621C44.2457 217.097 47.3685 213.125 46.8447 208.749C46.3643 204.736 42.9601 201.716 38.9189 201.717Z" fill="#FFB8B8"/>
<path d="M24.556 87.4087C14.1068 87.4262 5.64036 95.8927 5.62305 106.342L9.46982 145.204L9.81504 148.686L9.99258 148.696L23.5007 149.367H23.5056L30.0599 149.692L31.1843 149.746L32.4715 145.204L43.4891 106.342C43.4778 95.8902 35.0079 87.4201 24.556 87.4087Z" fill="#E6E6E6"/>
<path d="M25.1381 273.923L18.9241 254.857C18.9241 254.857 7.53174 243.272 22.1445 212.518C22.4651 211.837 22.8004 211.151 23.1506 210.451C23.7621 209.223 24.4164 207.964 25.1134 206.673C26.1688 204.799 27.239 202.861 28.4473 200.859L29.552 201.056L30.5976 201.239L34.1731 201.87H34.178L85.9565 210.994C85.9565 210.994 85.0047 215.245 84.4918 219.807C84.0824 223.55 83.9493 227.338 84.9159 228.94C87.007 232.521 84.1811 242.197 84.1811 242.197C84.1811 242.197 84.3389 243.134 84.6052 244.791V244.796C84.8666 246.409 85.2315 248.697 85.6458 251.469C85.6655 251.656 85.6902 251.843 85.7197 252.031C86.3757 256.519 87.1598 262.185 87.8601 268.276C88.0771 270.125 88.2843 272.014 88.4815 273.923L25.1381 273.923Z" fill="#2F2E41"/>
<path d="M10.3794 97.4616C11.6796 93.8756 14.7174 91.1993 18.4386 90.3613C21.1528 89.5896 23.9776 89.2809 26.7945 89.4481C35.0404 89.7729 32.9612 71.2993 41.1263 72.4955C41.1263 72.4955 48.8115 69.7528 54.8246 74.7785C60.2872 79.3441 64.0529 91.7615 65.4548 91.0551C65.7527 90.9079 66.4683 90.9234 67.4695 91.0563C79.1693 92.6092 87.5886 103.105 86.8933 114.887L86.299 124.958C86.299 124.958 90.4997 131.282 84.404 142.446L76.724 176.768C76.724 176.768 95.9388 214.825 87.0807 222.633C78.2226 230.441 43.4919 218.266 43.4919 218.266C43.4919 218.266 24.0157 212.245 19.9081 209.636C11.2315 204.124 22.3209 191.556 29.1772 192.148C29.546 190.686 29.0604 189.141 27.9216 188.153C26.0266 186.943 28.1498 184.203 28.3097 183.952C28.127 184.134 26.6887 185.641 25.5929 182.468C24.497 179.294 27.8759 175.299 27.8759 175.299L18.3328 154.752L10.8216 138.519L9.90835 136.647L11.4751 126.547L11.3285 126.244C7.98998 119.284 7.25112 111.359 9.24541 103.901C9.96887 101.159 10.4896 98.6599 10.3794 97.4616Z" fill="#E6E6E6"/>
<path d="M88.4819 273.923H85.1875C86.0999 271.965 87.0024 270.066 87.8605 268.276C88.0775 270.125 88.2847 272.014 88.4819 273.923Z" fill="#2F2E41"/>
<path d="M153.148 159.04C152.856 159.42 152.599 159.826 152.38 160.252L108.325 136.058L75.3449 100.585C70.8181 95.7164 63.2014 95.439 58.3326 99.9658C53.9389 104.051 53.2238 110.747 56.6557 115.668C62.3043 123.767 69.1814 130.935 77.039 136.914L102.978 156.653L155.358 170.769C159.139 173.034 164.04 171.805 166.305 168.024C168.57 164.244 167.341 159.343 163.56 157.078C160.094 155.001 155.621 155.844 153.148 159.04Z" fill="#FFB8B8"/>
<path d="M93.5145 149.45L106.593 134.195L107.321 133.342L80.533 97.0388C79.3751 96.1373 78.1139 95.377 76.7762 94.774L76.7726 94.7705C67.255 90.4446 56.0326 94.6533 51.7067 104.171C48.0752 112.161 50.4117 121.599 57.3513 126.972L65.1694 131.874L93.3975 149.584L93.5145 149.45Z" fill="#E6E6E6"/>
<path d="M70.0421 55.8952C63.3647 68.1053 48.0534 72.5905 35.8432 65.9131C23.6331 59.2358 19.1479 43.9244 25.8252 31.7143C32.5026 19.5041 47.814 15.019 60.0241 21.6963C65.1531 24.5012 69.1472 29.002 71.3225 34.428C71.4378 34.7163 71.5417 35.0047 71.6455 35.3046C74.082 42.0814 73.4982 49.5773 70.0421 55.8952Z" fill="#FFB6B6"/>
<path d="M73.6647 35.3045C72.5803 32.2707 73.0533 33.8511 71.9575 30.8288C72.6727 33.505 71.5422 35.0046 71.646 35.3045H41.6426V17.8632C50.4326 14.3795 59.0263 11.4149 64.2172 17.8632C73.8497 17.8636 81.6583 25.6721 81.6587 35.3045L73.6647 35.3045Z" fill="#2F2E41"/>
<path d="M63.0292 83.7875C63.0061 83.4645 62.9716 83.1299 62.9254 82.807C62.5222 80.4374 61.8688 78.1174 60.9759 75.8858C60.1107 73.4518 59.234 71.0063 58.3574 68.5723C59.4863 72.9905 59.142 77.6564 57.3769 81.8611C52.3128 77.916 55.5082 68.8954 48.8869 68.8954C32.9681 68.8954 16.5879 55.9873 16.5879 40.0571C16.5879 24.1383 23.4168 12.2339 39.3356 12.2339C55.2659 12.2339 68.1855 19.5241 68.4969 35.4429C48.8869 40.0571 66.732 82.1725 63.0292 83.7875Z" fill="#2F2E41"/>
<path d="M18.5767 37.6171C28.7699 37.6171 37.0332 29.3539 37.0332 19.1606C37.0332 8.96736 28.7699 0.704102 18.5767 0.704102C8.38339 0.704102 0.120117 8.96736 0.120117 19.1606C0.120117 29.3539 8.38339 37.6171 18.5767 37.6171Z" fill="#2F2E41"/>
<path d="M115.88 91.9034C117.11 91.9034 118.108 90.8835 118.108 89.6255C118.108 88.3675 117.11 87.3477 115.88 87.3477C114.649 87.3477 113.651 88.3675 113.651 89.6255C113.651 90.8835 114.649 91.9034 115.88 91.9034Z" fill="#3F3D56"/>
<path d="M123.577 91.9034C124.807 91.9034 125.805 90.8835 125.805 89.6255C125.805 88.3675 124.807 87.3477 123.577 87.3477C122.346 87.3477 121.349 88.3675 121.349 89.6255C121.349 90.8835 122.346 91.9034 123.577 91.9034Z" fill="#3F3D56"/>
<path d="M131.274 91.9034C132.505 91.9034 133.502 90.8835 133.502 89.6255C133.502 88.3675 132.505 87.3477 131.274 87.3477C130.043 87.3477 129.046 88.3675 129.046 89.6255C129.046 90.8835 130.043 91.9034 131.274 91.9034Z" fill="#3F3D56"/>
<path d="M140.051 91.4257C139.983 91.4257 139.914 91.3992 139.863 91.3465L138.359 89.8096C138.259 89.7072 138.259 89.5435 138.359 89.4411L139.863 87.9043C139.965 87.8004 140.132 87.7987 140.235 87.9002C140.339 88.002 140.341 88.1688 140.24 88.2728L138.916 89.6253L140.24 90.978C140.341 91.082 140.339 91.2488 140.235 91.3506C140.184 91.4008 140.118 91.4257 140.051 91.4257Z" fill="#3F3D56"/>
<path d="M142.578 91.4259C142.511 91.4259 142.445 91.401 142.394 91.3508C142.29 91.249 142.288 91.0823 142.39 90.9782L143.713 89.6255L142.39 88.273C142.288 88.169 142.29 88.0022 142.394 87.9004C142.498 87.7985 142.665 87.8004 142.766 87.9045L144.27 89.4413C144.37 89.5437 144.37 89.7074 144.27 89.8098L142.766 91.3467C142.715 91.3994 142.646 91.4259 142.578 91.4259Z" fill="#3F3D56"/>
<path d="M226.148 87.6113H223.352C223.034 87.6113 222.775 87.8695 222.775 88.1884V90.9866C222.775 91.3054 223.034 91.5636 223.352 91.5636H226.148C226.467 91.5636 226.728 91.3054 226.728 90.9866V88.1884C226.728 87.8695 226.467 87.6113 226.148 87.6113Z" fill="#3F3D56"/>
<path d="M219.297 87.6113H216.502C216.183 87.6113 215.925 87.8695 215.925 88.1884V90.9866C215.925 91.3054 216.183 91.5636 216.502 91.5636H219.297C219.616 91.5636 219.877 91.3054 219.877 90.9866V88.1884C219.877 87.8695 219.616 87.6113 219.297 87.6113Z" fill="#3F3D56"/>
<path d="M232.603 87.7432H229.808C229.489 87.7432 229.23 88.0014 229.23 88.3202V91.1184C229.23 91.4372 229.489 91.6954 229.808 91.6954H232.603C232.922 91.6954 233.183 91.4372 233.183 91.1184V88.3202C233.183 88.0014 232.922 87.7432 232.603 87.7432Z" fill="#3F3D56"/>
<path d="M186.156 88.8076H161.534C161.144 88.8076 160.83 89.1238 160.83 89.5111C160.83 89.8985 161.144 90.2146 161.534 90.2146H186.156C186.543 90.2146 186.86 89.8985 186.86 89.5111C186.86 89.1238 186.543 88.8076 186.156 88.8076Z" fill="#3F3D56"/>
<rect x="285.88" y="143.136" width="7.16639" height="31.353" rx="3.5832" fill="#3F3D56"/>
</g>
<defs>
<clipPath id="clip0_459_1565">
<rect width="411.172" height="273.219" fill="white" transform="translate(0.120117 0.704102)"/>
</clipPath>
</defs>
</svg>
