<svg width="536" height="349" viewBox="0 0 536 349" fill="none" xmlns="http://www.w3.org/2000/svg">
<path d="M456.398 28.7348L461.246 20.9235L458.826 19.4419C458.485 19.2253 458.209 18.9186 458.031 18.5555C457.852 18.1924 457.777 17.787 457.814 17.3841C457.857 16.9272 457.87 16.4681 457.855 16.0095C457.846 15.6058 457.948 15.2073 458.15 14.8576C458.351 14.5078 458.645 14.2201 458.999 14.0258L461.469 12.7006L457.18 4.59295L454.711 5.95109C454.354 6.1387 453.952 6.22414 453.55 6.198C453.148 6.17186 452.76 6.03514 452.431 5.80293C452.052 5.53953 451.657 5.30083 451.262 5.07859C450.904 4.88835 450.606 4.60176 450.403 4.2512C450.199 3.90065 450.098 3.50012 450.11 3.09489L450.2 0.279858L441.006 0L440.924 2.82327C440.906 3.22772 440.776 3.6193 440.55 3.95482C440.323 4.29034 440.008 4.55674 439.64 4.72465C439.442 4.81519 439.236 4.9222 439.039 5.0292C438.841 5.13621 438.644 5.24321 438.446 5.36668C438.102 5.57433 437.708 5.68409 437.306 5.68409C436.904 5.68409 436.51 5.57433 436.166 5.36668L433.754 3.86862L428.882 11.7129L431.277 13.2027C431.619 13.4185 431.895 13.7251 432.074 14.0884C432.253 14.4517 432.327 14.8574 432.289 15.2605C432.248 15.7147 432.232 16.1708 432.24 16.6268C432.252 17.03 432.152 17.4286 431.951 17.7787C431.751 18.1287 431.458 18.4166 431.104 18.6105L428.635 19.944L432.981 28.0434L435.45 26.7182C435.806 26.5275 436.207 26.4396 436.61 26.4644C437.013 26.4891 437.401 26.6254 437.73 26.8581C438.107 27.1197 438.497 27.3615 438.899 27.5824C439.256 27.7741 439.552 28.0611 439.756 28.4113C439.959 28.7615 440.061 29.1612 440.051 29.5661L439.961 32.3812L449.147 32.6692L449.237 29.846C449.255 29.4436 449.384 29.054 449.609 28.72C449.834 28.3859 450.147 28.1205 450.513 27.9528C450.719 27.854 450.925 27.7553 451.122 27.64L451.715 27.3108C452.06 27.099 452.458 26.987 452.863 26.987C453.268 26.987 453.666 27.099 454.011 27.3108L456.398 28.7348ZM448.62 22.9318C447.308 23.6326 445.817 23.9287 444.337 23.7826C442.857 23.6366 441.453 23.055 440.303 22.1114C439.153 21.1678 438.309 19.9045 437.877 18.4812C437.445 17.0579 437.444 15.5384 437.876 14.1148C438.307 12.6912 439.15 11.4273 440.3 10.483C441.449 9.5387 442.852 8.95626 444.333 8.80932C445.813 8.66238 447.303 8.95753 448.616 9.65746C449.928 10.3574 451.004 11.4307 451.707 12.7417C452.174 13.6133 452.464 14.5685 452.562 15.5526C452.66 16.5366 452.563 17.5303 452.276 18.4767C451.989 19.4232 451.519 20.3038 450.891 21.0683C450.264 21.8327 449.492 22.466 448.62 22.9318Z" fill="#EBEBEB"/>
<path d="M63.7335 245.303L60.4986 239.714L58.7948 240.702C58.5438 240.851 58.2551 240.925 57.9632 240.915C57.6713 240.905 57.3886 240.811 57.1486 240.644C56.8835 240.47 56.6087 240.31 56.3255 240.167C56.076 240.037 55.8671 239.841 55.7219 239.6C55.5767 239.359 55.5007 239.082 55.5024 238.801V236.833H49.0574V238.801C49.059 239.082 48.9831 239.359 48.8379 239.6C48.6927 239.841 48.4838 240.037 48.2343 240.167C47.9511 240.31 47.6763 240.47 47.4112 240.644C47.1712 240.811 46.8884 240.905 46.5965 240.915C46.3047 240.925 46.016 240.851 45.765 240.702L44.0611 239.714L40.8428 245.295L42.5548 246.283C42.7989 246.426 42.9982 246.634 43.1305 246.884C43.2628 247.134 43.3229 247.416 43.3039 247.699C43.3039 247.855 43.3039 248.02 43.3039 248.176C43.3039 248.332 43.3039 248.489 43.3039 248.645C43.3238 248.928 43.2642 249.21 43.1318 249.46C42.9994 249.71 42.7995 249.918 42.5548 250.061L40.8428 251.057L44.0611 256.638L45.7732 255.65C46.0242 255.5 46.3129 255.427 46.6048 255.437C46.8967 255.447 47.1794 255.541 47.4194 255.707C47.6828 255.88 47.9627 256.037 48.2425 256.185C48.4914 256.314 48.6999 256.508 48.8452 256.748C48.9904 256.988 49.0667 257.263 49.0656 257.543V259.518H55.5024V257.543C55.5013 257.263 55.5776 256.988 55.7228 256.748C55.8681 256.508 56.0766 256.314 56.3255 256.185C56.6053 256.037 56.8852 255.88 57.1486 255.707C57.3842 255.549 57.6593 255.46 57.9429 255.45C58.2265 255.44 58.5073 255.509 58.7536 255.65L60.4657 256.638L63.6841 251.057L61.972 250.069C61.7301 249.924 61.533 249.715 61.4023 249.466C61.2716 249.216 61.2124 248.935 61.2312 248.653C61.2312 248.497 61.2312 248.332 61.2312 248.176C61.2312 248.02 61.2312 247.855 61.2312 247.699C61.2122 247.416 61.2723 247.134 61.4046 246.884C61.5369 246.634 61.7362 246.426 61.9802 246.283L63.7335 245.303ZM57.5766 248.184C57.5766 249.228 57.2669 250.248 56.6868 251.116C56.1067 251.984 55.2822 252.66 54.3176 253.059C53.3531 253.459 52.2918 253.563 51.2681 253.358C50.2444 253.154 49.3043 252.651 48.5668 251.912C47.8292 251.173 47.3274 250.232 47.1247 249.208C46.9221 248.184 47.0277 247.123 47.4283 246.159C47.8289 245.195 48.5065 244.372 49.3752 243.793C50.2439 243.214 51.2648 242.906 52.3087 242.908C53.0001 242.909 53.6845 243.046 54.3228 243.312C54.961 243.578 55.5406 243.967 56.0284 244.457C56.5161 244.947 56.9025 245.529 57.1653 246.168C57.4281 246.808 57.5623 247.493 57.5601 248.184H57.5766Z" fill="#EBEBEB"/>
<path d="M37.5421 163.239C32.5817 163.239 27.7327 164.71 23.6083 167.466C19.4839 170.222 16.2693 174.139 14.371 178.722C12.4728 183.304 11.9761 188.347 12.9438 193.212C13.9116 198.077 16.3002 202.546 19.8077 206.054C23.3153 209.561 27.7841 211.95 32.6492 212.918C37.5143 213.885 42.5571 213.389 47.1399 211.49C51.7227 209.592 55.6396 206.378 58.3955 202.253C61.1513 198.129 62.6223 193.28 62.6223 188.319C62.6233 185.025 61.9754 181.764 60.7154 178.72C59.4553 175.677 57.608 172.912 55.2789 170.583C52.9497 168.253 50.1845 166.406 47.1411 165.146C44.0978 163.886 40.836 163.238 37.5421 163.239ZM37.5421 200.024C35.2252 200.024 32.9603 199.337 31.0339 198.049C29.1076 196.762 27.6063 194.932 26.72 192.792C25.8338 190.651 25.6023 188.295 26.0549 186.023C26.5075 183.751 27.6239 181.664 29.2628 180.026C30.9017 178.388 32.9895 177.273 35.2621 176.822C37.5347 176.371 39.89 176.604 42.0301 177.492C44.1702 178.38 45.999 179.883 47.285 181.81C48.571 183.737 49.2566 186.002 49.255 188.319C49.255 189.857 48.9519 191.38 48.3632 192.8C47.7745 194.221 46.9116 195.512 45.8238 196.599C44.7361 197.686 43.4448 198.548 42.0238 199.135C40.6028 199.723 39.0799 200.025 37.5421 200.024Z" fill="#EBEBEB"/>
<path d="M42.3655 164.276H32.7186L33.2537 157.453H41.8305L42.3655 164.276Z" fill="#EBEBEB"/>
<path d="M24.0019 167.528L17.1865 174.343L12.7335 169.141L18.7998 163.075L24.0019 167.528Z" fill="#EBEBEB"/>
<path d="M13.3262 182.805V192.451L6.49438 191.916V183.34L13.3262 182.805Z" fill="#EBEBEB"/>
<path d="M16.5693 201.16L23.3929 207.983L18.1908 212.436L12.1245 206.37L16.5693 201.16Z" fill="#EBEBEB"/>
<path d="M31.8544 211.844H41.493L40.9662 218.676H32.3894L31.8544 211.844Z" fill="#EBEBEB"/>
<path d="M50.2097 208.593L57.0333 201.777L61.4781 206.979L55.4118 213.046L50.2097 208.593Z" fill="#EBEBEB"/>
<path d="M60.8938 193.316V183.669L67.7174 184.204V192.789L60.8938 193.316Z" fill="#EBEBEB"/>
<path d="M57.6425 174.96L50.8271 168.137L56.0292 163.692L62.0955 169.75L57.6425 174.96Z" fill="#EBEBEB"/>
<path d="M499.052 39.5587C494.09 39.5587 489.239 41.0301 485.113 43.7868C480.988 46.5436 477.772 50.4618 475.873 55.0462C473.974 59.6305 473.477 64.6749 474.445 69.5416C475.413 74.4082 477.803 78.8786 481.312 82.3872C484.82 85.8959 489.291 88.2854 494.157 89.2534C499.024 90.2214 504.068 89.7246 508.653 87.8257C513.237 85.9268 517.155 82.7112 519.912 78.5854C522.669 74.4597 524.14 69.6091 524.14 64.6471C524.141 61.3521 523.493 58.0892 522.233 55.0449C520.972 52.0005 519.124 49.2344 516.794 46.9045C514.464 44.5746 511.698 42.7266 508.654 41.4662C505.61 40.2058 502.347 39.5576 499.052 39.5587ZM499.052 76.3517C496.735 76.3501 494.471 75.6615 492.546 74.3731C490.621 73.0848 489.121 71.2544 488.236 69.1135C487.351 66.9727 487.12 64.6175 487.574 62.3457C488.027 60.0739 489.144 57.9877 490.784 56.3508C492.423 54.7139 494.511 53.5998 496.783 53.1494C499.055 52.6991 501.41 52.9327 503.55 53.8207C505.69 54.7087 507.518 56.2113 508.803 58.1384C510.089 60.0654 510.775 62.3305 510.773 64.6471C510.773 66.1855 510.47 67.7089 509.88 69.13C509.291 70.5512 508.427 71.8422 507.339 72.9293C506.25 74.0164 504.958 74.8782 503.536 75.4655C502.114 76.0527 500.59 76.3539 499.052 76.3517Z" fill="#EBEBEB"/>
<path d="M503.875 40.604H494.228L494.763 33.7722H503.348L503.875 40.604Z" fill="#EBEBEB"/>
<path d="M485.52 43.8553L478.696 50.6707L474.251 45.4686L480.318 39.4023L485.52 43.8553Z" fill="#EBEBEB"/>
<path d="M474.836 59.1322V68.7791L468.012 68.2441V59.6673L474.836 59.1322Z" fill="#EBEBEB"/>
<path d="M478.087 77.4876L484.903 84.3112L479.7 88.756L473.634 82.6979L478.087 77.4876Z" fill="#EBEBEB"/>
<path d="M493.364 88.1716H503.011L502.476 95.0034H493.899L493.364 88.1716Z" fill="#EBEBEB"/>
<path d="M511.719 84.9203L518.543 78.1049L522.996 83.307L516.93 89.3733L511.719 84.9203Z" fill="#EBEBEB"/>
<path d="M522.403 69.6434V59.9965L529.235 60.5315V69.1083L522.403 69.6434Z" fill="#EBEBEB"/>
<path d="M519.16 51.288L512.337 44.4644L517.539 40.0114L523.605 46.0777L519.16 51.288Z" fill="#EBEBEB"/>
<path d="M433.005 211.877L432.191 216.848L431.326 222.19L423.375 270.91H410.386L418.329 222.19L419.202 216.848L420.009 211.877H433.005Z" fill="#EBEBEB"/>
<path d="M431.121 211.877C430.437 216.815 429.697 221.754 428.956 226.693L426.667 241.459L424.256 256.177L423.021 263.585L421.737 270.943L422.791 263.535L423.902 256.127L426.19 241.361L428.594 226.61C429.408 221.696 430.24 216.783 431.121 211.877Z" fill="#C7C7C7"/>
<path d="M432.191 216.848L431.326 222.19H418.329L419.202 216.848H432.191Z" fill="#C7C7C7"/>
<path d="M497.15 211.877L497.957 216.848L498.83 222.19L506.773 270.91H519.769L511.826 222.19L510.954 216.848L510.147 211.877H497.15Z" fill="#EBEBEB"/>
<path d="M499.076 211.877C499.76 216.815 500.492 221.754 501.241 226.693L503.529 241.459L505.933 256.177L507.168 263.543L508.46 270.902L507.406 263.494L506.295 256.086L504.007 241.361L501.628 226.602C500.805 221.696 499.982 216.783 499.076 211.877Z" fill="#C7C7C7"/>
<path d="M497.957 216.848H510.954L511.826 222.19H498.83L497.957 216.848Z" fill="#C7C7C7"/>
<path d="M432.528 198.172H422.223L423.507 188.566H431.252L432.528 198.172Z" fill="#C7C7C7"/>
<path d="M436.981 181.702C436.983 183.602 436.421 185.46 435.366 187.04C434.312 188.621 432.812 189.854 431.057 190.582C429.302 191.31 427.37 191.502 425.506 191.132C423.643 190.762 421.93 189.848 420.586 188.505C419.242 187.162 418.326 185.45 417.955 183.587C417.584 181.723 417.773 179.791 418.5 178.036C419.227 176.28 420.458 174.779 422.038 173.724C423.618 172.668 425.475 172.104 427.375 172.104C428.636 172.103 429.885 172.35 431.051 172.832C432.216 173.314 433.275 174.021 434.167 174.912C435.059 175.804 435.767 176.862 436.25 178.027C436.733 179.192 436.981 180.441 436.981 181.702Z" fill="#DBDBDB"/>
<path d="M434.676 181.702C434.678 183.146 434.251 184.558 433.45 185.76C432.649 186.962 431.509 187.899 430.175 188.453C428.841 189.007 427.373 189.152 425.956 188.871C424.539 188.591 423.238 187.896 422.216 186.875C421.194 185.855 420.498 184.554 420.215 183.137C419.933 181.721 420.077 180.252 420.629 178.918C421.182 177.583 422.117 176.442 423.318 175.64C424.519 174.837 425.931 174.409 427.375 174.409C429.31 174.409 431.166 175.177 432.535 176.544C433.904 177.912 434.674 179.767 434.676 181.702Z" fill="white"/>
<path d="M433.483 181.274C433.416 180.403 433.17 179.555 432.759 178.784C432.348 178.014 431.782 177.336 431.096 176.796C430.404 176.256 429.609 175.864 428.759 175.643C427.91 175.423 427.024 175.378 426.157 175.512C425.3 175.645 424.481 175.959 423.753 176.431C423.025 176.903 422.406 177.524 421.935 178.253C421.439 179.025 421.113 179.895 420.98 180.803C420.847 181.712 420.908 182.638 421.161 183.521C421.604 185.05 422.629 186.345 424.017 187.126C425.37 187.893 426.958 188.136 428.478 187.809C429.955 187.499 431.28 186.691 432.232 185.521C433.169 184.366 433.708 182.94 433.771 181.455C433.771 181.381 433.771 181.323 433.713 181.323C433.656 181.323 433.647 181.372 433.647 181.446C433.615 182.047 433.499 182.64 433.302 183.208C433.098 183.768 432.821 184.3 432.479 184.788C432.137 185.275 431.736 185.717 431.285 186.105C430.82 186.489 430.312 186.818 429.771 187.085C429.001 187.447 428.164 187.644 427.314 187.664C426.463 187.684 425.618 187.526 424.832 187.2C424.034 186.864 423.318 186.358 422.734 185.719C422.15 185.08 421.712 184.321 421.449 183.496C421.182 182.648 421.101 181.752 421.211 180.87C421.322 179.988 421.622 179.14 422.091 178.384C422.541 177.664 423.143 177.05 423.853 176.584C424.563 176.118 425.366 175.811 426.207 175.685C427.631 175.425 429.101 175.679 430.357 176.401C431.612 177.122 432.571 178.266 433.063 179.627C433.259 180.175 433.388 180.744 433.45 181.323L433.483 181.274Z" fill="#EBEBEB"/>
<path d="M432.627 181.274C432.561 180.528 432.343 179.803 431.986 179.145C431.629 178.487 431.141 177.909 430.553 177.446C429.963 176.992 429.289 176.661 428.569 176.47C427.85 176.279 427.1 176.233 426.363 176.335C425.624 176.445 424.917 176.709 424.288 177.11C423.658 177.512 423.12 178.041 422.708 178.664C422.273 179.331 421.985 180.082 421.863 180.868C421.741 181.654 421.788 182.458 422 183.224C422.182 183.887 422.494 184.508 422.918 185.049C423.342 185.59 423.869 186.042 424.47 186.377C425.65 187.047 427.038 187.255 428.363 186.961C429.641 186.679 430.784 185.971 431.606 184.953C432.418 183.949 432.888 182.712 432.948 181.422C432.948 181.364 432.948 181.315 432.882 181.315C432.816 181.315 432.816 181.356 432.816 181.422C432.747 182.451 432.406 183.444 431.828 184.299C431.249 185.154 430.454 185.84 429.524 186.286C428.855 186.611 428.124 186.79 427.38 186.811C426.637 186.833 425.897 186.696 425.211 186.41C424.518 186.121 423.898 185.682 423.394 185.126C422.891 184.57 422.516 183.909 422.297 183.191C422.069 182.459 422.004 181.686 422.105 180.925C422.205 180.165 422.47 179.436 422.881 178.788C423.272 178.175 423.79 177.654 424.401 177.26C425.012 176.867 425.701 176.61 426.421 176.508C427.634 176.296 428.883 176.514 429.952 177.124C431.022 177.734 431.846 178.698 432.281 179.85C432.451 180.318 432.567 180.804 432.627 181.298C432.629 181.29 432.629 181.282 432.627 181.274Z" fill="#EBEBEB"/>
<path d="M431.771 181.274C431.707 180.655 431.518 180.055 431.217 179.51C430.916 178.966 430.508 178.488 430.017 178.105C429.025 177.346 427.775 177.009 426.536 177.166C425.917 177.249 425.323 177.462 424.792 177.791C424.261 178.12 423.806 178.558 423.457 179.076C423.08 179.634 422.827 180.267 422.715 180.931C422.602 181.596 422.634 182.277 422.807 182.928C422.957 183.496 423.22 184.029 423.58 184.493C423.941 184.957 424.392 185.343 424.906 185.628C425.906 186.189 427.079 186.362 428.198 186.113C429.282 185.866 430.249 185.256 430.939 184.385C431.616 183.53 432.01 182.486 432.067 181.397C432.067 181.348 432.067 181.306 432.009 181.306C431.952 181.306 431.944 181.306 431.935 181.397C431.874 182.27 431.582 183.111 431.089 183.835C430.596 184.558 429.919 185.137 429.129 185.513C428.567 185.794 427.951 185.951 427.324 185.974C426.696 185.996 426.071 185.884 425.49 185.644C424.903 185.401 424.377 185.03 423.95 184.559C423.523 184.088 423.206 183.528 423.021 182.92C422.837 182.301 422.789 181.649 422.88 181.01C422.971 180.371 423.199 179.759 423.548 179.216C423.88 178.711 424.318 178.284 424.831 177.964C425.344 177.645 425.92 177.44 426.519 177.364C427.315 177.268 428.122 177.364 428.873 177.644C429.648 177.92 430.329 178.408 430.841 179.051C431.084 179.379 431.286 179.736 431.441 180.113C431.586 180.501 431.688 180.904 431.746 181.315C431.753 181.311 431.759 181.305 431.764 181.297C431.768 181.29 431.77 181.282 431.771 181.274Z" fill="#EBEBEB"/>
<path d="M430.915 181.274C430.786 180.279 430.268 179.376 429.474 178.763C428.684 178.171 427.699 177.898 426.717 177.998C426.216 178.057 425.732 178.221 425.298 178.479C424.865 178.737 424.49 179.083 424.198 179.496C423.882 179.949 423.666 180.465 423.566 181.009C423.465 181.552 423.481 182.111 423.614 182.648C423.73 183.121 423.943 183.565 424.239 183.952C424.535 184.338 424.908 184.66 425.334 184.895C426.174 185.362 427.158 185.494 428.091 185.266C428.979 185.052 429.768 184.544 430.33 183.825C430.88 183.115 431.199 182.253 431.244 181.356C431.245 181.347 431.245 181.338 431.242 181.33C431.24 181.322 431.236 181.314 431.231 181.307C431.225 181.3 431.219 181.294 431.211 181.29C431.203 181.286 431.195 181.283 431.186 181.282C431.167 181.284 431.15 181.292 431.136 181.306C431.122 181.319 431.114 181.337 431.112 181.356C431.044 182.053 430.799 182.722 430.4 183.298C430.001 183.874 429.461 184.339 428.832 184.648C428.378 184.884 427.877 185.019 427.366 185.043C426.854 185.067 426.344 184.98 425.869 184.788C425.388 184.591 424.958 184.287 424.611 183.899C424.265 183.511 424.011 183.05 423.869 182.549C423.726 182.047 423.694 181.52 423.775 181.004C423.856 180.488 424.048 179.996 424.338 179.561C424.611 179.162 424.967 178.826 425.382 178.577C425.797 178.328 426.261 178.173 426.742 178.121C427.369 178.065 428.001 178.147 428.594 178.36C429.191 178.58 429.719 178.955 430.125 179.446C430.318 179.701 430.481 179.977 430.61 180.269C430.736 180.576 430.827 180.897 430.882 181.224C430.882 181.224 430.923 181.315 430.915 181.274Z" fill="#EBEBEB"/>
<path d="M507.703 198.172H497.397L498.681 188.566H506.427L507.703 198.172Z" fill="#C7C7C7"/>
<path d="M512.156 181.702C512.157 183.602 511.595 185.46 510.541 187.04C509.486 188.621 507.987 189.854 506.232 190.582C504.477 191.31 502.545 191.502 500.681 191.132C498.817 190.762 497.105 189.848 495.761 188.505C494.416 187.162 493.501 185.45 493.13 183.587C492.758 181.723 492.948 179.791 493.675 178.036C494.402 176.28 495.633 174.779 497.213 173.724C498.792 172.668 500.65 172.104 502.55 172.104C505.096 172.104 507.538 173.115 509.339 174.915C511.141 176.714 512.154 179.155 512.156 181.702Z" fill="#DBDBDB"/>
<path d="M509.859 181.702C509.861 183.146 509.434 184.558 508.633 185.76C507.832 186.962 506.692 187.899 505.358 188.453C504.024 189.007 502.556 189.152 501.139 188.871C499.722 188.591 498.42 187.896 497.399 186.875C496.377 185.855 495.68 184.554 495.398 183.137C495.116 181.721 495.26 180.252 495.812 178.918C496.365 177.583 497.3 176.442 498.501 175.64C499.702 174.837 501.114 174.409 502.558 174.409C504.493 174.409 506.349 175.177 507.718 176.544C509.087 177.912 509.857 179.767 509.859 181.702Z" fill="white"/>
<path d="M508.649 181.274C508.586 180.403 508.342 179.555 507.932 178.784C507.523 178.013 506.957 177.336 506.27 176.796C505.578 176.256 504.783 175.864 503.934 175.643C503.084 175.423 502.199 175.378 501.332 175.512C500.475 175.645 499.655 175.959 498.928 176.431C498.2 176.903 497.58 177.524 497.109 178.253C496.613 179.025 496.288 179.895 496.155 180.803C496.021 181.712 496.083 182.638 496.335 183.521C496.778 185.05 497.804 186.345 499.192 187.126C500.545 187.893 502.132 188.136 503.653 187.809C505.129 187.499 506.454 186.691 507.406 185.521C508.343 184.366 508.883 182.94 508.946 181.455C508.946 181.381 508.946 181.323 508.888 181.323C508.83 181.323 508.822 181.372 508.822 181.446C508.79 182.047 508.673 182.64 508.476 183.208C508.269 183.767 507.992 184.298 507.653 184.788C507.311 185.275 506.91 185.717 506.46 186.105C505.994 186.489 505.486 186.818 504.945 187.085C504.17 187.453 503.326 187.653 502.468 187.673C501.61 187.693 500.757 187.532 499.965 187.2C499.167 186.864 498.452 186.358 497.868 185.719C497.284 185.08 496.845 184.321 496.582 183.496C496.315 182.648 496.234 181.752 496.345 180.87C496.456 179.988 496.756 179.14 497.224 178.384C497.674 177.663 498.275 177.048 498.986 176.582C499.696 176.116 500.499 175.81 501.34 175.685C502.767 175.421 504.241 175.673 505.5 176.395C506.759 177.117 507.72 178.262 508.213 179.627C508.408 180.175 508.538 180.744 508.6 181.323C508.613 181.323 508.626 181.318 508.635 181.308C508.644 181.299 508.649 181.287 508.649 181.274Z" fill="#EBEBEB"/>
<path d="M507.801 181.274C507.735 180.528 507.517 179.803 507.161 179.145C506.804 178.487 506.316 177.909 505.727 177.446C505.137 176.992 504.463 176.661 503.744 176.47C503.025 176.279 502.275 176.233 501.538 176.335C500.799 176.445 500.092 176.709 499.462 177.11C498.833 177.512 498.294 178.041 497.883 178.664C497.448 179.331 497.16 180.082 497.038 180.868C496.916 181.654 496.963 182.458 497.175 183.224C497.357 183.887 497.669 184.508 498.093 185.049C498.517 185.59 499.044 186.042 499.644 186.377C500.825 187.047 502.212 187.255 503.538 186.961C504.815 186.679 505.959 185.971 506.781 184.953C507.594 183.95 508.062 182.712 508.114 181.422C508.114 181.364 508.114 181.315 508.057 181.315C507.999 181.315 507.991 181.356 507.991 181.422C507.922 182.451 507.581 183.444 507.002 184.299C506.424 185.154 505.629 185.84 504.698 186.286C504.029 186.611 503.299 186.79 502.555 186.811C501.811 186.833 501.072 186.696 500.385 186.41C499.693 186.121 499.073 185.682 498.569 185.126C498.065 184.57 497.691 183.909 497.471 183.191C497.244 182.459 497.178 181.687 497.278 180.927C497.377 180.166 497.64 179.437 498.048 178.788C498.44 178.176 498.959 177.656 499.569 177.263C500.18 176.87 500.868 176.612 501.587 176.508C502.801 176.294 504.052 176.511 505.124 177.121C506.195 177.731 507.02 178.696 507.456 179.85C507.626 180.318 507.742 180.804 507.801 181.298C507.803 181.29 507.803 181.282 507.801 181.274Z" fill="#EBEBEB"/>
<path d="M506.945 181.274C506.881 180.655 506.693 180.055 506.392 179.51C506.091 178.966 505.683 178.488 505.192 178.105C504.201 177.343 502.95 177.003 501.71 177.158C501.092 177.241 500.497 177.454 499.967 177.783C499.436 178.112 498.981 178.55 498.632 179.068C498.255 179.626 498.001 180.259 497.889 180.923C497.777 181.588 497.809 182.268 497.982 182.92C498.131 183.488 498.394 184.02 498.755 184.484C499.116 184.948 499.567 185.334 500.081 185.62C501.081 186.181 502.253 186.353 503.373 186.105C504.457 185.857 505.423 185.248 506.114 184.377C506.791 183.522 507.185 182.478 507.242 181.389C507.242 181.339 507.242 181.298 507.184 181.298C507.127 181.298 507.118 181.298 507.11 181.389C507.044 182.261 506.75 183.1 506.257 183.822C505.765 184.544 505.091 185.125 504.303 185.504C503.742 185.785 503.126 185.943 502.498 185.965C501.871 185.988 501.246 185.876 500.665 185.636C500.077 185.393 499.551 185.023 499.124 184.552C498.697 184.081 498.38 183.52 498.196 182.912C498.012 182.293 497.964 181.641 498.055 181.002C498.146 180.363 498.373 179.751 498.723 179.208C499.055 178.703 499.493 178.276 500.006 177.956C500.518 177.637 501.094 177.432 501.694 177.356C502.49 177.26 503.297 177.356 504.048 177.635C504.803 177.922 505.466 178.408 505.966 179.043C506.209 179.371 506.411 179.727 506.567 180.105C506.712 180.493 506.814 180.896 506.871 181.306C506.878 181.311 506.886 181.313 506.894 181.314C506.902 181.314 506.91 181.313 506.917 181.309C506.924 181.306 506.931 181.301 506.936 181.295C506.941 181.289 506.944 181.281 506.945 181.274Z" fill="#EBEBEB"/>
<path d="M506.089 181.274C505.961 180.279 505.443 179.376 504.649 178.763C503.858 178.171 502.874 177.898 501.891 177.998C501.39 178.057 500.907 178.221 500.473 178.479C500.039 178.737 499.664 179.083 499.373 179.496C499.057 179.949 498.841 180.465 498.74 181.009C498.639 181.552 498.656 182.111 498.788 182.648C498.905 183.121 499.117 183.565 499.414 183.952C499.71 184.338 500.082 184.66 500.509 184.895C501.348 185.363 502.333 185.495 503.266 185.266C504.153 185.052 504.942 184.544 505.505 183.825C506.051 183.113 506.37 182.252 506.419 181.356C506.42 181.347 506.419 181.338 506.417 181.33C506.415 181.322 506.411 181.314 506.405 181.307C506.4 181.3 506.393 181.294 506.386 181.29C506.378 181.286 506.37 181.283 506.361 181.282C506.342 181.284 506.324 181.292 506.311 181.306C506.297 181.319 506.289 181.337 506.287 181.356C506.219 182.053 505.973 182.722 505.574 183.298C505.175 183.874 504.636 184.339 504.007 184.648C503.552 184.884 503.052 185.019 502.541 185.043C502.029 185.067 501.518 184.98 501.044 184.788C500.562 184.591 500.132 184.287 499.786 183.899C499.439 183.511 499.185 183.05 499.043 182.549C498.901 182.047 498.869 181.52 498.95 181.004C499.031 180.488 499.223 179.996 499.513 179.561C499.785 179.162 500.141 178.826 500.556 178.577C500.971 178.328 501.435 178.173 501.916 178.121C502.543 178.065 503.175 178.147 503.768 178.36C504.364 178.578 504.89 178.953 505.291 179.446C505.49 179.698 505.656 179.975 505.785 180.269C505.911 180.576 506.002 180.897 506.056 181.224C506.056 181.224 506.089 181.315 506.089 181.274Z" fill="#EBEBEB"/>
<path d="M529.82 193.274H400.344V218.042H529.82V193.274Z" fill="#DBDBDB"/>
<path d="M426.947 193.274L417.556 218.042H400.83L410.23 193.274H426.947Z" fill="#EBEBEB"/>
<path d="M461.222 193.274L451.83 218.042H435.104L444.496 193.274H461.222Z" fill="#EBEBEB"/>
<path d="M495.496 193.274L486.096 218.042H469.379L478.779 193.274H495.496Z" fill="#EBEBEB"/>
<path d="M529.77 193.274L520.37 218.042H503.645L513.045 193.274H529.77Z" fill="#EBEBEB"/>
<path d="M527.194 240.933H402.962V256.605H527.194V240.933Z" fill="#DBDBDB"/>
<path d="M428.495 240.933L419.482 256.605H403.439L412.452 240.933H428.495Z" fill="#EBEBEB"/>
<path d="M461.378 240.933L452.365 256.605H436.314L445.336 240.933H461.378Z" fill="#EBEBEB"/>
<path d="M494.261 240.933L485.248 256.605H469.206L478.219 240.933H494.261Z" fill="#EBEBEB"/>
<path d="M527.153 240.933L518.131 256.605H502.081L511.102 240.933H527.153Z" fill="#EBEBEB"/>
<path d="M364.679 348.06C447.487 348.06 514.617 343.528 514.617 337.936C514.617 332.345 447.487 327.812 364.679 327.812C281.871 327.812 214.741 332.345 214.741 337.936C214.741 343.528 281.871 348.06 364.679 348.06Z" fill="#EBEBEB"/>
<path d="M5.91821 270.894L71.4049 270.696L136.892 270.622L267.865 270.49L398.838 270.622L464.325 270.696L529.811 270.894L464.325 271.1L398.838 271.174L267.865 271.305L136.892 271.174L71.4049 271.1L5.91821 270.894Z" fill="#263238"/>
<path d="M425.927 61.8403H109.803V273.305H425.927V61.8403Z" fill="#DBDBDB"/>
<path d="M423.63 64.4248H112.099V270.729H423.63V64.4248Z" fill="#263238"/>
<path d="M467.099 289.159H68.631V303.67H467.099V289.159Z" fill="#C7C7C7"/>
<path d="M68.631 289.159L109.803 273.305H425.927L467.099 289.159H68.631Z" fill="#DBDBDB"/>
<path d="M113.482 283.537L140.052 273.305H395.677L422.247 283.537H113.482Z" fill="#263238"/>
<path d="M406.263 80.0228H129.475V255.123H406.263V80.0228Z" fill="white"/>
<path d="M406.263 80.0228H129.475V86.764H406.263V80.0228Z" fill="rgba(255, 128, 0, 1)"/>
<path d="M134.826 83.3893C134.826 83.7149 134.729 84.0332 134.548 84.3039C134.367 84.5746 134.11 84.7856 133.809 84.9102C133.508 85.0348 133.177 85.0674 132.858 85.0039C132.539 84.9404 132.245 84.7836 132.015 84.5533C131.785 84.3231 131.628 84.0298 131.565 83.7105C131.501 83.3911 131.534 83.0601 131.658 82.7593C131.783 82.4585 131.994 82.2014 132.265 82.0205C132.535 81.8396 132.854 81.7431 133.179 81.7431C133.616 81.7431 134.035 81.9165 134.343 82.2252C134.652 82.534 134.826 82.9527 134.826 83.3893Z" fill="rgba(5, 60, 97, 1)"/>
<path d="M141.649 83.3893C141.649 83.7149 141.553 84.0332 141.372 84.3039C141.191 84.5746 140.934 84.7856 140.633 84.9102C140.332 85.0348 140.001 85.0674 139.682 85.0039C139.362 84.9404 139.069 84.7836 138.839 84.5533C138.609 84.3231 138.452 84.0298 138.388 83.7105C138.325 83.3911 138.357 83.0601 138.482 82.7593C138.607 82.4585 138.818 82.2014 139.088 82.0205C139.359 81.8396 139.677 81.7431 140.003 81.7431C140.44 81.7431 140.858 81.9165 141.167 82.2252C141.476 82.534 141.649 82.9527 141.649 83.3893Z" fill="#EBEBEB"/>
<path d="M148.514 83.3893C148.514 83.7149 148.417 84.0332 148.236 84.3039C148.056 84.5746 147.798 84.7856 147.498 84.9102C147.197 85.0348 146.866 85.0674 146.546 85.0039C146.227 84.9404 145.934 84.7836 145.704 84.5533C145.473 84.3231 145.317 84.0298 145.253 83.7105C145.19 83.3911 145.222 83.0601 145.347 82.7593C145.471 82.4585 145.682 82.2014 145.953 82.0205C146.224 81.8396 146.542 81.7431 146.868 81.7431C147.304 81.7431 147.723 81.9165 148.032 82.2252C148.34 82.534 148.514 82.9527 148.514 83.3893Z" fill="white"/>
<path d="M261.831 200.979H312.263V162.284H261.831V200.979Z" fill="#EBEBEB"/>
<path d="M266.844 170.754C266.651 171.719 266.774 172.72 267.194 173.61C267.614 174.5 268.309 175.231 269.177 175.695C270.044 176.16 271.038 176.332 272.011 176.188C272.985 176.044 273.886 175.591 274.582 174.895C275.278 174.199 275.731 173.298 275.875 172.325C276.019 171.351 275.846 170.357 275.382 169.49C274.918 168.622 274.187 167.927 273.297 167.507C272.407 167.087 271.406 166.964 270.441 167.157C269.553 167.335 268.738 167.771 268.098 168.411C267.458 169.051 267.022 169.867 266.844 170.754Z" fill="white"/>
<path d="M278.466 192.649H312.255L295.357 171.824L278.466 192.649Z" fill="#C7C7C7"/>
<path d="M261.823 192.665H291.793L276.812 179.101L261.823 192.665Z" fill="#DBDBDB"/>
<path d="M312.255 192.649H261.823V200.987H312.255V192.649Z" fill="#DBDBDB"/>
<path d="M181.018 162.293H143.139V165.478H181.018V162.293Z" fill="#DBDBDB"/>
<path d="M252.761 169.684H143.139V172.87H252.761V169.684Z" fill="#DBDBDB"/>
<path d="M252.761 176.697H143.139V179.882H252.761V176.697Z" fill="#DBDBDB"/>
<path d="M252.761 183.71H143.139V186.895H252.761V183.71Z" fill="#DBDBDB"/>
<path d="M252.761 190.723H143.139V193.908H252.761V190.723Z" fill="#DBDBDB"/>
<path d="M252.761 197.728H143.139V200.913H252.761V197.728Z" fill="#DBDBDB"/>
<path d="M272.31 99.728H234.43V108.255H272.31V99.728Z" fill="#DBDBDB"/>
<path d="M312.255 114.132H234.43V117.318H312.255V114.132Z" fill="#DBDBDB"/>
<path d="M312.255 121.145H234.43V124.331H312.255V121.145Z" fill="#DBDBDB"/>
<path d="M312.255 128.158H234.43V131.344H312.255V128.158Z" fill="#DBDBDB"/>
<path d="M312.255 135.171H234.43V138.357H312.255V135.171Z" fill="#DBDBDB"/>
<path d="M312.255 144.497H234.43V147.682H312.255V144.497Z" fill="#DBDBDB"/>
<path d="M312.255 151.51H234.43V154.695H312.255V151.51Z" fill="#DBDBDB"/>
<path d="M392.582 99.728H323.309V108.404H392.582V99.728Z" fill="rgba(5, 60, 97, 1)"/>
<path d="M392.401 108.478H323.499V244.562H392.401V108.478Z" fill="white"/>
<path d="M392.591 244.785H323.309V108.255H392.591V244.785ZM323.688 244.34H392.204V108.7H323.688V244.34Z" fill="#DBDBDB"/>
<path d="M323.68 244.645L323.318 244.48L392.22 108.395L392.574 108.56L323.68 244.645Z" fill="#DBDBDB"/>
<path d="M392.22 244.645L323.318 108.56L323.68 108.395L392.574 244.48L392.22 244.645Z" fill="#DBDBDB"/>
<path d="M225.845 99.8762H143.287V154.539H225.845V99.8762Z" fill="white"/>
<path d="M143.155 154.695V154.555V99.7527H143.295H225.985V154.695H225.886H143.155ZM143.419 100.024V154.415H225.73V100.033L143.419 100.024Z" fill="#DBDBDB"/>
<path d="M143.419 100.024C150.358 104.428 157.264 108.897 164.153 113.375L184.772 126.891L205.308 140.554L215.54 147.436L225.722 154.391L215.326 147.757L204.987 141.048L184.36 127.533L163.832 113.861C157.008 109.284 150.16 104.724 143.419 100.024Z" fill="#DBDBDB"/>
<path d="M225.713 100.024C218.939 104.691 212.124 109.284 205.3 113.861L184.772 127.533L164.153 141.048L153.806 147.757L143.419 154.391L153.601 147.436L163.824 140.554L184.352 126.891L204.979 113.375C211.893 108.897 218.766 104.428 225.713 100.024Z" fill="#DBDBDB"/>
<path d="M143.419 206.239V244.678H311.868V206.239H143.419Z" fill="white"/>
<path d="M312.148 206.131V244.818H143.139V206.131H312.148ZM311.588 244.571V206.345H143.674V244.571H311.588Z" fill="#DBDBDB"/>
<path d="M311.975 244.579L311.77 244.777L143.312 206.337L143.518 206.14L311.975 244.579Z" fill="#DBDBDB"/>
<path d="M311.975 206.337L143.518 244.777L143.312 244.579L311.77 206.14L311.975 206.337Z" fill="#DBDBDB"/>
<path d="M75.6181 66.3644L58.033 85.0123L59.8474 86.7233L77.4326 68.0755L75.6181 66.3644Z" fill="#263238"/>
<path d="M76.9526 85.4059H58.943V87.8999H76.9526V85.4059Z" fill="rgba(255, 128, 0, 1)"/>
<path d="M76.9526 65.9723H58.943V68.4663H76.9526V65.9723Z" fill="rgba(255, 128, 0, 1)"/>
<path d="M59.8485 66.3576L58.0337 68.0684L75.6156 86.7193L77.4304 85.0085L59.8485 66.3576Z" fill="rgba(255, 128, 0, 1)"/>
<path d="M75.6157 85.7965L58.0305 104.444L59.845 106.155L77.4302 87.5076L75.6157 85.7965Z" fill="#263238"/>
<path d="M76.9526 104.84H58.943V107.334H76.9526V104.84Z" fill="rgba(255, 128, 0, 1)"/>
<path d="M76.9526 85.4059H58.943V87.8999H76.9526V85.4059Z" fill="rgba(255, 128, 0, 1)"/>
<path d="M59.8446 85.7911L58.0298 87.5019L75.6117 106.153L77.4265 104.442L59.8446 85.7911Z" fill="rgba(255, 128, 0, 1)"/>
<path d="M75.6132 105.229L58.0281 123.877L59.8426 125.588L77.4277 106.94L75.6132 105.229Z" fill="#263238"/>
<path d="M76.9526 124.273H58.943V126.767H76.9526V124.273Z" fill="rgba(255, 128, 0, 1)"/>
<path d="M76.9526 104.84H58.943V107.334H76.9526V104.84Z" fill="rgba(255, 128, 0, 1)"/>
<path d="M59.8487 105.225L58.0339 106.935L75.6158 125.586L77.4306 123.876L59.8487 105.225Z" fill="rgba(255, 128, 0, 1)"/>
<path d="M75.6191 124.661L58.0339 143.309L59.8484 145.02L77.4336 126.372L75.6191 124.661Z" fill="#263238"/>
<path d="M76.9526 143.707H58.943V146.201H76.9526V143.707Z" fill="rgba(255, 128, 0, 1)"/>
<path d="M76.9526 124.273H58.943V126.767H76.9526V124.273Z" fill="rgba(255, 128, 0, 1)"/>
<path d="M59.853 124.658L58.0382 126.369L75.6201 145.02L77.4349 143.309L59.853 124.658Z" fill="rgba(255, 128, 0, 1)"/>
<path d="M75.6167 144.101L58.0315 162.749L59.846 164.46L77.4311 145.812L75.6167 144.101Z" fill="#263238"/>
<path d="M76.9526 163.14H58.943V165.634H76.9526V163.14Z" fill="rgba(255, 128, 0, 1)"/>
<path d="M76.9526 143.707H58.943V146.201H76.9526V143.707Z" fill="rgba(255, 128, 0, 1)"/>
<path d="M59.8516 144.086L58.0369 145.797L75.6188 164.447L77.4336 162.737L59.8516 144.086Z" fill="rgba(255, 128, 0, 1)"/>
<path d="M75.6225 163.533L58.0374 182.181L59.8518 183.892L77.437 165.244L75.6225 163.533Z" fill="#263238"/>
<path d="M76.9526 182.566H58.943V185.06H76.9526V182.566Z" fill="rgba(255, 128, 0, 1)"/>
<path d="M76.9526 163.14H58.943V165.634H76.9526V163.14Z" fill="rgba(255, 128, 0, 1)"/>
<path d="M59.8476 163.519L58.0328 165.23L75.6148 183.881L77.4295 182.17L59.8476 163.519Z" fill="rgba(255, 128, 0, 1)"/>
<path d="M75.6141 182.96L58.0289 201.608L59.8434 203.319L77.4286 184.671L75.6141 182.96Z" fill="#263238"/>
<path d="M76.9526 201.999H58.943V204.493H76.9526V201.999Z" fill="rgba(255, 128, 0, 1)"/>
<path d="M76.9526 182.566H58.943V185.06H76.9526V182.566Z" fill="rgba(255, 128, 0, 1)"/>
<path d="M59.8519 182.945L58.0371 184.655L75.619 203.306L77.4338 201.596L59.8519 182.945Z" fill="rgba(255, 128, 0, 1)"/>
<path d="M75.6198 202.384L58.0347 221.031L59.8492 222.743L77.4343 204.095L75.6198 202.384Z" fill="#263238"/>
<path d="M76.9526 221.433H58.943V223.927H76.9526V221.433Z" fill="rgba(255, 128, 0, 1)"/>
<path d="M76.9526 201.999H58.943V204.493H76.9526V201.999Z" fill="rgba(255, 128, 0, 1)"/>
<path d="M59.8562 202.378L58.0414 204.089L75.6233 222.74L77.4381 221.029L59.8562 202.378Z" fill="rgba(255, 128, 0, 1)"/>
<path d="M75.6257 221.807L58.0405 240.455L59.855 242.166L77.4402 223.519L75.6257 221.807Z" fill="#263238"/>
<path d="M76.9526 240.867H58.943V243.361H76.9526V240.867Z" fill="rgba(255, 128, 0, 1)"/>
<path d="M76.9526 221.433H58.943V223.927H76.9526V221.433Z" fill="rgba(255, 128, 0, 1)"/>
<path d="M59.8521 221.812L58.0374 223.522L75.6193 242.173L77.434 240.463L59.8521 221.812Z" fill="rgba(255, 128, 0, 1)"/>
<path d="M75.6181 241.255L58.0394 259.909L59.8545 261.619L77.4332 242.965L75.6181 241.255Z" fill="#263238"/>
<path d="M76.9526 260.3H58.943V262.794H76.9526V260.3Z" fill="rgba(255, 128, 0, 1)"/>
<path d="M76.9526 240.867H58.943V243.361H76.9526V240.867Z" fill="rgba(255, 128, 0, 1)"/>
<path d="M59.8564 241.253L58.0416 242.964L75.6235 261.615L77.4383 259.904L59.8564 241.253Z" fill="rgba(255, 128, 0, 1)"/>
<path d="M75.6121 260.682L58.0334 279.336L59.8485 281.047L77.4272 262.393L75.6121 260.682Z" fill="#263238"/>
<path d="M76.9526 279.734H58.943V282.228H76.9526V279.734Z" fill="rgba(255, 128, 0, 1)"/>
<path d="M76.9526 260.3H58.943V262.794H76.9526V260.3Z" fill="rgba(255, 128, 0, 1)"/>
<path d="M59.8551 260.673L58.0403 262.384L75.6222 281.035L77.437 279.324L59.8551 260.673Z" fill="rgba(255, 128, 0, 1)"/>
<path d="M80.5579 290.788V279.471H54.5805V290.788H80.5579Z" fill="rgba(255, 128, 0, 1)"/>
<path d="M61.083 280.178L61.083 66.9929H54.5722L54.5722 280.178H61.083Z" fill="rgba(255, 128, 0, 1)"/>
<path d="M80.5579 280.178L80.5579 66.9929H74.0471L74.0471 280.178H80.5579Z" fill="rgba(255, 128, 0, 1)"/>
<path d="M251.674 65.4702L232.216 46.2917L67.9725 15.6885L18.0591 46.4398L16.7504 44.308L67.4869 13.0545L233.418 43.9787L253.427 63.684L251.674 65.4702Z" fill="rgba(255, 128, 0, 1)"/>
<path d="M87.7765 48.9833L67.7749 21.1786L48.6293 48.9421L44.5138 46.1024L67.6843 12.503L91.8344 46.0612L87.7765 48.9833Z" fill="#263238"/>
<path d="M213.901 48.5218L212.191 50.3366L230.842 67.9185L232.552 66.1037L213.901 48.5218Z" fill="#263238"/>
<path d="M233.714 48.9833H231.22V66.9929H233.714V48.9833Z" fill="rgba(255, 128, 0, 1)"/>
<path d="M214.28 48.9833H211.786V66.9929H214.28V48.9833Z" fill="rgba(255, 128, 0, 1)"/>
<path d="M230.838 48.5192L212.187 66.1011L213.898 67.9159L232.548 50.334L230.838 48.5192Z" fill="rgba(255, 128, 0, 1)"/>
<path d="M194.463 48.5217L192.753 50.3365L211.404 67.9184L213.114 66.1036L194.463 48.5217Z" fill="#263238"/>
<path d="M214.28 48.9833H211.786V66.9929H214.28V48.9833Z" fill="rgba(255, 128, 0, 1)"/>
<path d="M194.847 48.9833H192.353V66.9929H194.847V48.9833Z" fill="rgba(255, 128, 0, 1)"/>
<path d="M211.384 48.4806L192.736 66.0658L194.448 67.8803L213.095 50.2951L211.384 48.4806Z" fill="rgba(255, 128, 0, 1)"/>
<path d="M175.025 48.5216L173.315 50.3364L191.966 67.9183L193.676 66.1035L175.025 48.5216Z" fill="#263238"/>
<path d="M194.847 48.9833H192.353V66.9929H194.847V48.9833Z" fill="rgba(255, 128, 0, 1)"/>
<path d="M175.413 48.9833H172.919V66.9929H175.413V48.9833Z" fill="rgba(255, 128, 0, 1)"/>
<path d="M191.953 48.4791L173.305 66.0643L175.016 67.8788L193.664 50.2936L191.953 48.4791Z" fill="rgba(255, 128, 0, 1)"/>
<path d="M155.596 48.5215L153.885 50.3363L172.536 67.9182L174.247 66.1034L155.596 48.5215Z" fill="#263238"/>
<path d="M175.413 48.9833H172.919V66.9929H175.413V48.9833Z" fill="rgba(255, 128, 0, 1)"/>
<path d="M155.979 48.9833H153.485V66.9929H155.979V48.9833Z" fill="rgba(255, 128, 0, 1)"/>
<path d="M172.522 48.4858L153.874 66.071L155.585 67.8855L174.233 50.3003L172.522 48.4858Z" fill="rgba(255, 128, 0, 1)"/>
<path d="M136.164 48.5154L134.453 50.3302L153.104 67.9121L154.815 66.0974L136.164 48.5154Z" fill="#263238"/>
<path d="M155.979 48.9833H153.485V66.9929H155.979V48.9833Z" fill="rgba(255, 128, 0, 1)"/>
<path d="M136.554 48.9833H134.06V66.9929H136.554V48.9833Z" fill="rgba(255, 128, 0, 1)"/>
<path d="M153.091 48.4926L134.443 66.0777L136.154 67.8922L154.802 50.307L153.091 48.4926Z" fill="rgba(255, 128, 0, 1)"/>
<path d="M116.734 48.5154L115.023 50.3301L133.674 67.9121L135.385 66.0973L116.734 48.5154Z" fill="#263238"/>
<path d="M136.554 48.9833H134.06V66.9929H136.554V48.9833Z" fill="rgba(255, 128, 0, 1)"/>
<path d="M117.12 48.9833H114.626V66.9929H117.12V48.9833Z" fill="rgba(255, 128, 0, 1)"/>
<path d="M133.659 48.4911L115.012 66.0762L116.723 67.8907L135.371 50.3055L133.659 48.4911Z" fill="rgba(255, 128, 0, 1)"/>
<path d="M97.2961 48.5153L95.5853 50.33L114.236 67.912L115.947 66.0972L97.2961 48.5153Z" fill="#263238"/>
<path d="M117.12 48.9833H114.626V66.9929H117.12V48.9833Z" fill="rgba(255, 128, 0, 1)"/>
<path d="M97.6868 48.9833H95.1927V66.9929H97.6868V48.9833Z" fill="rgba(255, 128, 0, 1)"/>
<path d="M114.234 48.4921L95.5864 66.0773L97.2975 67.8918L115.945 50.3066L114.234 48.4921Z" fill="rgba(255, 128, 0, 1)"/>
<path d="M77.8664 48.5152L76.1556 50.33L94.8066 67.9119L96.5174 66.0971L77.8664 48.5152Z" fill="#263238"/>
<path d="M97.6868 48.9833H95.1927V66.9929H97.6868V48.9833Z" fill="rgba(255, 128, 0, 1)"/>
<path d="M78.2531 48.9833H75.759V66.9929H78.2531V48.9833Z" fill="rgba(255, 128, 0, 1)"/>
<path d="M94.803 48.4906L76.1552 66.0758L77.8662 67.8903L96.5141 50.3051L94.803 48.4906Z" fill="rgba(255, 128, 0, 1)"/>
<path d="M58.4285 48.5151L56.7178 50.3299L75.3687 67.9118L77.0795 66.097L58.4285 48.5151Z" fill="#263238"/>
<path d="M78.2531 48.9833H75.759V66.9929H78.2531V48.9833Z" fill="rgba(255, 128, 0, 1)"/>
<path d="M58.8195 48.9833H56.3254V66.9929H58.8195V48.9833Z" fill="rgba(255, 128, 0, 1)"/>
<path d="M75.3636 48.4891L56.7157 66.0743L58.4268 67.8888L77.0747 50.3036L75.3636 48.4891Z" fill="rgba(255, 128, 0, 1)"/>
<path d="M38.9988 48.515L37.2881 50.3298L55.939 67.9117L57.6498 66.0969L38.9988 48.515Z" fill="#263238"/>
<path d="M58.8195 48.9833H56.3254V66.9929H58.8195V48.9833Z" fill="rgba(255, 128, 0, 1)"/>
<path d="M39.3859 48.9833H36.8918V66.9929H39.3859V48.9833Z" fill="rgba(255, 128, 0, 1)"/>
<path d="M55.9324 48.4876L37.2845 66.0728L38.9956 67.8873L57.6435 50.3021L55.9324 48.4876Z" fill="rgba(255, 128, 0, 1)"/>
<path d="M20.0188 48.6505L18.298 50.4711L37.0091 68.157L38.73 66.3363L20.0188 48.6505Z" fill="#263238"/>
<path d="M39.3859 48.9833H36.8918V66.9929H39.3859V48.9833Z" fill="rgba(255, 128, 0, 1)"/>
<path d="M19.9522 48.9833H17.4581V66.9929H19.9522V48.9833Z" fill="rgba(255, 128, 0, 1)"/>
<path d="M36.5012 48.4943L17.8533 66.0795L19.5644 67.894L38.2122 50.3088L36.5012 48.4943Z" fill="rgba(255, 128, 0, 1)"/>
<path d="M16.7256 44.2668H5.42432V70.2442H16.7256V44.2668Z" fill="#263238"/>
<path d="M28.0434 44.2668H16.7256V70.2442H28.0434V44.2668Z" fill="rgba(255, 128, 0, 1)"/>
<path d="M42.9828 70.2442H21.2856V83.2H42.9828V70.2442Z" fill="rgba(255, 128, 0, 1)"/>
<path d="M253.427 63.7334H16.7256V70.2442H253.427V63.7334Z" fill="rgba(255, 128, 0, 1)"/>
<path d="M239.92 50.7776H16.7256V44.2668H233.558L239.92 50.7776Z" fill="rgba(255, 128, 0, 1)"/>
<path d="M237.969 48.9833H235.475V66.9929H237.969V48.9833Z" fill="rgba(255, 128, 0, 1)"/>
<path d="M146.802 141.048L162.441 138.546L178.08 136.126L209.391 131.41L209.473 131.401L209.556 131.418L261.659 144.933L287.702 151.757L313.712 158.671L287.595 152.16L261.502 145.551L209.35 132.208L209.515 132.216L178.17 136.735L162.498 138.933L146.802 141.048Z" fill="#263238"/>
<path d="M199.884 72.9028H197.39V109.778H199.884V72.9028Z" fill="#263238"/>
<path d="M221.013 73.726H218.519V110.601H221.013V73.726Z" fill="#263238"/>
<path d="M225.845 70.2442H192.912V75.5533H225.845V70.2442Z" fill="rgba(255, 128, 0, 1)"/>
<path d="M210.626 115.976L210.346 121.516L209.523 120.561C210.414 120.79 211.263 121.157 212.041 121.647C212.844 122.13 213.521 122.796 214.017 123.59C214.495 124.391 214.736 125.311 214.712 126.243C214.689 127.175 214.402 128.082 213.885 128.858C213.402 129.591 212.739 130.187 211.959 130.591C211.179 130.994 210.31 131.191 209.432 131.163C208.603 131.095 207.8 130.837 207.086 130.409C206.372 129.98 205.767 129.393 205.317 128.693C205.806 129.316 206.431 129.817 207.145 130.16C207.858 130.502 208.641 130.676 209.432 130.669C210.185 130.622 210.913 130.384 211.548 129.978C212.183 129.572 212.704 129.011 213.062 128.348C213.396 127.731 213.55 127.033 213.506 126.333C213.462 125.633 213.223 124.959 212.815 124.388C211.882 123.325 210.59 122.642 209.185 122.471L208.428 122.339L208.387 121.516L208.115 115.976H210.626Z" fill="#263238"/>
<path d="M225.845 104.617V113.655L209.375 117.565L192.912 113.655V104.617H225.845Z" fill="rgba(255, 128, 0, 1)"/>
<path d="M200.468 109.918C200.47 110.298 200.359 110.669 200.149 110.986C199.94 111.302 199.641 111.549 199.29 111.696C198.94 111.842 198.554 111.881 198.182 111.808C197.809 111.735 197.466 111.553 197.197 111.285C196.928 111.017 196.745 110.676 196.67 110.304C196.596 109.931 196.633 109.545 196.778 109.194C196.923 108.843 197.169 108.543 197.484 108.332C197.8 108.121 198.171 108.009 198.551 108.009C198.802 108.007 199.051 108.056 199.284 108.151C199.517 108.247 199.728 108.387 199.906 108.565C200.084 108.742 200.226 108.953 200.322 109.185C200.419 109.418 200.468 109.667 200.468 109.918Z" fill="#263238"/>
<path d="M222.108 109.918C222.108 110.296 221.996 110.665 221.786 110.979C221.576 111.293 221.278 111.538 220.929 111.682C220.58 111.827 220.196 111.865 219.826 111.791C219.455 111.717 219.115 111.535 218.848 111.268C218.581 111.001 218.399 110.661 218.326 110.291C218.252 109.92 218.29 109.536 218.434 109.187C218.579 108.838 218.823 108.54 219.138 108.33C219.452 108.121 219.821 108.009 220.198 108.009C220.705 108.009 221.191 108.21 221.549 108.568C221.907 108.926 222.108 109.412 222.108 109.918Z" fill="#263238"/>
<path d="M141.682 178.695L309.632 196.763L313.73 158.667L145.78 140.6L141.682 178.695Z" fill="rgba(5, 60, 97, 1)"/>
<path d="M233.492 180.278L310.502 188.566L274.219 163.708L233.492 180.278Z" fill="rgba(5, 60, 97, 1)"/>
<path opacity="0.2" d="M233.492 180.278L310.502 188.566L274.219 163.708L233.492 180.278Z" fill="black"/>
<path d="M195.571 176.22L263.865 183.57L231.171 166.408L195.571 176.22Z" fill="rgba(5, 60, 97, 1)"/>
<path opacity="0.1" d="M195.571 176.22L263.865 183.57L231.171 166.408L195.571 176.22Z" fill="black"/>
<path d="M310.49 188.578L142.541 170.511L141.658 178.72L309.607 196.787L310.49 188.578Z" fill="rgba(5, 60, 97, 1)"/>
<path opacity="0.1" d="M310.49 188.578L142.541 170.511L141.658 178.72L309.607 196.787L310.49 188.578Z" fill="black"/>
<path opacity="0.6" d="M166.474 155.469C166.359 156.492 165.944 157.458 165.28 158.246C164.616 159.033 163.735 159.606 162.746 159.892C161.757 160.178 160.705 160.165 159.724 159.855C158.742 159.544 157.875 158.949 157.231 158.146C156.587 157.342 156.195 156.366 156.106 155.341C156.016 154.315 156.233 153.286 156.727 152.383C157.222 151.48 157.974 150.744 158.887 150.268C159.799 149.792 160.833 149.597 161.856 149.707C162.539 149.78 163.2 149.987 163.802 150.316C164.405 150.646 164.936 151.091 165.365 151.627C165.794 152.162 166.113 152.778 166.303 153.437C166.494 154.097 166.552 154.787 166.474 155.469Z" fill="white"/>
<path d="M71.9645 14.3715C71.9645 15.205 71.7174 16.0198 71.2543 16.7128C70.7912 17.4059 70.133 17.946 69.363 18.265C68.5929 18.584 67.7455 18.6674 66.928 18.5048C66.1105 18.3422 65.3596 17.9409 64.7702 17.3515C64.1809 16.7621 63.7795 16.0112 63.6169 15.1937C63.4543 14.3762 63.5377 13.5288 63.8567 12.7587C64.1757 11.9887 64.7158 11.3305 65.4089 10.8674C66.1019 10.4043 66.9167 10.1572 67.7502 10.1572C68.8679 10.1572 69.9398 10.6012 70.7302 11.3915C71.5205 12.1818 71.9645 13.2538 71.9645 14.3715Z" fill="#A6A6A6"/>
<path d="M69.701 14.3715C69.7027 14.7629 69.588 15.146 69.3715 15.4721C69.1551 15.7982 68.8467 16.0527 68.4854 16.2032C68.1241 16.3538 67.7262 16.3936 67.3422 16.3176C66.9582 16.2416 66.6055 16.0533 66.3287 15.7766C66.052 15.4998 65.8636 15.147 65.7877 14.7631C65.7117 14.3791 65.7515 13.9812 65.9021 13.6199C66.0526 13.2586 66.3071 12.9502 66.6332 12.7337C66.9593 12.5173 67.3424 12.4026 67.7338 12.4043C68.2555 12.4043 68.7559 12.6115 69.1248 12.9804C69.4938 13.3494 69.701 13.8497 69.701 14.3715Z" fill="rgba(255, 128, 0, 1)"/>
<path d="M85.7516 290.788H49.3866V299.382H85.7516V290.788Z" fill="#263238"/>
<path d="M93.637 299.382H41.5012V316.239H93.637V299.382Z" fill="rgba(255, 128, 0, 1)"/>
<path d="M88.7149 85.2742H49.7982V42.1679H75.257C77.4084 42.1671 79.4868 42.948 81.1055 44.3653C82.7241 45.7825 83.7727 47.7396 84.0561 49.8722L88.7149 85.2742Z" fill="rgba(5, 60, 97, 1)"/>
<path d="M78.1214 72.1867H59.8813C59.6827 72.1909 59.485 72.1602 59.2969 72.0962C58.8739 71.969 58.5031 71.709 58.2392 71.3547C57.9754 71.0005 57.8325 70.5707 57.8318 70.129V47.1066H70.804C71.2407 47.1016 71.6766 47.1429 72.1045 47.23C73.079 47.3966 74.0073 47.7668 74.829 48.3166C75.3994 48.6969 75.9098 49.1602 76.3435 49.6911C77.2337 50.7407 77.805 52.0231 77.9898 53.3869L80.1792 69.8491C80.2166 70.1414 80.1914 70.4383 80.1051 70.72C80.0188 71.0018 79.8734 71.2619 79.6787 71.483C79.484 71.7042 79.2444 71.8814 78.9759 72.0027C78.7074 72.1241 78.4161 72.1868 78.1214 72.1867Z" fill="#263238"/>
<g opacity="0.4">
<path d="M76.1624 60.1776C76.1634 60.4456 76.1108 60.7111 76.0076 60.9585C75.9044 61.2059 75.7527 61.4301 75.5615 61.618L65.001 72.1867H59.8813C59.6827 72.1909 59.4849 72.1602 59.2969 72.0962L72.6724 58.7289C72.9595 58.4453 73.3238 58.2527 73.7199 58.1753C74.1159 58.098 74.5259 58.1392 74.8986 58.2939C75.2713 58.4486 75.59 58.7099 75.8149 59.045C76.0397 59.3801 76.1606 59.774 76.1624 60.1776Z" fill="white"/>
<path d="M76.3435 49.6994L57.8318 68.2029V65.322L74.829 48.3248C75.3994 48.7052 75.9098 49.1685 76.3435 49.6994Z" fill="white"/>
<path d="M72.1045 47.2383L61.5934 57.7494C61.3781 57.9639 61.1042 58.1099 60.8061 58.169C60.508 58.2281 60.1991 58.1976 59.9183 58.0814C59.6376 57.9652 59.3974 57.7685 59.2283 57.5161C59.0591 57.2636 58.9684 56.9668 58.9677 56.6629C58.969 56.4635 59.0096 56.2663 59.0873 56.0827C59.165 55.8991 59.2782 55.7326 59.4204 55.5928L67.8984 47.1066H70.804C71.2409 47.1043 71.6769 47.1484 72.1045 47.2383Z" fill="white"/>
</g>
<path d="M47.0489 264.679L46.267 270.276L45.4192 276.293L37.6819 331.121H25.0389L32.7762 276.293L33.624 270.276L34.4059 264.679H47.0489Z" fill="rgba(5, 60, 97, 1)"/>
<path opacity="0.1" d="M45.2216 264.679C44.5549 270.235 43.8388 275.783 43.1144 281.323L40.8838 297.949L38.5462 314.543L37.3444 322.848L36.0851 331.129L37.114 322.807L38.2169 314.477L40.4476 297.859L42.7852 281.257C43.5589 275.725 44.3656 270.169 45.2216 264.679Z" fill="black"/>
<path opacity="0.1" d="M46.267 270.276L45.4192 276.293H32.7762L33.624 270.276H46.267Z" fill="black"/>
<path d="M109.465 264.679L110.247 270.276L111.095 276.293L118.824 331.121H131.467L123.738 276.293L122.89 270.276L122.108 264.679H109.465Z" fill="rgba(5, 60, 97, 1)"/>
<path opacity="0.1" d="M111.334 264.679C112.001 270.235 112.717 275.783 113.441 281.323L115.672 297.949L118.009 314.543L119.211 322.848L120.47 331.129L119.441 322.807L118.363 314.486L116.133 297.867L113.795 281.265C112.997 275.725 112.19 270.169 111.334 264.679Z" fill="black"/>
<path opacity="0.1" d="M110.247 270.276H122.89L123.738 276.293H111.095L110.247 270.276Z" fill="black"/>
<path d="M46.588 253.18H36.5625L37.8136 243.838H45.3451L46.588 253.18Z" fill="rgba(5, 60, 97, 1)"/>
<path opacity="0.1" d="M46.588 253.18H36.5625L37.8136 243.838H45.3451L46.588 253.18Z" fill="black"/>
<path d="M50.9175 237.155C50.9175 239.002 50.3696 240.808 49.3431 242.345C48.3165 243.881 46.8574 245.079 45.1504 245.786C43.4433 246.493 41.5648 246.678 39.7526 246.317C37.9404 245.957 36.2758 245.067 34.9692 243.76C33.6627 242.454 32.7729 240.789 32.4124 238.977C32.052 237.165 32.237 235.286 32.9441 233.579C33.6511 231.872 34.8486 230.413 36.3849 229.387C37.9212 228.36 39.7275 227.812 41.5752 227.812C42.8021 227.812 44.0169 228.054 45.1504 228.523C46.2838 228.993 47.3137 229.681 48.1812 230.549C49.0487 231.416 49.7369 232.446 50.2064 233.579C50.6759 234.713 50.9175 235.928 50.9175 237.155Z" fill="rgba(5, 60, 97, 1)"/>
<path d="M48.6787 237.155C48.6803 238.56 48.2651 239.934 47.4855 241.103C46.706 242.272 45.5972 243.184 44.2993 243.723C43.0015 244.262 41.573 244.404 40.1945 244.131C38.816 243.858 37.5495 243.182 36.5553 242.189C35.561 241.195 34.8837 239.93 34.6089 238.552C34.3341 237.173 34.4743 235.745 35.0117 234.446C35.5491 233.148 36.4596 232.038 37.6279 231.257C38.7963 230.476 40.17 230.059 41.5752 230.059C43.4578 230.059 45.2633 230.807 46.5952 232.137C47.9271 233.467 48.6765 235.272 48.6787 237.155Z" fill="white"/>
<path d="M47.5099 236.743C47.4456 235.897 47.207 235.073 46.8089 234.324C46.4109 233.574 45.862 232.916 45.1969 232.389C44.5252 231.869 43.7553 231.49 42.9335 231.275C42.1117 231.06 41.2549 231.013 40.4146 231.138C39.5792 231.266 38.7805 231.57 38.0711 232.03C37.3618 232.49 36.7578 233.094 36.2991 233.804C35.8158 234.555 35.4988 235.4 35.3696 236.283C35.2404 237.166 35.302 238.067 35.5501 238.924C35.9723 240.417 36.97 241.681 38.3239 242.439C39.6409 243.189 41.1886 243.427 42.67 243.106C44.1058 242.804 45.3936 242.016 46.3163 240.875C47.2258 239.749 47.7508 238.362 47.8144 236.916C47.8144 236.85 47.8144 236.792 47.7568 236.792C47.6992 236.792 47.6909 236.842 47.6909 236.916C47.6561 237.498 47.5455 238.074 47.3617 238.628C46.9711 239.722 46.2981 240.693 45.4109 241.443C44.9594 241.818 44.4648 242.139 43.9376 242.398C43.1833 242.758 42.3614 242.954 41.5258 242.974C40.6903 242.994 39.86 242.837 39.0894 242.513C38.3123 242.186 37.6153 241.695 37.0469 241.072C36.4784 240.45 36.0519 239.711 35.797 238.908C35.5423 238.088 35.4664 237.222 35.5743 236.371C35.6822 235.519 35.9714 234.7 36.4226 233.969C36.8615 233.269 37.4458 232.671 38.1361 232.217C38.8263 231.762 39.6062 231.462 40.4229 231.335C41.523 231.159 42.6505 231.283 43.6853 231.697C44.7202 232.11 45.6237 232.795 46.2999 233.681C46.6382 234.134 46.915 234.629 47.123 235.154C47.3077 235.687 47.432 236.24 47.4934 236.801C47.5021 236.794 47.5084 236.785 47.5114 236.775C47.5143 236.764 47.5138 236.753 47.5099 236.743Z" fill="rgba(5, 60, 97, 1)"/>
<path d="M46.6785 236.751C46.6155 236.027 46.4047 235.323 46.0593 234.683C45.7139 234.043 45.2411 233.481 44.6701 233.031C44.0913 232.585 43.4287 232.259 42.7217 232.074C42.0148 231.889 41.2778 231.847 40.5546 231.952C39.8369 232.058 39.1498 232.314 38.5383 232.704C37.9268 233.094 37.4049 233.61 37.0069 234.216C36.5812 234.863 36.2991 235.594 36.1798 236.359C36.0606 237.125 36.1068 237.907 36.3155 238.653C36.4941 239.297 36.7984 239.901 37.2109 240.428C37.6234 240.954 38.1359 241.395 38.719 241.723C39.8727 242.367 41.2217 242.569 42.5136 242.291C43.7587 242.02 44.8722 241.328 45.6661 240.332C46.4519 239.354 46.9072 238.152 46.9666 236.899C46.9666 236.842 46.9666 236.792 46.909 236.792C46.8513 236.792 46.8431 236.833 46.8431 236.899C46.7722 237.905 46.4343 238.874 45.8642 239.706C45.2942 240.538 44.5126 241.203 43.6001 241.632C42.9504 241.949 42.2409 242.123 41.5185 242.145C40.7962 242.166 40.0776 242.033 39.4104 241.756C38.7377 241.471 38.1352 241.042 37.6448 240.501C37.1543 239.959 36.7878 239.317 36.5707 238.62C36.3529 237.907 36.2908 237.156 36.3888 236.418C36.4868 235.679 36.7426 234.97 37.1386 234.339C37.5207 233.744 38.0263 233.237 38.6214 232.853C39.2164 232.47 39.8869 232.219 40.5875 232.117C41.5246 231.974 42.4828 232.084 43.3637 232.434C44.2446 232.784 45.0165 233.362 45.6002 234.109C45.883 234.498 46.1153 234.921 46.2916 235.368C46.4552 235.824 46.5684 236.296 46.6291 236.776L46.6785 236.751Z" fill="rgba(5, 60, 97, 1)"/>
<path d="M45.8472 236.759C45.7876 236.157 45.6058 235.574 45.3128 235.044C45.0198 234.515 44.6219 234.051 44.1433 233.681C43.1811 232.941 41.9645 232.612 40.7603 232.767C40.1586 232.847 39.5806 233.054 39.0642 233.373C38.5478 233.692 38.1048 234.117 37.7642 234.619C37.3964 235.163 37.1495 235.78 37.0402 236.427C36.9309 237.075 36.9616 237.738 37.1304 238.373C37.2757 238.926 37.5314 239.443 37.8823 239.895C38.2331 240.346 38.6718 240.721 39.1717 240.998C40.1534 241.554 41.3076 241.721 42.4066 241.468C43.4577 241.24 44.399 240.659 45.0734 239.821C45.7308 238.99 46.1134 237.974 46.1682 236.916C46.1682 236.866 46.1682 236.825 46.1106 236.825C46.0529 236.825 46.0447 236.825 46.0447 236.916C45.9764 237.761 45.6883 238.573 45.2089 239.272C44.7295 239.971 44.0755 240.532 43.312 240.9C42.765 241.172 42.1662 241.323 41.5557 241.345C40.9452 241.366 40.3372 241.256 39.7726 241.023C39.2016 240.781 38.6918 240.414 38.2803 239.95C37.8688 239.486 37.566 238.936 37.3938 238.34C37.215 237.738 37.1687 237.105 37.2583 236.484C37.3478 235.863 37.571 235.269 37.9124 234.743C38.2366 234.252 38.6622 233.836 39.1606 233.524C39.659 233.212 40.2185 233.01 40.8015 232.932C41.575 232.841 42.3591 232.934 43.0897 233.204C43.8234 233.48 44.467 233.952 44.95 234.57C45.1889 234.889 45.3853 235.238 45.5344 235.607C45.6781 235.984 45.7803 236.376 45.8389 236.776C45.8389 236.776 45.8554 236.776 45.8472 236.759Z" fill="rgba(5, 60, 97, 1)"/>
<path d="M45.0158 236.768C44.9609 236.283 44.8086 235.815 44.5681 235.39C44.3277 234.966 44.004 234.594 43.6165 234.298C42.8483 233.72 41.89 233.452 40.9332 233.549C40.4419 233.603 39.9677 233.761 39.542 234.012C39.1163 234.264 38.7488 234.602 38.4639 235.006C38.1535 235.447 37.9414 235.949 37.842 236.479C37.7426 237.008 37.7582 237.553 37.8877 238.076C37.999 238.533 38.2025 238.962 38.4855 239.337C38.7686 239.712 39.1254 240.025 39.5339 240.258C40.3475 240.713 41.3036 240.842 42.209 240.62C43.077 240.417 43.8479 239.92 44.3903 239.212C44.9202 238.531 45.2303 237.704 45.2792 236.842C45.2792 236.801 45.2792 236.768 45.2216 236.768C45.2034 236.77 45.1866 236.778 45.1745 236.792C45.1623 236.806 45.1556 236.823 45.1558 236.842C45.0931 237.525 44.8558 238.181 44.4666 238.746C44.0774 239.311 43.5494 239.766 42.9334 240.068C42.4922 240.3 42.0059 240.432 41.5084 240.456C41.0108 240.481 40.5139 240.396 40.0525 240.208C39.5993 240.012 39.1948 239.719 38.8676 239.349C38.5404 238.979 38.2986 238.542 38.1593 238.068C38.0199 237.578 37.9888 237.064 38.0684 236.56C38.148 236.057 38.3364 235.577 38.6203 235.154C38.8859 234.767 39.2326 234.442 39.6362 234.202C40.0398 233.962 40.4908 233.812 40.9579 233.763C41.5684 233.709 42.1834 233.788 42.7605 233.994C43.3418 234.206 43.8541 234.573 44.2421 235.056C44.4378 235.309 44.601 235.585 44.7277 235.879C44.8425 236.183 44.9307 236.497 44.9911 236.817C44.9911 236.817 45.0241 236.776 45.0158 236.768Z" fill="rgba(5, 60, 97, 1)"/>
<path d="M119.73 253.18H109.704L110.955 243.838H118.487L119.73 253.18Z" fill="rgba(5, 60, 97, 1)"/>
<path opacity="0.1" d="M119.73 253.18H109.704L110.955 243.838H118.487L119.73 253.18Z" fill="black"/>
<path d="M124.059 237.155C124.059 239.002 123.511 240.808 122.485 242.345C121.458 243.881 119.999 245.079 118.292 245.786C116.585 246.493 114.706 246.678 112.894 246.317C111.082 245.957 109.417 245.067 108.111 243.76C106.804 242.454 105.915 240.789 105.554 238.977C105.194 237.165 105.379 235.286 106.086 233.579C106.793 231.872 107.99 230.413 109.527 229.387C111.063 228.36 112.869 227.812 114.717 227.812C115.944 227.812 117.159 228.054 118.292 228.523C119.425 228.993 120.455 229.681 121.323 230.549C122.19 231.416 122.878 232.446 123.348 233.579C123.817 234.713 124.059 235.928 124.059 237.155Z" fill="rgba(5, 60, 97, 1)"/>
<path d="M121.82 237.155C121.822 238.56 121.407 239.934 120.627 241.103C119.848 242.272 118.739 243.184 117.441 243.723C116.143 244.262 114.715 244.404 113.336 244.131C111.958 243.858 110.691 243.182 109.697 242.189C108.703 241.195 108.025 239.93 107.75 238.552C107.476 237.173 107.616 235.745 108.153 234.446C108.691 233.148 109.601 232.038 110.77 231.257C111.938 230.476 113.312 230.059 114.717 230.059C116.599 230.059 118.405 230.807 119.737 232.137C121.069 233.467 121.818 235.272 121.82 237.155Z" fill="white"/>
<path d="M120.651 236.743C120.587 235.897 120.349 235.073 119.951 234.324C119.553 233.574 119.004 232.916 118.339 232.389C117.667 231.869 116.897 231.49 116.075 231.275C115.253 231.06 114.397 231.013 113.556 231.138C112.721 231.266 111.922 231.57 111.213 232.03C110.503 232.49 109.899 233.094 109.441 233.804C108.957 234.555 108.64 235.4 108.511 236.283C108.382 237.166 108.444 238.067 108.692 238.924C109.114 240.417 110.112 241.681 111.466 242.439C112.783 243.189 114.33 243.427 115.812 243.106C117.247 242.804 118.535 242.016 119.458 240.875C120.371 239.751 120.896 238.363 120.956 236.916C120.956 236.85 120.956 236.792 120.898 236.792C120.841 236.792 120.833 236.842 120.833 236.916C120.802 237.499 120.691 238.075 120.503 238.628C120.113 239.722 119.44 240.693 118.553 241.443C118.101 241.818 117.606 242.139 117.079 242.398C116.325 242.758 115.503 242.954 114.667 242.974C113.832 242.994 113.002 242.837 112.231 242.513C111.454 242.186 110.757 241.695 110.188 241.072C109.62 240.45 109.194 239.711 108.939 238.908C108.684 238.088 108.608 237.222 108.716 236.371C108.824 235.519 109.113 234.7 109.564 233.969C110.003 233.269 110.587 232.671 111.278 232.217C111.968 231.762 112.748 231.462 113.564 231.335C114.665 231.159 115.792 231.283 116.827 231.697C117.862 232.11 118.765 232.795 119.441 233.681C119.78 234.134 120.057 234.629 120.265 235.154C120.449 235.687 120.574 236.24 120.635 236.801C120.647 236.784 120.653 236.763 120.651 236.743Z" fill="rgba(5, 60, 97, 1)"/>
<path d="M119.82 236.751C119.757 236.027 119.546 235.323 119.201 234.683C118.856 234.043 118.383 233.481 117.812 233.031C117.233 232.585 116.57 232.259 115.863 232.074C115.156 231.889 114.419 231.847 113.696 231.952C112.979 232.058 112.291 232.314 111.68 232.704C111.068 233.094 110.547 233.61 110.149 234.216C109.723 234.863 109.441 235.594 109.321 236.359C109.202 237.125 109.248 237.907 109.457 238.653C109.636 239.297 109.94 239.901 110.352 240.428C110.765 240.954 111.277 241.395 111.861 241.723C113.014 242.367 114.363 242.569 115.655 242.291C116.9 242.02 118.014 241.328 118.808 240.332C119.593 239.354 120.049 238.152 120.108 236.899C120.108 236.842 120.108 236.792 120.051 236.792C119.993 236.792 119.985 236.833 119.985 236.899C119.914 237.905 119.576 238.874 119.006 239.706C118.436 240.538 117.654 241.203 116.742 241.632C116.092 241.949 115.382 242.123 114.66 242.145C113.938 242.166 113.219 242.033 112.552 241.756C111.878 241.472 111.274 241.044 110.782 240.502C110.29 239.961 109.922 239.318 109.704 238.62C109.486 237.907 109.424 237.156 109.522 236.418C109.62 235.679 109.876 234.97 110.272 234.339C110.654 233.744 111.16 233.237 111.755 232.853C112.35 232.47 113.02 232.219 113.721 232.117C114.658 231.974 115.616 232.084 116.497 232.434C117.378 232.784 118.15 233.362 118.734 234.109C119.016 234.498 119.249 234.921 119.425 235.368C119.589 235.824 119.702 236.296 119.762 236.776C119.762 236.776 119.828 236.768 119.82 236.751Z" fill="rgba(5, 60, 97, 1)"/>
<path d="M118.989 236.759C118.929 236.157 118.747 235.574 118.454 235.044C118.161 234.515 117.763 234.051 117.285 233.681C116.323 232.941 115.106 232.612 113.902 232.767C113.3 232.847 112.722 233.054 112.206 233.373C111.689 233.692 111.246 234.117 110.906 234.619C110.538 235.163 110.291 235.78 110.182 236.427C110.072 237.075 110.103 237.738 110.272 238.373C110.417 238.926 110.673 239.443 111.024 239.895C111.375 240.346 111.813 240.721 112.313 240.998C113.295 241.554 114.449 241.721 115.548 241.468C116.599 241.24 117.541 240.659 118.215 239.821C118.876 238.992 119.259 237.975 119.31 236.916C119.31 236.866 119.31 236.825 119.252 236.825C119.195 236.825 119.186 236.825 119.186 236.916C119.118 237.761 118.83 238.573 118.35 239.272C117.871 239.971 117.217 240.532 116.454 240.9C115.907 241.172 115.308 241.323 114.697 241.345C114.087 241.366 113.479 241.256 112.914 241.023C112.344 240.786 111.833 240.426 111.419 239.967C111.004 239.509 110.697 238.964 110.519 238.373C110.34 237.771 110.294 237.138 110.383 236.517C110.473 235.896 110.696 235.302 111.038 234.776C111.362 234.285 111.787 233.869 112.286 233.557C112.784 233.245 113.344 233.043 113.927 232.965C114.7 232.874 115.484 232.967 116.215 233.237C116.774 233.438 117.284 233.756 117.71 234.171C118.136 234.585 118.468 235.086 118.684 235.64C118.828 236.017 118.93 236.409 118.989 236.809C118.989 236.809 118.997 236.776 118.989 236.759Z" fill="rgba(5, 60, 97, 1)"/>
<path d="M118.157 236.768C118.102 236.283 117.95 235.815 117.71 235.39C117.469 234.966 117.146 234.595 116.758 234.298C115.99 233.719 115.032 233.451 114.075 233.549C113.583 233.603 113.109 233.761 112.684 234.012C112.258 234.264 111.89 234.602 111.605 235.006C111.297 235.448 111.085 235.95 110.986 236.479C110.887 237.009 110.901 237.553 111.029 238.076C111.141 238.533 111.344 238.962 111.627 239.337C111.91 239.712 112.267 240.025 112.675 240.258C113.489 240.713 114.445 240.842 115.351 240.62C116.219 240.417 116.99 239.92 117.532 239.212C118.062 238.531 118.372 237.704 118.421 236.842C118.421 236.801 118.421 236.768 118.363 236.768C118.345 236.77 118.328 236.778 118.316 236.792C118.304 236.806 118.297 236.823 118.297 236.842C118.235 237.525 117.997 238.181 117.608 238.746C117.219 239.311 116.691 239.766 116.075 240.068C115.634 240.3 115.148 240.432 114.65 240.456C114.152 240.481 113.656 240.396 113.194 240.208C112.726 240.015 112.307 239.718 111.969 239.341C111.631 238.963 111.383 238.514 111.243 238.027C111.104 237.537 111.073 237.022 111.152 236.519C111.232 236.016 111.42 235.536 111.704 235.113C111.97 234.726 112.317 234.401 112.72 234.161C113.124 233.921 113.575 233.771 114.042 233.722C114.652 233.668 115.267 233.746 115.844 233.953C116.426 234.165 116.938 234.532 117.326 235.014C117.522 235.267 117.685 235.544 117.812 235.838C117.926 236.142 118.015 236.456 118.075 236.776C118.075 236.776 118.166 236.776 118.157 236.768Z" fill="rgba(5, 60, 97, 1)"/>
<path d="M141.237 248.415H15.2687V272.507H141.237V248.415Z" fill="white"/>
<path d="M141.451 272.713H15.0629V248.209H141.451V272.713ZM15.5156 272.301H141.04V248.62H15.4744L15.5156 272.301Z" fill="#263238"/>
<path d="M41.1637 248.415L32.0189 272.515H15.7543L24.8908 248.415H41.1637Z" fill="rgba(5, 60, 97, 1)"/>
<path d="M74.5079 248.415L65.3713 272.515H49.0902L58.235 248.415H74.5079Z" fill="rgba(5, 60, 97, 1)"/>
<path d="M107.852 248.415L98.7073 272.515H82.4426L91.5874 248.415H107.852Z" fill="rgba(5, 60, 97, 1)"/>
<path d="M141.205 248.415L132.06 272.515H115.787L124.923 248.415H141.205Z" fill="rgba(5, 60, 97, 1)"/>
<path d="M138.694 301.958H17.8203V317.21H138.694V301.958Z" fill="white"/>
<path d="M138.9 317.416H17.6392V301.777H138.9V317.416ZM18.026 317.004H138.488V302.188H18.026V317.004Z" fill="#263238"/>
<path d="M42.6618 301.958L33.8874 317.21H18.2812L27.0556 301.958H42.6618Z" fill="rgba(5, 60, 97, 1)"/>
<path d="M74.6643 301.958L65.8899 317.21H50.2755L59.0499 301.958H74.6643Z" fill="rgba(5, 60, 97, 1)"/>
<path d="M106.65 301.958L97.8842 317.21H82.2698L91.0441 301.958H106.65Z" fill="rgba(5, 60, 97, 1)"/>
<path d="M138.653 301.958L129.879 317.21H114.264L123.039 301.958H138.653Z" fill="rgba(5, 60, 97, 1)"/>
<path d="M97.3236 265.008C99.8368 254.475 93.3356 243.899 82.8029 241.386C72.2702 238.873 61.6945 245.374 59.1814 255.907C56.6683 266.44 63.1694 277.015 73.7021 279.529C84.2348 282.042 94.8105 275.541 97.3236 265.008Z" fill="white"/>
<path d="M78.2531 280.269C74.3342 280.269 70.5034 279.107 67.2451 276.929C63.9868 274.752 61.4474 271.657 59.9481 268.037C58.4488 264.416 58.057 260.432 58.8221 256.589C59.5872 252.745 61.475 249.215 64.2466 246.444C67.0182 243.674 70.5492 241.788 74.3929 241.024C78.2367 240.261 82.2205 240.654 85.8406 242.155C89.4607 243.656 92.5544 246.196 94.7304 249.456C96.9064 252.715 98.067 256.546 98.0653 260.465C98.061 265.717 95.9719 270.753 92.2571 274.467C88.5423 278.18 83.5055 280.267 78.2531 280.269ZM78.2531 241.064C74.416 241.064 70.665 242.202 67.4746 244.334C64.2842 246.466 61.7975 249.496 60.3291 253.041C58.8608 256.586 58.4766 260.487 59.2251 264.25C59.9737 268.013 61.8215 271.47 64.5347 274.183C67.2479 276.897 70.7048 278.744 74.4682 279.493C78.2315 280.241 82.1324 279.857 85.6774 278.389C89.2224 276.92 92.2524 274.434 94.3842 271.243C96.5159 268.053 97.6538 264.302 97.6538 260.465C97.6494 255.321 95.604 250.389 91.9666 246.751C88.3292 243.114 83.3971 241.069 78.2531 241.064Z" fill="#263238"/>
<path d="M94.4263 264.316C96.5534 255.388 91.0398 246.426 82.1115 244.299C73.1832 242.172 64.221 247.685 62.094 256.614C59.967 265.542 65.4805 274.504 74.4088 276.631C83.3372 278.758 92.2993 273.245 94.4263 264.316Z" fill="rgba(5, 60, 97, 1)"/>
<path d="M88.6736 258.531H67.8324V262.391H88.6736V258.531Z" fill="white"/>
<path d="M352.546 333.137L356.711 304.477L357.921 305.02L359.847 305.892L368.21 309.679L375.692 313.053L380.631 315.284L388.129 318.675L392.245 320.527C392.956 320.914 393.531 321.508 393.894 322.231C394.257 322.955 394.389 323.772 394.273 324.572C394.158 325.373 393.799 326.119 393.247 326.71C392.695 327.301 391.974 327.708 391.183 327.878L389.446 328.116L386.714 328.487L378.573 329.59L373.206 330.322L365.058 331.434L361.65 331.903L352.546 333.137Z" fill="rgba(5, 60, 97, 1)"/>
<g style="mix-blend-mode:multiply" opacity="0.1">
<path d="M358.127 305.275C357.715 306.353 357.203 307.389 356.596 308.37C354.053 312.337 352.217 320.453 353.6 329.771C353.679 330.778 353.887 331.771 354.217 332.726L355.962 332.611C355.962 332.611 364.086 314.782 390.648 319.737L388.179 318.601L380.689 315.226L375.75 312.996L368.26 309.605L358.127 305.275Z" fill="black"/>
</g>
<path d="M378.565 329.59L380.639 315.284L388.138 318.675L386.706 328.487L378.565 329.59Z" fill="#EBEBEB"/>
<path d="M365.049 331.434L368.21 309.67L375.709 313.062L373.198 330.322L365.049 331.434Z" fill="#EBEBEB"/>
<path d="M279.388 332.43H251.485L251.831 331.195L252.399 329.236L254.868 320.741L257.057 313.128L258.498 308.115L260.687 300.501L261.889 296.328C262.156 295.595 262.642 294.963 263.281 294.516C263.92 294.069 264.681 293.829 265.461 293.829C266.241 293.829 267.002 294.069 267.641 294.516C268.28 294.963 268.766 295.595 269.034 296.328L269.503 297.974L270.235 300.518L272.425 308.131L273.865 313.144L276.055 320.758L276.968 323.943L279.388 332.43Z" fill="rgba(5, 60, 97, 1)"/>
<path d="M280.417 339.665H243.748L249.592 325.186H286.261L280.417 339.665Z" fill="rgba(5, 60, 97, 1)"/>
<path d="M272.433 308.115H258.506L260.696 300.509H270.244L272.433 308.115Z" fill="#EBEBEB"/>
<path d="M276.063 320.741H254.876L257.066 313.128H273.873L276.063 320.741Z" fill="#EBEBEB"/>
<path d="M251.123 330.487C253.382 331.501 255.76 332.223 258.202 332.635C260.617 333.056 263.068 333.244 265.519 333.195C266.745 333.113 267.988 333.104 269.19 332.915C269.799 332.833 270.416 332.792 271.017 332.685C271.618 332.578 272.227 332.454 272.836 332.355C273.141 332.298 273.446 332.248 273.75 332.183L274.647 331.96L276.45 331.524C277.643 331.203 278.82 330.8 280.039 330.487C278.911 331.022 277.775 331.557 276.615 332.018L274.828 332.627L273.939 332.923C273.635 333.014 273.33 333.08 273.026 333.162L271.182 333.598C270.573 333.738 269.939 333.804 269.322 333.911C268.069 334.092 266.808 334.208 265.544 334.257C263.014 334.301 260.489 334.024 258.029 333.434C255.565 332.884 253.224 331.885 251.123 330.487Z" fill="#263238"/>
<g style="mix-blend-mode:multiply" opacity="0.1">
<path d="M252.086 330.964C253.169 331.209 254.227 331.553 255.247 331.993C259.362 333.87 267.371 334.463 276.104 331.878C277.051 331.662 277.966 331.327 278.829 330.882L278.475 329.236C278.475 329.236 260.366 323.968 261.403 297.958L260.671 300.501L258.481 308.115L257.041 313.128L254.851 320.741L252.086 330.964Z" fill="black"/>
</g>
<path d="M344.957 333.088L350.431 295.406L364.44 303.579L358.958 341.253L344.957 333.088Z" fill="rgba(5, 60, 97, 1)"/>
<path d="M358.909 319.169C358.127 326.133 355.617 331.565 353.279 331.302C350.941 331.038 349.698 325.186 350.48 318.223C351.262 311.259 353.773 305.835 356.119 306.098C358.465 306.362 359.691 312.214 358.909 319.169Z" fill="#263238"/>
<path d="M421.696 339.615C423.342 340.126 469.84 339.13 471.585 337.969C472.251 337.533 472.498 330.742 472.572 322.544C472.572 320.774 472.572 318.947 472.572 317.087C472.572 314.881 472.572 312.658 472.531 310.502C472.408 300.789 472.111 292.237 472.111 292.237L441.837 292.797L442.191 311.062L442.315 317.646L442.578 323.095C442.578 323.095 424.939 331.45 423.161 332.923C421.383 334.397 420.058 339.113 421.696 339.615Z" fill="#D3766A"/>
<path d="M421.696 339.615C423.342 340.126 469.84 339.13 471.585 337.969C472.251 337.533 472.498 330.742 472.572 322.544C472.572 320.774 472.572 318.947 472.572 317.087C472.572 314.881 472.572 312.658 472.531 310.502L442.191 311.062L442.315 317.646L442.578 323.095C442.578 323.095 424.939 331.45 423.161 332.923C421.383 334.397 420.058 339.113 421.696 339.615Z" fill="white"/>
<path d="M421.556 339.689C422.618 340.019 442.43 339.689 456.851 339.154C460.143 339.023 463.238 338.874 465.699 338.718C469.09 338.504 471.362 338.274 471.724 338.035C472.548 337.492 472.745 327.54 472.729 317.037L442.274 317.605L442.529 323.087C442.529 323.087 424.799 331.475 423.005 332.965C421.21 334.454 419.918 339.171 421.556 339.689Z" fill="rgba(5, 60, 97, 1)"/>
<path d="M422.181 337.804C430.017 337.442 461.691 336.726 469.428 336.981C469.494 336.981 469.494 336.981 469.428 336.981C461.666 337.508 430.034 337.969 422.19 337.903C422.025 337.928 422.017 337.813 422.181 337.804Z" fill="#263238"/>
<path d="M441.417 321.367C444.496 320.725 448.274 321.12 450.677 323.268C450.776 323.351 450.678 323.482 450.554 323.449C447.585 322.564 444.531 321.995 441.442 321.754C441.397 321.748 441.355 321.726 441.324 321.693C441.292 321.659 441.274 321.616 441.271 321.57C441.268 321.525 441.281 321.48 441.308 321.442C441.334 321.405 441.373 321.379 441.417 321.367Z" fill="#263238"/>
<path d="M439.22 322.758C442.298 322.116 446.076 322.511 448.48 324.659C448.579 324.742 448.48 324.873 448.356 324.84C445.389 323.951 442.334 323.382 439.245 323.145C439.199 323.139 439.157 323.117 439.126 323.084C439.095 323.05 439.076 323.007 439.073 322.962C439.07 322.916 439.083 322.871 439.11 322.833C439.137 322.796 439.176 322.77 439.22 322.758Z" fill="#263238"/>
<path d="M437.022 324.149C440.092 323.507 443.879 323.902 446.282 326.042C446.373 326.133 446.282 326.256 446.159 326.231C443.191 325.343 440.136 324.774 437.047 324.536C437.001 324.53 436.96 324.508 436.928 324.475C436.897 324.441 436.878 324.398 436.875 324.353C436.872 324.307 436.886 324.262 436.912 324.224C436.939 324.187 436.978 324.161 437.022 324.149Z" fill="#263238"/>
<path d="M434.824 325.54C437.895 324.898 441.681 325.285 444.084 327.433C444.175 327.516 444.084 327.647 443.961 327.623C440.993 326.734 437.938 326.165 434.849 325.927C434.804 325.921 434.762 325.899 434.731 325.866C434.699 325.833 434.681 325.789 434.678 325.744C434.675 325.698 434.688 325.653 434.715 325.616C434.741 325.578 434.78 325.552 434.824 325.54Z" fill="#263238"/>
<path d="M437.047 318.733C439.261 320.379 442.117 321.021 444.685 321.91C444.949 322.001 445.154 321.746 445.163 321.515C445.212 321.515 445.253 321.466 445.228 321.4C444.227 318.683 442.523 316.28 440.29 314.436C438.981 313.383 436.701 312.675 435.532 314.37C434.363 316.066 435.779 317.753 437.047 318.733ZM436.224 316.264C435.606 312.889 439.277 314.617 440.216 315.44C440.805 315.976 441.356 316.554 441.862 317.169C442.957 318.428 443.854 319.819 444.817 321.178C443.582 320.659 442.348 320.256 441.064 319.787C439.574 319.194 436.545 318.116 436.207 316.264H436.224Z" fill="#263238"/>
<path d="M455.427 316.461C454.604 314.552 452.274 314.757 450.768 315.506C448.205 316.842 446.039 318.829 444.488 321.268C444.481 321.279 444.477 321.292 444.475 321.304C444.474 321.317 444.476 321.33 444.481 321.342C444.486 321.354 444.493 321.365 444.503 321.374C444.513 321.382 444.525 321.388 444.537 321.392C444.488 321.622 444.636 321.918 444.916 321.885C447.615 321.564 450.538 321.556 453.056 320.42C454.53 319.745 456.176 318.264 455.427 316.461ZM448.908 320.577C447.583 320.766 446.257 320.889 444.94 321.128C446.129 319.968 447.376 318.869 448.677 317.836C449.316 317.344 449.987 316.896 450.686 316.494C451.772 315.901 455.723 315.021 454.398 318.19C453.674 319.926 450.48 320.33 448.949 320.552L448.908 320.577Z" fill="#263238"/>
<path opacity="0.2" d="M445.352 339.525C449.27 339.418 453.229 339.294 456.876 339.154C460.168 339.023 463.263 338.874 465.724 338.718C469.107 338.504 471.387 338.274 471.749 338.027C472.457 337.557 472.712 329.87 472.745 320.914C465.823 325.524 452.241 334.8 445.352 339.525Z" fill="black"/>
<path d="M439.599 322.733H474.169C474.169 322.733 472.276 244.958 472.646 243.147C473.535 238.817 493.224 170.252 493.224 170.252L465.938 170.721L456.62 170.878C456.62 170.878 457.444 182.302 457.098 183.512C452.538 200.147 443.64 228.553 441.821 239.081C438.619 257.362 439.599 322.733 439.599 322.733Z" fill="#263238"/>
<path d="M440.718 316.955C446.101 316.815 465.197 316.247 472.383 316.79C472.432 316.79 472.432 316.881 472.383 316.889C469.914 317.293 446.109 317.177 440.718 317.103C440.698 317.103 440.679 317.095 440.666 317.081C440.652 317.068 440.644 317.049 440.644 317.029C440.644 317.009 440.652 316.991 440.666 316.977C440.679 316.963 440.698 316.955 440.718 316.955Z" fill="#37474F"/>
<path d="M469.914 241.459C470.943 237.253 478.639 211.062 480.993 202.773C483.347 194.484 485.553 186.196 487.578 177.841C487.833 176.779 488.096 175.726 488.401 174.672C488.401 174.582 488.557 174.623 488.541 174.713C487.767 178.919 486.738 183.084 485.75 187.249C484.763 191.414 483.701 195.554 482.598 199.687C480.364 207.994 477.931 216.242 475.297 224.429C473.98 228.504 471.807 236.883 470.646 241.007C469.486 245.13 471.379 312.864 471.264 313.967C471.264 314.033 471.238 314.095 471.191 314.142C471.145 314.188 471.082 314.214 471.017 314.214C470.951 314.214 470.888 314.188 470.842 314.142C470.796 314.095 470.77 314.033 470.77 313.967C470.605 305.999 468.893 245.616 469.914 241.459Z" fill="#37474F"/>
<path d="M465.872 170.746C465.872 170.746 472.548 243.525 472.622 243.18C473.445 238.998 491.957 174.516 493.117 170.483L493.167 170.293L465.872 170.746Z" fill="#37474F"/>
<path d="M457.526 343.599C459.172 344.109 505.67 343.113 507.423 341.953C508.081 341.517 508.336 334.734 508.402 326.528C508.402 324.758 508.402 322.931 508.402 321.071C508.402 318.873 508.402 316.642 508.353 314.486C508.229 304.773 507.941 296.221 507.941 296.221L477.659 296.781L478.013 315.045L478.145 321.63L478.4 327.087C478.4 327.087 460.769 335.434 458.991 336.907C457.213 338.381 455.896 343.097 457.526 343.599Z" fill="#D3766A"/>
<path d="M457.526 343.599C459.172 344.109 505.67 343.113 507.423 341.953C508.081 341.517 508.336 334.734 508.402 326.528C508.402 324.758 508.402 322.931 508.402 321.071C508.402 318.873 508.402 316.642 508.353 314.486L478.013 315.045L478.145 321.63L478.4 327.088C478.4 327.088 460.769 335.434 458.991 336.907C457.213 338.381 455.896 343.097 457.526 343.599Z" fill="white"/>
<path d="M457.386 343.673C458.456 344.002 478.268 343.673 492.681 343.138C496.023 343.006 499.068 342.858 501.529 342.71C504.92 342.488 507.192 342.257 507.563 342.019C508.386 341.475 508.575 331.524 508.567 321.021L478.112 321.589L478.375 327.071C478.375 327.071 460.645 335.467 458.851 336.948C457.057 338.43 455.748 343.155 457.386 343.673Z" fill="rgba(5, 60, 97, 1)"/>
<path d="M458.003 341.78C465.839 341.418 497.513 340.71 505.242 340.957C505.307 340.957 505.307 340.998 505.242 341.006C497.488 341.533 465.847 341.986 458.003 341.92C457.855 341.92 457.855 341.78 458.003 341.78Z" fill="#263238"/>
<path d="M477.256 325.318C480.326 324.676 484.112 325.071 486.516 327.219C486.606 327.301 486.516 327.433 486.384 327.409C483.417 326.515 480.362 325.947 477.272 325.713C477.22 325.715 477.169 325.696 477.13 325.661C477.092 325.625 477.069 325.576 477.066 325.524C477.064 325.471 477.083 325.42 477.119 325.381C477.154 325.343 477.203 325.32 477.256 325.318Z" fill="#263238"/>
<path d="M475.058 326.742C478.128 326.1 481.915 326.495 484.318 328.643C484.409 328.725 484.318 328.857 484.186 328.824C481.218 327.937 478.163 327.372 475.074 327.137C475.022 327.139 474.971 327.12 474.932 327.085C474.894 327.049 474.871 327 474.869 326.948C474.867 326.895 474.885 326.844 474.921 326.805C474.956 326.767 475.006 326.744 475.058 326.742Z" fill="#263238"/>
<path d="M472.86 328.133C475.93 327.491 479.717 327.886 482.12 330.034C482.211 330.117 482.12 330.248 481.989 330.215C479.02 329.33 475.965 328.761 472.877 328.52C472.832 328.513 472.791 328.49 472.76 328.456C472.73 328.422 472.712 328.379 472.71 328.333C472.708 328.287 472.722 328.243 472.75 328.206C472.777 328.17 472.816 328.144 472.86 328.133Z" fill="#263238"/>
<path d="M470.663 329.524C473.733 328.882 477.519 329.277 479.923 331.417C480.013 331.508 479.923 331.639 479.791 331.606C476.823 330.717 473.768 330.148 470.679 329.911C470.634 329.904 470.593 329.881 470.563 329.847C470.532 329.813 470.515 329.77 470.513 329.724C470.511 329.679 470.525 329.634 470.552 329.597C470.579 329.561 470.618 329.535 470.663 329.524Z" fill="#263238"/>
<path d="M472.877 322.709C475.099 324.355 477.955 324.989 480.523 325.878C480.787 325.968 480.993 325.713 480.993 325.482C481.006 325.482 481.019 325.479 481.031 325.472C481.043 325.465 481.053 325.456 481.061 325.445C481.068 325.433 481.072 325.42 481.073 325.407C481.074 325.393 481.072 325.38 481.067 325.367C480.062 322.652 478.358 320.25 476.128 318.404C474.819 317.35 472.548 316.65 471.37 318.346C470.193 320.042 471.585 321.746 472.877 322.709ZM472.054 320.239C471.436 316.864 475.107 318.593 476.038 319.416C476.623 319.956 477.173 320.534 477.684 321.145C478.734 322.429 479.718 323.767 480.63 325.153C479.396 324.635 478.161 324.231 476.877 323.77C475.412 323.178 472.383 322.099 472.045 320.239H472.054Z" fill="#263238"/>
<path d="M491.265 320.445C490.442 318.544 488.104 318.741 486.598 319.49C484.038 320.827 481.875 322.814 480.326 325.252C480.316 325.26 480.307 325.27 480.302 325.281C480.296 325.292 480.293 325.305 480.293 325.318C480.293 325.331 480.296 325.343 480.302 325.355C480.307 325.366 480.316 325.376 480.326 325.384C480.326 325.614 480.425 325.902 480.705 325.869C483.404 325.548 486.326 325.54 488.845 324.404C490.36 323.729 492.006 322.256 491.265 320.445ZM484.738 324.561C483.413 324.75 482.096 324.873 480.779 325.112C481.967 323.952 483.215 322.853 484.516 321.82C485.151 321.33 485.819 320.885 486.516 320.486C487.611 319.885 491.561 319.013 490.236 322.174C489.504 323.91 486.318 324.314 484.738 324.536V324.561Z" fill="#263238"/>
<path d="M476.383 326.248L509.909 325.631C509.909 325.631 500.492 204.716 501.677 198.304C503.595 187.817 501.966 175.849 496.92 170.17L464.251 170.771C464.251 170.771 463.765 179.948 467.23 185.389C467.23 185.389 470.333 187.266 471.832 188.097L476.383 326.248Z" fill="#263238"/>
<path d="M477.305 320.297C482.392 320.075 480.927 320.066 486.014 319.894C488.483 319.811 504.855 319.276 507.192 319.614C507.242 319.614 507.242 319.704 507.192 319.712C504.879 320.157 488.516 320.404 486.03 320.437C480.935 320.511 482.4 320.437 477.313 320.437C477.299 320.433 477.285 320.424 477.276 320.412C477.266 320.4 477.26 320.385 477.259 320.37C477.258 320.354 477.262 320.339 477.271 320.326C477.279 320.313 477.291 320.303 477.305 320.297Z" fill="#37474F"/>
<path d="M465.164 183.932C468.403 185.422 471.509 187.184 474.449 189.2C474.474 189.214 474.492 189.238 474.5 189.266C474.508 189.293 474.504 189.323 474.49 189.348C474.476 189.373 474.452 189.392 474.425 189.4C474.397 189.407 474.367 189.404 474.342 189.389C471.206 187.743 467.996 186.097 464.95 184.294C464.913 184.261 464.888 184.216 464.88 184.167C464.872 184.118 464.882 184.067 464.907 184.024C464.932 183.982 464.972 183.949 465.019 183.932C465.066 183.915 465.117 183.915 465.164 183.932Z" fill="#37474F"/>
<path d="M469.313 183.381C469.519 184.011 469.681 184.654 469.798 185.307C469.937 185.813 469.979 186.341 469.922 186.862C469.922 186.961 469.765 186.953 469.716 186.862C469.455 186.376 469.275 185.851 469.181 185.307C469.016 184.714 468.835 184.122 468.687 183.521C468.674 183.44 468.692 183.357 468.738 183.289C468.784 183.221 468.854 183.173 468.934 183.155C469.014 183.137 469.098 183.15 469.168 183.192C469.239 183.234 469.29 183.302 469.313 183.381Z" fill="#37474F"/>
<path d="M469.527 180.228C469.428 179.685 469.329 179.142 469.222 178.582C469.115 178.022 468.959 177.454 468.893 176.886C468.893 176.804 468.737 176.829 468.753 176.886C468.852 177.43 468.868 177.998 468.926 178.533C468.984 179.068 469.041 179.636 469.107 180.179C469.23 181.208 469.42 182.237 469.642 183.249C469.101 183.169 468.586 182.967 468.136 182.656C467.705 182.237 467.417 181.693 467.313 181.101C467.14 180.475 467 179.85 466.819 179.232C466.582 178.556 466.408 177.859 466.3 177.15C466.3 177.059 466.144 177.092 466.16 177.15C466.317 178.636 466.623 180.103 467.074 181.529C467.272 182.097 467.403 182.665 467.897 182.969C468.467 183.265 469.092 183.439 469.733 183.479C469.807 183.521 469.914 183.479 469.905 183.389C469.856 182.418 469.741 181.274 469.527 180.228Z" fill="#37474F"/>
<path d="M496.352 197.983C496.541 195.579 496.887 193.192 497.109 190.789C497.511 185.971 497.127 181.12 495.973 176.425C495.973 176.335 496.088 176.302 496.105 176.384C497.109 180.51 497.618 184.74 497.619 188.986C497.496 193.225 496.796 197.415 496.796 201.662C496.796 205.909 497.224 210.247 497.619 214.527C498.015 218.807 498.336 223.145 498.698 227.45C500.13 244.735 501.48 262.078 502.854 279.396C503.241 284.228 503.603 289.068 503.974 293.9C504.344 298.731 504.92 310.955 505.192 315.885C505.192 316.313 504.583 316.288 504.534 315.885C503.636 307.209 502.887 291.266 502.204 282.565C501.521 273.865 500.83 265.338 500.138 256.72C499.447 248.102 498.78 239.492 498.105 230.882C497.768 226.578 497.447 222.264 497.117 217.96C496.788 213.655 496.393 209.375 496.294 205.078C496.181 202.714 496.201 200.345 496.352 197.983Z" fill="#37474F"/>
<path d="M484.384 176.335C484.388 176.322 484.397 176.311 484.408 176.304C484.419 176.296 484.432 176.292 484.446 176.292C484.459 176.292 484.472 176.296 484.483 176.304C484.494 176.311 484.503 176.322 484.507 176.335C484.716 176.897 484.833 177.489 484.853 178.088C484.962 178.728 485.121 179.358 485.33 179.973C485.714 181.225 486.411 182.358 487.355 183.265C489.446 185.15 492.212 185.809 494.878 186.41C494.977 186.41 494.944 186.566 494.878 186.574C493.307 186.669 491.733 186.454 490.244 185.941C488.915 185.562 487.683 184.902 486.631 184.006C485.628 183.082 484.932 181.873 484.639 180.541C484.49 179.848 484.401 179.143 484.376 178.434C484.376 178.096 484.376 177.751 484.376 177.413C484.302 177.057 484.305 176.69 484.384 176.335Z" fill="#37474F"/>
<path d="M471.552 126.166C457.896 136.299 435.672 137.212 433.195 136.044C427.951 133.632 420.329 110.988 418.486 102.732C417.959 100.345 435.236 100.938 436.965 102.897C438.545 104.683 442.348 120.33 443.936 120.561C451.88 120.812 459.831 120.592 467.749 119.902C479.207 118.717 475.593 123.17 471.552 126.166Z" fill="#D3766A"/>
<path d="M454.711 119.392L456.76 135.385C456.76 135.385 468.918 130.628 474.21 125.747C479.503 120.865 476.482 119.071 471.198 118.799C465.913 118.528 454.711 119.392 454.711 119.392Z" fill="#EBEBEB"/>
<path d="M457.336 119.894C457.336 119.787 457.394 119.746 457.411 119.853C458.263 124.285 458.84 128.766 459.139 133.27C459.139 133.27 459.09 133.27 459.081 133.27C458.522 131.113 457.518 121.047 457.336 119.894Z" fill="#263238"/>
<path d="M503.472 180.714C503.357 180.846 454.991 181.874 454.546 181.389C453.912 180.697 461.715 132.191 469.362 121.606C471.272 118.964 478.137 117.145 480.993 119.82C489.29 127.566 491.035 134.101 493.208 139.427C495.318 145.187 497.091 151.066 498.517 157.033C501.447 168.425 503.859 180.253 503.472 180.714Z" fill="#EBEBEB"/>
<path d="M481.873 119.935C481.873 119.935 474.754 136.184 473.585 140.332C471.98 146.011 469.634 183.447 469.634 183.447L504.204 181.422C504.204 181.422 497.62 143.995 490.088 130.71C484.178 120.256 481.873 119.935 481.873 119.935Z" fill="rgba(5, 60, 97, 1)"/>
<path d="M470.622 120.717C470.622 120.717 466.605 135.533 465.815 137.772C465.024 140.011 458.003 183.471 458.003 183.471L453.74 181.883C453.74 181.883 458.538 151.79 462.794 136.463C467.049 121.137 470.622 120.717 470.622 120.717Z" fill="rgba(5, 60, 97, 1)"/>
<path d="M470.613 168.803L501.579 168.738C501.315 167.577 501.044 166.359 500.756 165.099L470.901 165.157C470.786 166.392 470.704 167.61 470.613 168.803Z" fill="#EBEBEB"/>
<path d="M455.978 168.828H460.407C460.596 167.643 460.802 166.425 461.008 165.19H456.637C456.406 166.458 456.184 167.659 455.978 168.828Z" fill="#EBEBEB"/>
<path d="M470.152 175.191L502.945 175.125C502.715 174.022 502.459 172.804 502.18 171.495L470.416 171.561C470.35 172.845 470.235 174.063 470.152 175.191Z" fill="#EBEBEB"/>
<path d="M454.859 175.224H459.361C459.542 174.08 459.74 172.861 459.946 171.586H455.484C455.262 172.894 455.048 174.112 454.859 175.224Z" fill="#EBEBEB"/>
<path d="M487.174 130.463C489.018 144.028 486.425 162.902 483.339 165.099C474.531 171.363 459.378 174.697 452.933 175.446C449.18 175.882 447.624 157.337 450.941 156.77C456.176 155.897 468.704 153.238 470.482 152.44C472.259 151.642 475.7 139.27 478.943 130.29C482.466 120.536 486.285 123.895 487.174 130.463Z" fill="#D3766A"/>
<path d="M455.089 157.403C452.219 155.472 449.646 153.131 447.451 150.456C444.982 147.164 441.615 142.028 439.796 143.303C436.076 145.929 444.414 158.778 444.414 158.778C444.414 158.778 448.998 163.857 452.925 161.577C453.634 161.147 454.212 160.53 454.594 159.794C454.976 159.058 455.147 158.231 455.089 157.403Z" fill="#D3766A"/>
<path d="M429.326 157.864C429.161 158.429 429.173 159.03 429.36 159.588C429.546 160.146 429.9 160.633 430.371 160.984C429.602 161.622 429.08 162.511 428.898 163.494C428.651 165.239 431.285 166.383 431.285 166.383C430.623 167.21 430.227 168.217 430.149 169.273C430.083 170.968 432.569 172.499 432.569 172.499C432.384 173.597 432.6 174.725 433.178 175.676C434.824 178.146 439.352 178.03 442.232 177.989C445.113 177.948 453.254 175.117 454.859 174.697L454.711 156.218C454.711 156.218 441.722 152.745 438.339 153.28C435.508 153.732 430.017 155.757 429.326 157.864Z" fill="#D3766A"/>
<path d="M430.495 160.696C433.409 159.486 436.52 159.214 439.615 158.753C439.681 158.753 439.697 158.852 439.615 158.86C436.536 159.28 433.573 160.301 430.561 160.844C430.542 160.849 430.522 160.847 430.505 160.838C430.487 160.83 430.473 160.815 430.466 160.798C430.458 160.78 430.456 160.76 430.462 160.741C430.467 160.723 430.479 160.707 430.495 160.696Z" fill="#263238"/>
<path d="M431.343 166.137C432.03 165.931 432.741 165.815 433.458 165.791C434.224 165.717 434.981 165.651 435.738 165.61C437.261 165.511 438.792 165.445 440.315 165.429C440.38 165.429 440.397 165.536 440.315 165.536C438.792 165.634 437.277 165.758 435.763 165.923C435.014 166.005 434.256 166.087 433.499 166.186C432.791 166.315 432.071 166.37 431.351 166.351C431.329 166.343 431.31 166.329 431.296 166.31C431.283 166.292 431.275 166.269 431.274 166.246C431.273 166.223 431.279 166.2 431.292 166.181C431.304 166.161 431.322 166.146 431.343 166.137Z" fill="#263238"/>
<path d="M432.635 172.499C433.26 172.317 433.912 172.244 434.561 172.285L436.644 172.178C438.035 172.104 439.426 172.03 440.808 171.907C440.874 171.907 440.891 172.014 440.808 172.014C439.401 172.145 437.993 172.302 436.586 172.417L434.512 172.581C433.886 172.693 433.245 172.693 432.618 172.581C432.618 172.581 432.61 172.507 432.635 172.499Z" fill="#263238"/>
<path d="M473.84 143.262L489.479 147.378C489.479 147.378 489.619 134.323 487.075 127.623C484.532 120.923 481.742 123.022 479.511 127.821C477.28 132.619 473.84 143.262 473.84 143.262Z" fill="#EBEBEB"/>
<path d="M475.288 141.023C475.181 141.023 475.165 140.925 475.288 140.941C479.717 141.813 484.088 142.957 488.376 144.365C488.376 144.365 488.376 144.431 488.376 144.423C486.129 144.135 476.416 141.295 475.288 141.023Z" fill="#263238"/>
<path d="M505.563 94.2214C509.061 94.3447 512.456 95.4425 515.365 97.3913C518.273 99.34 520.58 102.062 522.025 105.251L506.633 104.724L503.34 112.997L506.015 121.475L521.416 122.026C519.816 124.972 517.459 127.438 514.588 129.168C511.716 130.898 508.435 131.829 505.083 131.866C501.731 131.902 498.43 131.043 495.521 129.376C492.613 127.709 490.202 125.295 488.54 122.384C486.877 119.473 486.022 116.171 486.063 112.819C486.104 109.467 487.04 106.187 488.774 103.318C490.508 100.449 492.977 98.095 495.926 96.5001C498.875 94.9053 502.196 94.1271 505.546 94.2461L505.563 94.2214Z" fill="rgba(255, 128, 0, 1)"/>
<path d="M396.155 127.952C392.656 127.829 389.261 126.731 386.352 124.783C383.444 122.834 381.137 120.112 379.693 116.923L395.085 117.474L398.377 109.243L395.702 100.757L380.302 100.205C381.901 97.2588 384.258 94.793 387.13 93.0632C390.002 91.3333 393.284 90.4021 396.637 90.366C399.989 90.3299 403.29 91.1902 406.199 92.8579C409.107 94.5255 411.517 96.94 413.179 99.8515C414.842 102.763 415.696 106.066 415.654 109.418C415.612 112.77 414.675 116.051 412.939 118.919C411.204 121.788 408.734 124.141 405.785 125.735C402.835 127.329 399.513 128.106 396.163 127.985L396.155 127.952Z" fill="rgba(255, 128, 0, 1)"/>
<path d="M407.548 101.141L406.948 117.889L498.395 121.162L498.994 104.415L407.548 101.141Z" fill="rgba(255, 128, 0, 1)"/>
<path d="M434.34 107.047L434.091 113.949L471.749 115.303L471.997 108.402L434.34 107.047Z" fill="#37474F"/>
<path d="M472.424 126.537C474.424 126.932 479.182 123.779 481.289 120.841C481.429 120.643 481.379 118.322 481.445 115.507C481.495 113.803 481.585 111.902 481.799 110.173L470.638 111.482C470.989 113.72 471.069 115.991 470.877 118.248C470.841 118.485 470.786 118.719 470.712 118.948C470.712 118.948 470.712 119.022 470.712 119.063C470.3 120.363 469.288 125.928 472.424 126.537Z" fill="#D3766A"/>
<path d="M470.712 118.948C470.718 118.986 470.718 119.025 470.712 119.063C471.077 119.158 471.448 119.224 471.823 119.26C478.12 119.886 480.63 112.346 481.198 110.256L470.663 111.482C471.018 113.719 471.101 115.991 470.91 118.248C470.859 118.485 470.793 118.719 470.712 118.948Z" fill="#263238"/>
<path d="M483.783 95.5466C484.96 99.4235 482.911 110.601 480.153 113.095C476.161 116.709 469.626 117.054 466.555 112.272C463.576 107.613 466.506 93.0855 469.584 90.822C474.12 87.439 482.038 89.826 483.783 95.5466Z" fill="#D3766A"/>
<path d="M474.465 102.436C474.465 102.436 474.515 102.485 474.465 102.51C474.268 103.251 474.177 104.156 474.803 104.535C474.021 104.28 474.153 103.078 474.465 102.436Z" fill="#263238"/>
<path d="M475.289 101.802C476.507 101.983 476.062 104.412 474.935 104.272C473.807 104.132 474.268 101.654 475.289 101.802Z" fill="#263238"/>
<path d="M469.749 101.514C469.749 101.514 469.683 101.514 469.683 101.564C469.568 102.321 469.305 103.21 468.58 103.3C469.436 103.374 469.766 102.255 469.749 101.514Z" fill="#263238"/>
<path d="M469.222 100.609C468.029 100.296 467.485 102.708 468.597 102.996C469.708 103.284 470.226 100.864 469.222 100.609Z" fill="#263238"/>
<path d="M476.457 100.864C476.155 100.713 475.861 100.545 475.577 100.362C475.239 100.164 474.951 100.041 474.753 99.6786C474.713 99.5696 474.711 99.4504 474.747 99.3399C474.783 99.2295 474.855 99.1343 474.951 99.0695C475.159 98.9697 475.39 98.9269 475.62 98.9457C475.85 98.9645 476.071 99.0442 476.26 99.1765C476.683 99.3848 477.015 99.7426 477.19 100.181C477.219 100.28 477.221 100.386 477.193 100.487C477.166 100.587 477.111 100.678 477.035 100.749C476.959 100.82 476.864 100.868 476.762 100.889C476.66 100.909 476.555 100.9 476.457 100.864Z" fill="#263238"/>
<path d="M468.547 99.4975C468.886 99.4933 469.224 99.4686 469.56 99.4235C469.92 99.4475 470.279 99.352 470.58 99.1518C470.663 99.0706 470.716 98.964 470.731 98.8491C470.746 98.7343 470.722 98.6177 470.663 98.5181C470.519 98.3374 470.329 98.1986 470.113 98.1161C469.898 98.0336 469.664 98.0104 469.436 98.0489C468.963 98.0485 468.507 98.228 468.16 98.551C468.086 98.6291 468.035 98.7273 468.015 98.8336C467.995 98.9398 468.006 99.0497 468.046 99.1499C468.087 99.25 468.157 99.3362 468.245 99.3979C468.334 99.4596 468.439 99.4942 468.547 99.4975Z" fill="#263238"/>
<path d="M473.222 109.531C473.03 109.722 472.776 109.838 472.506 109.861C472.227 109.805 471.963 109.69 471.733 109.523C471.683 109.523 471.733 109.523 471.733 109.523C471.816 109.691 471.942 109.833 472.098 109.936C472.254 110.038 472.435 110.098 472.622 110.107C472.781 110.093 472.933 110.033 473.059 109.933C473.185 109.834 473.279 109.7 473.329 109.548C473.313 109.539 473.255 109.515 473.222 109.531Z" fill="#263238"/>
<path d="M472.819 107.136C472.573 107.398 472.276 107.606 471.946 107.748C471.616 107.889 471.26 107.961 470.901 107.959C470.587 107.963 470.274 107.921 469.971 107.836L469.798 107.786L469.634 107.729C469.596 107.712 469.565 107.684 469.545 107.648C469.524 107.613 469.515 107.572 469.519 107.531C469.515 107.507 469.515 107.482 469.519 107.457V107.391C469.609 106.815 469.831 105.942 469.831 105.942C469.593 106.008 468.424 106.296 468.498 105.992C469.044 103.389 469.855 100.849 470.918 98.411C470.928 98.3989 470.941 98.3902 470.956 98.3861C470.971 98.382 470.987 98.3827 471.002 98.3882C471.016 98.3936 471.029 98.4036 471.037 98.4165C471.046 98.4295 471.05 98.4449 471.049 98.4604C470.556 100.864 469.65 103.169 469.115 105.58C469.532 105.473 469.961 105.426 470.391 105.44C470.473 105.44 469.947 107.087 469.922 107.383C470.388 107.518 470.877 107.557 471.36 107.499C471.842 107.441 472.307 107.287 472.729 107.045C472.819 107.021 472.902 107.078 472.819 107.136Z" fill="#263238"/>
<path d="M470.391 107.605C470.633 108.078 470.993 108.481 471.436 108.774C471.683 108.924 471.971 108.993 472.259 108.972C472.885 108.972 473.009 108.379 472.984 107.885C472.965 107.623 472.918 107.364 472.844 107.111C472.099 107.531 471.24 107.704 470.391 107.605Z" fill="#263238"/>
<path d="M471.436 108.774C471.683 108.924 471.971 108.993 472.26 108.972C472.885 108.972 473.009 108.379 472.984 107.885C472.664 107.838 472.337 107.9 472.056 108.061C471.775 108.222 471.557 108.473 471.436 108.774Z" fill="#FF9BBC"/>
<path d="M467.724 93.6452C467.889 93.3242 468.341 92.5423 468.778 92.567C469.214 92.5916 469.601 93.5465 470.63 93.9169C472.045 94.4601 474.745 93.0937 476.704 93.8181C478.663 94.5424 479.684 96.5673 479.75 100.172C479.816 103.778 482.367 106.914 483.38 104.642C483.38 104.56 483.47 104.412 483.569 104.198C484.178 100.806 484.343 97.3657 483.783 95.5466C482.038 89.826 474.111 87.4637 469.584 90.8055C468.742 91.5865 468.104 92.5613 467.724 93.6452Z" fill="#263238"/>
<path d="M481.388 104.658C481.388 104.658 483.989 101.094 485.61 102.033C487.232 102.971 485.224 108.173 483.281 108.848C483.039 108.953 482.777 109.008 482.513 109.009C482.249 109.01 481.987 108.957 481.744 108.854C481.501 108.751 481.281 108.599 481.098 108.409C480.915 108.218 480.773 107.992 480.68 107.745L481.388 104.658Z" fill="#D3766A"/>
<path d="M485.001 103.514C485.001 103.514 485.001 103.555 485.001 103.564C484.374 103.859 483.817 104.282 483.364 104.807C482.912 105.332 482.575 105.946 482.376 106.609C482.456 106.472 482.566 106.353 482.697 106.263C482.829 106.173 482.979 106.113 483.136 106.088C483.294 106.063 483.455 106.073 483.608 106.118C483.761 106.162 483.902 106.24 484.022 106.346C484.022 106.346 484.022 106.428 484.022 106.42C483.787 106.34 483.533 106.334 483.294 106.403C483.055 106.472 482.844 106.613 482.688 106.807C482.433 107.137 482.213 107.493 482.03 107.869C481.964 107.992 481.742 107.918 481.791 107.786C481.758 106.025 483.149 103.646 485.001 103.514Z" fill="#263238"/>
<path d="M466.103 95.1515C466.103 95.1515 469.395 84.3935 479.034 87.2826C488.672 90.1717 485.503 100.971 485.503 100.971L466.103 95.1515Z" fill="rgba(5, 60, 97, 1)"/>
<path d="M486.435 100.445L465.59 94.1915L465.131 95.721L485.976 101.975L486.435 100.445Z" fill="rgba(5, 60, 97, 1)"/>
<path d="M475.873 97.2505L471.535 95.9499L475.725 85.6858L480.063 86.9863L475.873 97.2505Z" fill="rgba(5, 60, 97, 1)"/>
<path opacity="0.1" d="M475.873 97.2505L471.535 95.9499L475.725 85.6858L480.063 86.9863L475.873 97.2505Z" fill="black"/>
<path d="M417.737 113.029C419.836 114.445 420.305 111.153 420.305 111.153C420.305 111.153 420.774 116.091 423.515 116.676C426.256 117.26 426.577 113.268 426.61 112.988C426.61 113.243 427.186 117.738 430.001 118.083C432.816 118.429 432.66 114.346 432.643 114.083C432.75 114.322 434.158 117.425 436.355 117.203C440.125 116.808 436.849 107.597 438.133 104.807L443.714 103.531C442.285 103.173 440.99 102.41 439.985 101.333C438.487 99.8186 437.516 98.8061 436.24 98.3864C435.678 98.1804 435.064 98.1613 434.491 98.3318C433.917 98.5023 433.413 98.8534 433.055 99.3329C433.055 99.3329 432.339 96.7319 430.133 96.3944C428.997 96.2216 427.713 97.8843 427.713 97.8843C427.521 97.3082 427.173 96.7965 426.708 96.4057C426.243 96.0149 425.679 95.7604 425.079 95.6701C423.498 95.5219 422.453 97.2175 422.453 97.2175C422.453 97.2175 420.906 95.5713 419.243 95.9088C415.885 96.6249 413.226 109.984 417.737 113.029Z" fill="#D3766A"/>
<path d="M439.368 104.313L443.599 103.539L444.043 103.341C448.982 100.938 450.562 94.0733 446.669 94.6988C443.706 95.1762 441.665 99.8433 438.561 99.8926L439.368 104.313Z" fill="#D3766A"/>
<path d="M422.247 97.4315H422.181C420.155 101.758 419.487 106.596 420.264 111.309C420.264 111.457 420.543 111.482 420.543 111.309C420.439 106.625 421.013 101.951 422.247 97.4315Z" fill="#263238"/>
<path d="M427.705 97.8102C427.705 97.7608 427.631 97.7361 427.606 97.8102C425.413 102.617 425.005 108.048 426.453 113.128C426.511 113.309 426.742 113.408 426.692 113.202C425.902 109.663 426.478 102.041 427.705 97.8102Z" fill="#263238"/>
<path d="M432.882 114.404C431.507 109.465 431.861 104.527 432.956 99.5058C432.956 99.4399 432.882 99.4235 432.849 99.5058C431.647 101.81 431.285 105.07 431.203 107.63C431.093 110.006 431.607 112.37 432.693 114.486C432.75 114.536 432.915 114.511 432.882 114.404Z" fill="#263238"/>
</svg>
