<svg width="29" height="32" viewBox="0 0 29 32" fill="none" xmlns="http://www.w3.org/2000/svg">
<path d="M10.2172 4.51117C10.7986 4.51117 11.2713 4.02929 11.2713 3.43678C11.2713 2.84427 10.7986 2.36239 10.2172 2.36239C9.63592 2.36239 9.16314 2.84427 9.16314 3.43678C9.16314 4.02929 9.63592 4.51117 10.2172 4.51117ZM10.2172 3.07978C10.4104 3.07978 10.5675 3.2399 10.5675 3.43678C10.5675 3.63366 10.4104 3.79378 10.2172 3.79378C10.0241 3.79378 9.86697 3.63366 9.86697 3.43678C9.86697 3.2399 10.0241 3.07978 10.2172 3.07978ZM27.9652 10.5184C27.9707 10.5071 27.974 10.4951 27.9784 10.4835C27.9821 10.4734 27.9865 10.4632 27.9891 10.4531C27.992 10.4422 27.9928 10.431 27.9946 10.4201C27.9964 10.4081 27.999 10.3965 27.9998 10.3845C28.0005 10.3747 27.9994 10.3646 27.999 10.3549C27.999 10.341 27.999 10.3271 27.9972 10.3136C27.9972 10.3117 27.9972 10.3099 27.9972 10.3076C27.9961 10.2994 27.9931 10.2919 27.9913 10.284C27.9883 10.2709 27.9858 10.2577 27.9817 10.245C27.978 10.2341 27.9733 10.224 27.9685 10.2135C27.9637 10.203 27.9593 10.1921 27.9534 10.182C27.9471 10.1711 27.9398 10.161 27.9328 10.1512C27.9265 10.1426 27.921 10.134 27.914 10.1257C27.9048 10.1149 27.8945 10.1055 27.8839 10.0961C27.8783 10.0909 27.8739 10.0852 27.868 10.0804C27.8666 10.0792 27.8651 10.0785 27.8636 10.0774C27.8522 10.0684 27.8397 10.0612 27.8276 10.0537C27.8198 10.0492 27.8125 10.0436 27.8044 10.0395C27.7933 10.0339 27.7816 10.0301 27.7702 10.026C27.7602 10.0222 27.7503 10.0177 27.7404 10.0151C27.7301 10.0125 27.7194 10.0114 27.7091 10.0095C27.697 10.0072 27.6852 10.0046 27.6727 10.0039C27.6635 10.0031 27.6539 10.0042 27.6443 10.0046C27.6304 10.0046 27.6167 10.0046 27.6031 10.0069C27.6013 10.0069 27.5995 10.0069 27.5972 10.0069L24.8595 10.4284L24.6347 7.61546C24.6347 7.61321 24.634 7.61133 24.6336 7.60946C24.6325 7.59671 24.6292 7.58396 24.6266 7.57121C24.6244 7.56071 24.6229 7.54983 24.62 7.53971C24.6171 7.52996 24.6126 7.52058 24.6086 7.51083C24.6038 7.49883 24.5994 7.48646 24.5935 7.47483C24.5898 7.46771 24.5847 7.46096 24.5803 7.45421C24.5722 7.44145 24.5644 7.42833 24.5552 7.41671C24.5508 7.41146 24.5457 7.40695 24.5409 7.4017C24.5295 7.38933 24.5181 7.37733 24.5052 7.36646C24.5041 7.36533 24.5034 7.3642 24.5019 7.36346C24.4971 7.3597 24.492 7.35708 24.4868 7.3537C24.4739 7.34433 24.4611 7.33533 24.4471 7.32783C24.439 7.32333 24.4305 7.32033 24.4221 7.31658C24.4095 7.31095 24.397 7.3057 24.3842 7.30158C24.3739 7.29858 24.3639 7.2967 24.3536 7.29445C24.3419 7.29183 24.3301 7.2892 24.3179 7.28808C24.3054 7.28695 24.2929 7.28733 24.28 7.28733C24.2716 7.28733 24.2635 7.2862 24.255 7.28695C24.2528 7.28695 24.2513 7.2877 24.2491 7.28808C24.2359 7.28958 24.223 7.29258 24.2101 7.2952C24.2002 7.29745 24.1903 7.29858 24.1807 7.30158C24.1693 7.30495 24.159 7.3102 24.148 7.31508C24.1377 7.31958 24.1273 7.32295 24.1178 7.3282C24.1082 7.33345 24.0994 7.3402 24.0902 7.34658C24.0803 7.35333 24.07 7.35933 24.0608 7.36683C24.0534 7.3732 24.0468 7.3807 24.0398 7.38783C24.0302 7.39758 24.0203 7.40658 24.0118 7.41745C24.0107 7.41895 24.0089 7.42008 24.0078 7.42158L21.2241 11.004C21.2189 11.0104 21.216 11.0175 21.2112 11.0243C21.2035 11.0355 21.1961 11.0464 21.1898 11.0584C21.1847 11.0685 21.1806 11.0786 21.1766 11.0888C21.1722 11.1 21.1674 11.1109 21.1637 11.1225C21.1604 11.1341 21.1582 11.1458 21.156 11.1574C21.1538 11.1686 21.1512 11.1795 21.1501 11.1911C21.149 11.2043 21.1494 11.2174 21.1494 11.2301C21.1494 11.2388 21.1483 11.247 21.149 11.2556L21.3933 14.3104L21.3845 14.3217C20.7855 13.8747 20.1313 13.5012 19.4337 13.2135V5.21655C19.4337 5.01855 19.2763 4.85805 19.082 4.85805H15.6154V3.48553C15.6154 3.28753 15.458 3.12703 15.2637 3.12703H12.4557C12.3744 1.94051 11.4012 1 10.2169 1C9.03252 1 8.05899 1.94014 7.97805 3.12703H5.17005C4.97579 3.12703 4.81832 3.28753 4.81832 3.48553V4.85805H1.35174C1.15747 4.85805 1 5.01855 1 5.21655V28.03C1 28.228 1.15747 28.3885 1.35174 28.3885H9.74372C11.3751 30.0029 13.5981 31 16.0463 31C21.0394 31 25.1016 26.8596 25.1016 21.7704C25.1016 18.9717 23.8716 16.4622 21.9356 14.7683L21.9452 14.7559L24.9184 14.2984C24.9228 14.2977 24.9268 14.2958 24.9313 14.295C24.9416 14.2932 24.9519 14.2902 24.9618 14.2872C24.9762 14.283 24.9898 14.2785 25.003 14.2725C25.0122 14.2684 25.021 14.2639 25.0299 14.2594C25.0435 14.2519 25.0564 14.244 25.0689 14.2347C25.0766 14.229 25.0843 14.2234 25.0917 14.217C25.1053 14.2054 25.1174 14.1923 25.1292 14.1788C25.1329 14.1743 25.1377 14.1713 25.1413 14.1664L27.9251 10.584C27.9251 10.584 27.9269 10.5806 27.928 10.5791C27.9365 10.5679 27.9431 10.5559 27.9501 10.5439C27.9549 10.5356 27.9608 10.5274 27.9648 10.5187L27.9652 10.5184ZM26.8198 10.8514L24.6763 13.6099L22.0758 14.01L21.862 11.3381L24.0056 8.5796L24.1884 10.8686C24.1965 10.9676 24.2444 11.0588 24.3205 11.1206C24.3831 11.1713 24.46 11.1983 24.5391 11.1983C24.5564 11.1983 24.574 11.1968 24.5917 11.1941L26.8198 10.8514ZM5.52179 3.84329H8.3342C8.43354 3.84329 8.52847 3.80053 8.59506 3.72516C8.66165 3.64978 8.69403 3.54928 8.6841 3.44841C8.67858 3.39478 8.676 3.3404 8.676 3.28678C8.676 2.42089 9.36733 1.71626 10.2169 1.71626C11.0664 1.71626 11.7577 2.42089 11.7577 3.28678C11.7577 3.34078 11.7552 3.39516 11.7496 3.44803C11.7393 3.54891 11.7717 3.64941 11.8387 3.72478C11.9056 3.80016 12.0002 3.84291 12.0999 3.84291H14.9123V6.58832H5.52179V3.84329ZM1.70347 5.57468H4.81795V6.9472C4.81795 7.1452 4.97542 7.3057 5.16969 7.3057H15.2641C15.4583 7.3057 15.6158 7.1452 15.6158 6.9472V5.57468H18.7306V12.9544C17.8822 12.6855 16.9804 12.5404 16.0459 12.5404C11.0528 12.5404 6.99054 16.6808 6.99054 21.77C6.99054 24.0125 7.78011 26.0702 9.08955 27.6711H1.70347V5.57468ZM24.3978 21.77C24.3978 26.4639 20.6512 30.2826 16.0459 30.2826C11.4406 30.2826 7.69401 26.4639 7.69401 21.77C7.69401 17.0761 11.4406 13.2574 16.0459 13.2574C17.8763 13.2574 19.5699 13.8623 20.9478 14.8838L19.6552 16.5469C18.6339 15.8112 17.3888 15.3773 16.0459 15.3773C12.5878 15.3773 9.77426 18.245 9.77426 21.7696C9.77426 25.2943 12.5878 28.162 16.0459 28.162C19.504 28.162 22.3175 25.2943 22.3175 21.7696C22.3175 19.871 21.5004 18.164 20.2068 16.9924L21.4985 15.3301C23.2719 16.8923 24.3978 19.199 24.3978 21.77ZM15.8277 22.0513C15.8925 22.1034 15.9694 22.1289 16.0459 22.1289C16.1496 22.1289 16.2523 22.0824 16.3218 21.9928L17.8163 20.0694C18.2281 20.5141 18.4823 21.1119 18.4823 21.77C18.4823 23.1392 17.3896 24.2529 16.0463 24.2529C14.703 24.2529 13.6102 23.1392 13.6102 21.77C13.6102 20.4009 14.703 19.2871 16.0463 19.2871C16.4907 19.2871 16.9065 19.4109 17.2656 19.6239L15.7707 21.5476C15.65 21.7029 15.6754 21.9283 15.8277 22.0513ZM16.0459 18.5701C14.3144 18.5701 12.906 20.0056 12.906 21.7704C12.906 23.5352 14.3144 24.9707 16.0459 24.9707C17.7773 24.9707 19.1858 23.5352 19.1858 21.7704C19.1858 20.8842 18.8303 20.0817 18.2575 19.5016L19.7697 17.5553C20.901 18.5948 21.6137 20.099 21.6137 21.7704C21.6137 24.8998 19.1159 27.4457 16.0455 27.4457C12.9752 27.4457 10.4777 24.8998 10.4777 21.7704C10.4777 18.641 12.9756 16.0951 16.0455 16.0951C17.2236 16.0951 18.3171 16.4712 19.2178 17.1102L17.7041 19.058C17.2221 18.7505 16.6552 18.5701 16.0459 18.5701Z" fill="rgba(255, 255, 255, 1)" stroke="rgba(255, 255, 255, 1)" stroke-width="0.5"/>
</svg>
