<svg width="20" height="22" viewBox="0 0 20 22" fill="none" xmlns="http://www.w3.org/2000/svg">
<path fill-rule="evenodd" clip-rule="evenodd" d="M10 1C11.1856 1 12.2388 2.14868 12.9819 4.00903C13.1277 4.37598 13.2652 4.77344 13.386 5.19317C13.8151 5.08845 14.23 5.00681 14.6249 4.9491C16.6229 4.65801 18.1544 4.98456 18.7476 6.00049C19.3399 7.01805 18.8617 8.49337 17.6069 10.0599C17.3603 10.3692 17.0795 10.6842 16.7737 11C17.0812 11.3158 17.3595 11.6292 17.6069 11.9401C18.8617 13.5068 19.3399 14.9845 18.7476 15.9995C18.1552 17.0146 16.6238 17.3436 14.6249 17.0509C14.23 16.9932 13.8167 16.9107 13.386 16.8068C13.2627 17.2266 13.1277 17.6248 12.9819 17.991C12.2387 19.8505 11.1855 21 10 21C8.81447 21 7.76123 19.8513 7.0181 17.991C6.8723 17.624 6.73482 17.2266 6.61401 16.8068C6.18492 16.9116 5.76999 16.9932 5.37505 17.0509C3.37705 17.342 1.84562 17.0154 1.25244 15.9995C0.660052 14.9844 1.13829 13.5066 2.39309 11.9401C2.63971 11.6308 2.92051 11.3158 3.22627 11C2.91883 10.6842 2.64054 10.3708 2.39309 10.0599C1.13831 8.49318 0.660052 7.01546 1.25244 6.00049C1.84483 4.98539 3.37624 4.65637 5.37505 4.9491C5.76999 5.00682 6.18326 5.08928 6.61401 5.19317C6.73732 4.77344 6.87229 4.37516 7.0181 4.00903C7.76132 2.15117 8.81447 1 10 1ZM10.8665 10.2728C10.9965 10.2728 11.1023 10.1681 11.1023 10.0394C11.1023 9.91078 10.9965 9.80606 10.8665 9.80606C10.7365 9.80606 10.6307 9.91078 10.6307 10.0394C10.6307 10.1681 10.7365 10.2728 10.8665 10.2728ZM8.11605 10.493V10.7659H7.40867C7.2787 10.7659 7.17287 10.8707 7.17287 10.9993C7.17287 11.1279 7.27869 11.2327 7.40867 11.2327H8.11605V11.5056H7.40867C7.2787 11.5056 7.17287 11.6104 7.17287 11.739C7.17287 11.8676 7.27869 11.9724 7.40867 11.9724H8.11605V12.2791C8.11605 12.4498 8.18604 12.6057 8.30019 12.7195C8.41434 12.8324 8.5718 12.9017 8.7451 12.9017H9.01256V13.5597C9.01256 13.6884 9.11837 13.7931 9.24836 13.7931C9.37834 13.7931 9.48416 13.6884 9.48416 13.5597V12.9017H9.75995V13.5597C9.75995 13.6884 9.86577 13.7931 9.99575 13.7931C10.1257 13.7931 10.2316 13.6884 10.2316 13.5597V12.9017H10.5073V13.5597C10.5073 13.6884 10.6132 13.7931 10.7431 13.7931C10.8731 13.7931 10.9789 13.6884 10.9789 13.5597V12.9017H11.2464C11.4189 12.9017 11.5763 12.8324 11.6913 12.7195C11.8055 12.6065 11.8755 12.4506 11.8755 12.2791V11.9724H12.5828C12.7128 11.9724 12.8186 11.8676 12.8186 11.739C12.8186 11.6104 12.7128 11.5056 12.5828 11.5056H11.8755V11.2327H12.5828C12.7128 11.2327 12.8186 11.1279 12.8186 10.9993C12.8186 10.8707 12.7128 10.7659 12.5828 10.7659H11.8755V10.493H12.5828C12.7128 10.493 12.8186 10.3883 12.8186 10.2596C12.8186 10.131 12.7128 10.0262 12.5828 10.0262H11.8755V9.71948C11.8755 9.54879 11.8055 9.39293 11.6913 9.27915C11.5772 9.16618 11.4197 9.09691 11.2464 9.09691H10.9789V8.43887C10.9789 8.31023 10.8731 8.2055 10.7431 8.2055C10.6132 8.2055 10.5073 8.31022 10.5073 8.43887V9.09691H10.2316V8.43887C10.2316 8.31023 10.1257 8.2055 9.99575 8.2055C9.86577 8.2055 9.75995 8.31022 9.75995 8.43887V9.09691H9.48416V8.43887C9.48416 8.31023 9.37834 8.2055 9.24836 8.2055C9.11838 8.2055 9.01256 8.31022 9.01256 8.43887V9.09691H8.7451C8.57263 9.09691 8.41515 9.16783 8.30019 9.27915C8.18604 9.39047 8.11605 9.54797 8.11605 9.71948V10.0262H7.40867C7.2787 10.0262 7.17287 10.131 7.17287 10.2596C7.17287 10.3883 7.27869 10.493 7.40867 10.493H8.11605ZM11.4096 11.7414V9.71455C11.4096 9.67249 11.3912 9.63456 11.3646 9.6057C11.3354 9.57684 11.2971 9.56117 11.2546 9.56117H8.74665C8.70416 9.56117 8.66583 9.57931 8.63667 9.6057C8.60751 9.63456 8.59168 9.67249 8.59168 9.71455V12.2807C8.59168 12.3227 8.61001 12.3607 8.63667 12.3895C8.66583 12.4184 8.70416 12.4341 8.74665 12.4341H11.2546C11.2971 12.4341 11.3354 12.4159 11.3646 12.3895C11.3937 12.3607 11.4096 12.3227 11.4096 12.2807V11.7406V11.7414ZM16.4413 11.3308C15.7539 11.9971 14.944 12.6642 14.0342 13.3041C13.9284 14.4041 13.7493 15.4307 13.511 16.3551C13.9217 16.4549 14.3166 16.5333 14.6941 16.5885C16.4971 16.8507 17.8528 16.5976 18.3402 15.7664C18.8251 14.9327 18.3694 13.6446 17.2379 12.2313C16.9996 11.9361 16.7346 11.6359 16.4405 11.3333L16.4413 11.3308ZM3.55853 10.6678C4.24592 10.0015 5.05577 9.33442 5.96559 8.69451C6.0714 7.59448 6.25053 6.56788 6.48883 5.64347C6.07806 5.54369 5.68314 5.46536 5.30569 5.4101C3.50266 5.14787 2.14697 5.40103 1.65958 6.23223C1.17467 7.06591 1.63042 8.354 2.7619 9.76732C3.0002 10.0625 3.26516 10.3627 3.55927 10.6653L3.55853 10.6678ZM12.9304 16.6859C12.003 16.4278 11.0149 16.0682 10.0001 15.6081C8.98528 16.0682 7.99712 16.4278 7.06983 16.6859C7.18648 17.0883 7.31644 17.4659 7.45809 17.8172C8.12964 19.4928 9.0295 20.5286 9.99932 20.5286C10.9691 20.5286 11.8715 19.4929 12.5405 17.8172C12.6822 17.4659 12.8097 17.0883 12.9288 16.6859H12.9304ZM9.43849 15.3459C8.94025 15.1034 8.4345 14.8396 7.93208 14.5501H7.92958L7.91625 14.541C7.41801 14.2541 6.93726 13.9589 6.47899 13.6546C6.58481 14.579 6.74395 15.4481 6.94807 16.2349C7.74043 16.0147 8.57779 15.717 9.44024 15.346L9.43849 15.3459ZM5.9658 13.3033C5.05679 12.6634 4.24859 11.9963 3.55874 11.33C3.26463 11.6318 2.99967 11.932 2.76137 12.228C1.62989 13.6414 1.17414 14.9303 1.65905 15.7631C2.14396 16.5968 3.50207 16.8499 5.30516 16.5852C5.68259 16.53 6.07753 16.4516 6.48829 16.3518C6.25 15.4275 6.07087 14.4008 5.96505 13.3008L5.9658 13.3033ZM7.06978 5.31272C7.99714 5.57083 8.9853 5.93036 10.0001 6.39049C11.0149 5.93036 12.0031 5.57083 12.9303 5.31272C12.8137 4.91032 12.6837 4.53264 12.5421 4.18135C11.8705 2.50574 10.9707 1.46997 10.0009 1.46997C9.03103 1.46997 8.12868 2.50567 7.45963 4.18135C7.31799 4.53264 7.19051 4.9103 7.07136 5.31272H7.06978ZM10.5617 6.65272C11.0599 6.89515 11.5657 7.15903 12.0681 7.44847H12.0706L12.0839 7.45754C12.5822 7.74451 13.0629 8.03971 13.5212 8.34399C13.4154 7.4196 13.2562 6.55046 13.0521 5.76371C12.2597 5.98389 11.4224 6.28156 10.5599 6.65263L10.5617 6.65272ZM14.0344 8.69529C14.9434 9.33518 15.7516 10.0023 16.4414 10.6686C16.7355 10.3668 17.0005 10.0666 17.2388 9.77059C18.3703 8.35721 18.826 7.06829 18.3411 6.2355C17.8562 5.40183 16.4981 5.14867 14.695 5.41337C14.3176 5.46862 13.9226 5.54696 13.5119 5.64674C13.7502 6.57113 13.9293 7.59778 14.0351 8.69778L14.0344 8.69529ZM16.109 10.9992C15.5208 10.4303 14.8426 9.86128 14.086 9.30797C14.1244 9.85716 14.1444 10.4237 14.1444 10.9992C14.1444 11.5748 14.1244 12.1413 14.086 12.6905C14.8426 12.1372 15.5233 11.5682 16.109 10.9992ZM13.5836 8.95009C13.0378 8.5749 12.4588 8.20794 11.8505 7.85912C11.8414 7.855 11.8322 7.85005 11.8239 7.84345C11.2131 7.49465 10.6024 7.18129 10.0009 6.90093C9.40179 7.17882 8.79272 7.49218 8.1845 7.84098L8.18033 7.84511L8.1645 7.85418C7.55127 8.20547 6.96803 8.57158 6.4173 8.95173C6.36147 9.61142 6.32981 10.2958 6.32981 11.0009C6.32981 11.7051 6.35897 12.3895 6.4173 13.05C6.96304 13.4252 7.5421 13.7922 8.15034 14.141C8.1595 14.1451 8.16867 14.1501 8.177 14.1567C8.78774 14.5055 9.39847 14.8188 10 15.0992C10.5991 14.8213 11.2082 14.5079 11.8164 14.1591L11.8206 14.155L11.8364 14.1459C12.4496 13.7947 13.0329 13.4285 13.5836 13.0484C13.6394 12.3887 13.6711 11.7043 13.6711 10.9992C13.6711 10.295 13.6419 9.6106 13.5836 8.95009ZM9.43837 6.65268C8.57601 6.28161 7.73615 5.98391 6.9462 5.76376C6.74207 6.55291 6.5821 7.41959 6.47712 8.34404C6.93537 8.03976 7.41528 7.74206 7.91438 7.45512C7.91438 7.45512 7.93688 7.44192 7.94771 7.43697C8.44595 7.15247 8.94429 6.89017 9.43837 6.65268ZM3.89093 10.9992C4.47916 11.5682 5.15738 12.1372 5.91393 12.6905C5.8756 12.1413 5.8556 11.5748 5.8556 10.9992C5.8556 10.4237 5.8756 9.85714 5.91393 9.30797C5.15738 9.86128 4.47667 10.4303 3.89093 10.9992ZM10.5614 15.3458C11.4237 15.7169 12.2636 16.0146 13.0535 16.2347C13.2577 15.4456 13.4176 14.5789 13.5226 13.6544C13.0644 13.9587 12.5845 14.2564 12.0854 14.5434C12.0854 14.5434 12.0629 14.5566 12.052 14.5615C11.5538 14.846 11.0555 15.1083 10.5614 15.3458Z" fill="white" stroke="white" stroke-width="0.25"/>
</svg>
