<svg width="20" height="17" viewBox="0 0 20 17" fill="none" xmlns="http://www.w3.org/2000/svg">
<path d="M2.50023 13.5004H5.00062V16.5004C5.00062 16.6926 5.11124 16.8679 5.28375 16.9514C5.35313 16.9842 5.42719 17.0011 5.50032 17.0011C5.61188 17.0011 5.72251 16.9636 5.81252 16.8914L10.0455 13.5003H12.2299C12.5056 13.5003 12.7296 13.2763 12.7296 13.0006C12.7296 12.725 12.5056 12.501 12.2299 12.501H9.87021C9.75677 12.501 9.64614 12.5403 9.55801 12.6106L6.00015 15.4598V13.0007C6.00015 12.725 5.77609 12.501 5.50046 12.501H2.50038C1.67349 12.501 1.00035 11.8278 1.00035 11.0009V2.50038C1.00035 1.67349 1.67349 1.00035 2.50038 1.00035H15.501C16.3279 1.00035 17.0011 1.67349 17.0011 2.50038V6.10048C17.0011 6.3761 17.2251 6.60017 17.5008 6.60017C17.7764 6.60017 18.0005 6.3761 18.0005 6.10048V2.50038C18.0005 1.12222 16.8792 0 15.5001 0H2.50038C1.12222 0 0 1.12128 0 2.50038V11.0009C0 12.3791 1.12129 13.5013 2.50038 13.5013L2.50023 13.5004Z" fill="white"/>
<path d="M16.9817 7.86754C16.9217 7.65097 16.7248 7.50098 16.4998 7.50098C16.2748 7.50098 16.0779 7.65098 16.0179 7.86754C15.5135 9.6929 15.192 10.0145 13.3666 10.5189C13.15 10.5789 13 10.7758 13 11.0008C13 11.2258 13.15 11.4227 13.3666 11.4827C15.1919 11.9871 15.5135 12.3086 16.0179 14.134C16.0779 14.3506 16.2748 14.5006 16.4998 14.5006C16.7248 14.5006 16.9217 14.3506 16.9817 14.134C17.4861 12.3086 17.8076 11.9871 19.633 11.4827C19.8496 11.4227 19.9996 11.2258 19.9996 11.0008C19.9996 10.7758 19.8496 10.5789 19.633 10.5189C17.8077 10.0145 17.4861 9.69293 16.9817 7.86754ZM16.4998 12.4941C16.1585 11.7779 15.7216 11.341 15.0054 10.9997C15.7216 10.6584 16.1585 10.2216 16.4998 9.50529C16.8411 10.2216 17.2779 10.6584 17.9942 10.9997C17.2779 11.341 16.8411 11.7779 16.4998 12.4941Z" fill="white"/>
<path d="M3.50067 4.00032H14.5006C14.7763 4.00032 15.0003 3.77626 15.0003 3.50063C15.0003 3.22501 14.7763 3.00094 14.5006 3.00094L3.50067 3C3.22505 3 3.00098 3.22407 3.00098 3.49969C3.00098 3.77532 3.22504 3.99939 3.50067 3.99939V4.00032Z" fill="white"/>
<path d="M15.0003 6.50087C15.0003 6.22525 14.7763 6.00118 14.5006 6.00118L3.50067 6.00024C3.22505 6.00024 3.00098 6.22431 3.00098 6.49994C3.00098 6.77556 3.22504 6.99963 3.50067 6.99963H14.5006C14.7763 6.99963 15.0003 6.77556 15.0003 6.49994V6.50087Z" fill="white"/>
<path d="M3.50067 9.00024C3.22505 9.00024 3.00098 9.22431 3.00098 9.49994C3.00098 9.77556 3.22504 9.99963 3.50067 9.99963H11.5006C11.7762 9.99963 12.0002 9.77556 12.0002 9.49994C12.0002 9.22431 11.7762 9.00024 11.5006 9.00024H3.50067Z" fill="white"/>
</svg>
