<svg width="22" height="22" viewBox="0 0 22 22" fill="none" xmlns="http://www.w3.org/2000/svg">
<path d="M17.6282 1H4.53692C2.58663 1 1 2.58663 1 4.53692V13.3977C1 15.348 2.58663 16.9346 4.53692 16.9346H17.6285C18.892 16.9346 20.14 18.8721 20.5142 19.6186L21.1652 20.917V4.53692C21.1652 2.58663 19.5785 1 17.6282 1ZM20.4777 18.2449C19.8515 17.3597 18.826 16.2469 17.6282 16.2469H4.53692C2.96565 16.2469 1.68745 14.9687 1.68745 13.3975V4.53692C1.68745 2.96587 2.96565 1.68745 4.53692 1.68745H17.6285C19.1995 1.68745 20.4777 2.96565 20.4777 4.53692V18.2449Z" fill="white" stroke="white" stroke-width="0.5"/>
<path d="M16.4854 4.16133V3.97388H17.3126V13.9605H17.1251V13.773H17.1728V4.16133H16.4854Z" fill="white" stroke="white"/>
<path d="M13.5771 6.57881V6.39136H14.4044V13.9604H14.2169V13.7732H14.2646V6.57881H13.5771Z" fill="white" stroke="white"/>
<path d="M10.6689 8.28413V8.09668H11.4962V13.9604H11.3087V13.7729H11.3564V8.28413H10.6689Z" fill="white" stroke="white"/>
<path d="M7.76074 10.5195V10.332H8.58775V13.9604H8.4003V13.7729H8.44819V10.5195H7.76074Z" fill="white" stroke="white"/>
<path d="M4.85254 12.2324V12.0449H5.67978V13.9604H5.49233V13.7732H5.53999V12.2324H4.85254Z" fill="white" stroke="white"/>
</svg>
