<svg width="30" height="30" viewBox="0 0 30 30" fill="none" xmlns="http://www.w3.org/2000/svg">
<path d="M28.75 0H8.75C8.05957 0 7.5 0.55957 7.5 1.25V21.25C7.5 21.9404 8.05957 22.5 8.75 22.5H28.75C29.4404 22.5 30 21.9404 30 21.25V1.25C30 0.55957 29.4404 0 28.75 0ZM20 20H10V10H20V20ZM27.5 20H22.5V10H27.5V20ZM27.5 7.5H10V2.5H27.5V7.5Z" fill="rgba(255, 255, 255, 1)"/>
<path d="M5 10V7.5H1.25C0.55957 7.5 0 8.05957 0 8.75V28.75C0 29.4404 0.55957 30 1.25 30H21.25C21.9404 30 22.5 29.4404 22.5 28.75V25H20V27.5H2.5V10H5Z" fill="rgba(255, 255, 255, 1)"/>
</svg>
