<svg width="20" height="11" viewBox="0 0 20 11" fill="none" xmlns="http://www.w3.org/2000/svg">
<path d="M19.9488 1.39722C19.4807 2.58158 18.8045 3.67264 17.9522 4.61881L18.9142 5.58081C19.007 5.67366 19.0807 5.78389 19.1309 5.90521C19.1812 6.02652 19.207 6.15654 19.207 6.28785C19.207 6.41916 19.1812 6.54918 19.1309 6.6705C19.0807 6.79181 19.007 6.90204 18.9141 6.99489C18.8213 7.08774 18.7111 7.16139 18.5898 7.21163C18.4684 7.26188 18.3384 7.28774 18.2071 7.28774C18.0758 7.28774 17.9458 7.26188 17.8245 7.21163C17.7031 7.16138 17.5929 7.08772 17.5001 6.99487L16.4918 5.98663C14.8995 7.18785 12.9905 7.89694 11.0001 8.02649V9.08081C11.0001 9.34603 10.8947 9.60038 10.7072 9.78792C10.5196 9.97546 10.2653 10.0808 10.0001 10.0808C9.73486 10.0808 9.4805 9.97546 9.29297 9.78792C9.10543 9.60038 9.00007 9.34603 9.00007 9.08081V8.02649C7.00967 7.89694 5.10066 7.18785 3.50831 5.98663L2.50007 6.99487C2.31256 7.18239 2.05823 7.28773 1.79304 7.28773C1.52785 7.28773 1.27353 7.18239 1.08601 6.99487C0.898496 6.80736 0.793151 6.55303 0.793151 6.28784C0.793151 6.02265 0.898496 5.76833 1.08601 5.58081L2.04801 4.61881C1.19563 3.67263 0.51943 2.58157 0.0513721 1.3972C0.00982058 1.27261 -0.00678461 1.14106 0.0025049 1.01005C0.0117944 0.879046 0.0467966 0.751152 0.105513 0.633673C0.164229 0.516194 0.24551 0.411431 0.344714 0.325364C0.443918 0.239297 0.559103 0.173613 0.683692 0.132062C0.935311 0.0481445 1.20996 0.0676187 1.44722 0.186202C1.5647 0.244918 1.66946 0.326199 1.75553 0.425403C1.8416 0.524607 1.90728 0.639792 1.94883 0.764381C2.57516 2.37513 3.68612 3.75169 5.12831 4.704C6.57049 5.65631 8.27276 6.13739 10.0001 6.08081C11.728 6.13725 13.4308 5.65574 14.8733 4.7028C16.3158 3.74986 17.4268 2.3725 18.0528 0.760991C18.1391 0.512032 18.3202 0.307197 18.5567 0.191006C18.7932 0.0748154 19.066 0.0566598 19.3158 0.140485C19.5656 0.224311 19.7722 0.403343 19.8907 0.638669C20.0093 0.873995 20.0301 1.1466 19.9488 1.39722Z" fill="#737373"/>
</svg>
