<svg width="20" height="20" viewBox="0 0 20 20" fill="none" xmlns="http://www.w3.org/2000/svg">
<path d="M19.2844 12.8572H17.1417V10.7144C17.1417 10.3198 16.8221 10.0001 16.4274 10.0001V3.57177C16.4274 3.27535 16.2444 3.0093 15.9677 2.90393L8.46818 0.046874C8.3039 -0.0156247 8.12356 -0.0156247 7.95927 0.046874L0.459792 2.90393C0.18303 3.00928 0 3.27535 0 3.57177V10.2225C0 14.9886 3.39799 19.0954 8.08002 19.9875C8.12466 19.9955 8.1693 20 8.21394 20C8.25858 20 8.30322 19.9955 8.34786 19.9875C10.029 19.667 11.5637 18.9295 12.8566 17.8465L12.8575 19.2857C12.8575 19.6804 13.1771 20 13.5718 20H16.4288C16.8234 20 17.143 19.6804 17.143 19.2857V17.1429H19.2858C19.6804 17.1429 20 16.8233 20 16.4287V13.5716C19.9991 13.177 19.6795 12.8574 19.2849 12.8574L19.2844 12.8572ZM8.21349 18.5571C4.27359 17.7411 1.42804 14.2581 1.42804 10.2225V4.06387L8.21349 1.47904L14.999 4.06387V10.0004H13.5705C13.1758 10.0004 12.8562 10.32 12.8562 10.7146V12.8574H10.7135C10.3188 12.8574 9.99922 13.1771 9.99922 13.5717V16.4287C9.99922 16.8234 10.3188 17.143 10.7135 17.143H11.4367C10.4778 17.8305 9.38943 18.3143 8.21349 18.5571ZM18.57 15.7143H16.4272C16.0326 15.7143 15.713 16.0339 15.713 16.4285V18.5713H14.2845V16.4285C14.2845 16.0339 13.9649 15.7143 13.5702 15.7143H11.4275V14.2857H13.5702C13.9649 14.2857 14.2845 13.9661 14.2845 13.5715V11.4287H15.713V13.5715C15.713 13.9661 16.0326 14.2857 16.4272 14.2857H18.57V15.7143Z" fill="white"/>
</svg>
