<svg width="16" height="20" viewBox="0 0 16 20" fill="none" xmlns="http://www.w3.org/2000/svg">
<path d="M5.85877 4.90968V7.49881H3.26702C3.05632 7.49881 2.86703 7.66736 2.86703 7.89839L2.86621 10.8451C2.86621 11.0556 3.03493 11.2447 3.26619 11.2447H5.85795V13.8338C5.85795 14.0443 6.02667 14.2334 6.25793 14.2334H9.22915C9.43984 14.2334 9.62913 14.0649 9.62913 13.8338L9.62995 11.2447H12.2217C12.4324 11.2447 12.6217 11.0762 12.6217 10.8451V7.87692C12.6217 7.66644 12.453 7.47734 12.2217 7.47734H9.60867V4.90968C9.60867 4.6992 9.43995 4.5101 9.20869 4.5101L6.23747 4.50928C6.02678 4.50928 5.85877 4.67783 5.85877 4.90968ZM6.63817 7.87704V5.30938H8.82898V7.89851C8.82898 8.109 8.9977 8.29809 9.22896 8.29809H11.8207V10.4867L9.2298 10.4875C9.01911 10.4875 8.82982 10.656 8.82982 10.8871V13.4762H6.63817V10.8452C6.63817 10.6347 6.46945 10.4456 6.23819 10.4456H3.66708V8.27745H6.25884C6.46953 8.27745 6.63817 8.10889 6.63817 7.87704Z" fill="white"/>
<path d="M15.1076 2.44714C15.0657 2.44714 9.98756 2.13142 8.02789 0.11038C7.88056 -0.0367932 7.6065 -0.0367932 7.45918 0.11038C5.49955 2.13134 0.422401 2.42568 0.379419 2.44714C0.168724 2.46852 0 2.63625 0 2.84672V9.54024C0 12.3817 1.28557 15.0342 3.51839 16.7804L7.5001 19.9161C7.56347 19.9794 7.66882 20 7.75276 20C7.83671 20 7.92148 19.9786 8.00543 19.9161L11.9469 16.7804C14.1807 15.0127 15.4653 12.3817 15.4653 9.54024V2.84672C15.4653 2.63624 15.318 2.46769 15.1073 2.44714H15.1076ZM14.6863 9.54016C14.6863 12.1497 13.506 14.5498 11.4624 16.1703L7.73334 19.0956L4.00425 16.1489C1.96068 14.5497 0.780413 12.1291 0.780413 9.54016V3.22572C1.9812 3.12047 5.75323 2.65758 7.73334 0.952305C9.69296 2.65754 13.464 3.12047 14.6863 3.22572V9.54016Z" fill="white"/>
</svg>
