<svg width="26" height="24" viewBox="0 0 26 24" fill="none" xmlns="http://www.w3.org/2000/svg">
<path fill-rule="evenodd" clip-rule="evenodd" d="M1.39572 10.3867L11.147 1.70672C12.2066 0.764426 13.7933 0.764426 14.8529 1.70672L24.6042 10.3867C25.4189 11.1123 24.8886 12.4488 23.8062 12.4488H22.0299V20.2525C22.0299 21.7665 20.7849 22.999 19.2575 22.999L6.74308 23C5.21472 23 3.97066 21.7677 3.97066 20.2535V12.4488H2.19435C1.10877 12.4488 0.582642 11.1102 1.39527 10.3867L1.39572 10.3867ZM12.2171 2.88354L3.2512 10.8636H4.77121C5.21293 10.8636 5.57133 11.2187 5.57133 11.6563V20.2525C5.57133 20.8904 6.09954 21.4136 6.74337 21.4136H19.2578C19.9027 21.4136 20.4298 20.8903 20.4298 20.2525V11.6563C20.4298 11.2187 20.7882 10.8636 21.2299 10.8636H22.7499L13.7841 2.88354C13.3371 2.48618 12.664 2.48618 12.2171 2.88354Z" fill="white" stroke="white" stroke-width="0.25"/>
</svg>
