<svg width="30" height="30" viewBox="0 0 30 30" fill="none" xmlns="http://www.w3.org/2000/svg">
<path d="M14.6644 28.204L14.2312 28.4208L1.5 22.7624V7.90401L13.9452 13.4352C14.0411 13.4779 14.145 13.5 14.25 13.5C14.355 13.5 14.4589 13.4779 14.5548 13.4352L27 7.90401V14.25C27 14.4489 27.079 14.6397 27.2197 14.7803C27.3603 14.921 27.5511 15 27.75 15C27.9489 15 28.1397 14.921 28.2803 14.7803C28.421 14.6397 28.5 14.4489 28.5 14.25V6.75001C28.5 6.60498 28.4579 6.46306 28.3789 6.34145C28.2999 6.21984 28.1873 6.12374 28.0548 6.06481L14.5548 0.0648041C14.4589 0.0220788 14.355 0 14.25 0C14.145 0 14.0411 0.0220788 13.9452 0.0648041L0.4452 6.06481C0.312689 6.12374 0.200108 6.21984 0.121092 6.34145C0.0420758 6.46306 1.38166e-05 6.60498 0 6.75001V23.25C1.38166e-05 23.395 0.0420758 23.537 0.121092 23.6586C0.200108 23.7802 0.312689 23.8763 0.4452 23.9352L13.9452 29.9352C14.0463 29.9802 14.1562 30.0022 14.2668 29.9997C14.3775 29.9972 14.4862 29.9703 14.5852 29.9208L15.3352 29.546C15.509 29.4546 15.6401 29.2987 15.7003 29.1118C15.7605 28.9249 15.745 28.7218 15.6571 28.5462C15.5693 28.3705 15.4161 28.2363 15.2304 28.1723C15.0447 28.1084 14.8418 28.1197 14.6644 28.204ZM14.25 11.9292L8.9436 9.56921L20.5548 4.40921C20.568 4.40321 20.5792 4.3944 20.592 4.3876L25.9032 6.74761L14.25 11.9292ZM14.25 1.5692L18.7504 3.5692L7.1952 8.70641C7.16545 8.72083 7.13671 8.73727 7.1092 8.75561L2.5968 6.75001L14.25 1.5692Z" fill="#053C61"/>
<path d="M22.5 15C21.0166 15 19.5666 15.4399 18.3332 16.264C17.0999 17.0881 16.1386 18.2594 15.5709 19.6299C15.0032 21.0003 14.8547 22.5083 15.1441 23.9632C15.4335 25.418 16.1478 26.7544 17.1967 27.8033C18.2456 28.8522 19.582 29.5665 21.0368 29.8559C22.4917 30.1453 23.9997 29.9968 25.3701 29.4291C26.7406 28.8614 27.9119 27.9001 28.736 26.6668C29.5601 25.4334 30 23.9834 30 22.5C29.9978 20.5116 29.2069 18.6052 27.8009 17.1992C26.3948 15.7931 24.4884 15.0022 22.5 15ZM22.5 28.5C21.3133 28.5 20.1533 28.1481 19.1666 27.4888C18.1799 26.8295 17.4109 25.8925 16.9567 24.7961C16.5026 23.6997 16.3838 22.4933 16.6153 21.3295C16.8468 20.1656 17.4182 19.0965 18.2574 18.2574C19.0965 17.4182 20.1656 16.8468 21.3295 16.6153C22.4933 16.3838 23.6997 16.5026 24.7961 16.9567C25.8925 17.4108 26.8295 18.1799 27.4888 19.1666C28.1481 20.1533 28.5 21.3133 28.5 22.5C28.4982 24.0907 27.8655 25.6158 26.7407 26.7407C25.6158 27.8655 24.0908 28.4982 22.5 28.5Z" fill="#053C61"/>
<path d="M24.9696 20.4702L21.75 23.6902L20.4052 22.3454C20.2635 22.2099 20.0744 22.1352 19.8784 22.1374C19.6824 22.1396 19.495 22.2184 19.3564 22.357C19.2178 22.4956 19.1389 22.683 19.1368 22.879C19.1346 23.0751 19.2093 23.2641 19.3448 23.4058L21.2196 25.281C21.3603 25.4216 21.5511 25.5006 21.75 25.5006C21.9489 25.5006 22.1397 25.4216 22.2804 25.281L26.0304 21.531C26.171 21.3903 26.2501 21.1995 26.2501 21.0006C26.2501 20.8016 26.171 20.6109 26.0304 20.4702C25.8897 20.3295 25.6989 20.2505 25.5 20.2505C25.301 20.2505 25.1102 20.3295 24.9696 20.4702Z" fill="#053C61"/>
</svg>
