<svg width="26" height="30" viewBox="0 0 26 30" fill="none" xmlns="http://www.w3.org/2000/svg">
<path d="M23.3962 0.000397439H2.60407C1.16865 0.000397439 0 1.21886 0 2.71545V21.5033C0 22.9999 1.16865 24.2184 2.60407 24.2184H5.5467V29.4578C5.5467 29.6597 5.65774 29.8475 5.83107 29.9421C5.9042 29.9816 5.9868 30 6.0667 30C6.17368 30 6.28201 29.9633 6.37139 29.8955L13.8625 24.2169H23.3959C24.8313 24.2169 26 22.9984 26 21.5018V2.71506C26 1.21846 24.8313 0 23.3959 0L23.3962 0.000397439ZM24.9603 21.502C24.9603 22.4013 24.2602 23.1327 23.3962 23.1327H13.6936C13.5826 23.1327 13.4756 23.1694 13.389 23.2372L6.58697 28.3921V23.6749C6.58697 23.3756 6.35405 23.1327 6.06697 23.1327H2.60434C1.74173 23.1327 1.04028 22.4028 1.04028 21.502V2.71522C1.04028 1.81584 1.74038 1.0845 2.60434 1.0845H23.3975C24.2601 1.0845 24.9616 1.81443 24.9616 2.71522L24.9603 21.502ZM19.2891 6.7012C17.7318 4.73867 15.4404 3.6148 13.0002 3.6148C10.56 3.6148 8.26887 4.73867 6.71129 6.7012C6.70046 6.71532 6.69098 6.72662 6.68421 6.74074C5.502 8.25146 4.85338 10.1533 4.85338 12.1089C4.85338 14.0645 5.50204 15.9691 6.68421 17.4771C6.69504 17.4912 6.70452 17.5053 6.71536 17.5208C8.27536 19.4805 10.5665 20.6044 13.0001 20.6044C15.4337 20.6044 17.7249 19.4805 19.2849 17.5208C19.2957 17.5067 19.3052 17.4954 19.3119 17.4813C20.4942 15.9734 21.1428 14.0688 21.1428 12.1106C21.1428 10.1551 20.4941 8.25328 19.3119 6.74678C19.3092 6.73125 19.2998 6.71572 19.2889 6.7016L19.2891 6.7012ZM15.2535 12.1088C15.2535 12.7949 15.2224 13.4359 15.1669 14.0431C14.4695 13.844 13.7423 13.7353 13.0002 13.7353C12.2581 13.7353 11.5309 13.8398 10.8335 14.0431C10.778 13.4359 10.7469 12.795 10.7469 12.1088C10.7469 11.4226 10.778 10.7788 10.8335 10.1745C11.5309 10.3735 12.2581 10.4823 13.0002 10.4823C13.7423 10.4823 14.4695 10.3778 15.1669 10.1745C15.2224 10.7788 15.2535 11.4226 15.2535 12.1088ZM17.6559 17.7111C17.4893 17.8636 17.3133 18.0034 17.1359 18.1375C17.1155 18.1559 17.0912 18.17 17.0695 18.1884C16.8921 18.3154 16.712 18.434 16.5292 18.5427C16.5021 18.5611 16.4737 18.5752 16.4466 18.5936C16.2624 18.6981 16.0755 18.7955 15.8846 18.8858C15.8534 18.9 15.8223 18.9141 15.7912 18.9296C15.5975 19.0157 15.4025 19.092 15.2021 19.1611C15.171 19.1724 15.1398 19.1823 15.1087 19.1894C15.022 19.2176 14.9313 19.236 14.8446 19.2614C15.3917 18.3366 15.7912 17.0094 16.0309 15.5353C16.8379 15.9334 17.5773 16.4784 18.2016 17.1759C18.0418 17.3524 17.8725 17.5232 17.6992 17.6813C17.6802 17.6856 17.6667 17.6998 17.6559 17.7111ZM13.0001 19.5184C12.2892 19.5184 11.367 17.906 10.958 15.1344C11.6134 14.9311 12.3 14.8196 13.0001 14.8196C13.7002 14.8196 14.3868 14.9311 15.0422 15.1344C14.6332 17.906 13.711 19.5184 13.0001 19.5184ZM10.8023 19.1527C10.6019 19.0835 10.4069 19.0087 10.2132 18.9211C10.1821 18.907 10.1509 18.8929 10.1198 18.8774C9.92886 18.787 9.73791 18.6924 9.55511 18.5851C9.52802 18.571 9.49959 18.5526 9.4725 18.5343C9.28834 18.4228 9.10552 18.307 8.93219 18.1771C8.91187 18.163 8.89021 18.1446 8.86989 18.1305C8.68979 17.9964 8.51647 17.8552 8.34583 17.7041C8.33229 17.6928 8.32146 17.6829 8.31063 17.6716C8.13729 17.5121 7.96802 17.3426 7.80418 17.1662C8.42846 16.4715 9.16648 15.9223 9.97491 15.5255C10.2146 16.9995 10.6127 18.3267 11.1612 19.2517C11.0704 19.2263 10.9838 19.2079 10.8944 19.1797C10.8646 19.1754 10.8334 19.164 10.8023 19.1527ZM13.0001 9.39804C12.3 9.39804 11.6134 9.28651 10.958 9.08037C11.367 6.31164 12.2892 4.69931 13.0001 4.69931C13.711 4.69931 14.6332 6.31167 15.0422 9.08037C14.3868 9.2865 13.7002 9.39804 13.0001 9.39804ZM8.34434 6.51072C8.51091 6.35824 8.68695 6.21846 8.86435 6.08433C8.88466 6.06597 8.90633 6.05185 8.9307 6.0335C9.10404 5.90643 9.28819 5.78783 9.47102 5.67912C9.4981 5.66076 9.52654 5.64664 9.55362 5.62829C9.73779 5.52381 9.92466 5.42639 10.1156 5.33603C10.1468 5.32191 10.1779 5.30779 10.209 5.29226C10.4027 5.20613 10.5977 5.12989 10.7981 5.06071C10.8293 5.04942 10.8604 5.03953 10.8915 5.03247C10.9782 5.00424 11.0716 4.98588 11.1583 4.96047C10.6112 5.88526 10.2117 7.21244 9.97205 8.68659C9.16497 8.28842 8.4256 7.74344 7.80132 7.04882C7.96111 6.87233 8.13038 6.70149 8.30371 6.54337C8.31996 6.53208 8.3308 6.52061 8.34434 6.51072ZM14.8374 4.95904C14.9282 4.98446 15.0175 5.00281 15.1083 5.03105C15.1394 5.04235 15.1706 5.04941 15.2017 5.05929C15.4021 5.12847 15.5971 5.2033 15.7908 5.29084C15.8219 5.30496 15.8531 5.31908 15.8842 5.3346C16.0752 5.42497 16.2661 5.51956 16.4489 5.62686C16.476 5.64098 16.5044 5.65934 16.5315 5.67769C16.7157 5.78923 16.8985 5.90501 17.0718 6.0349C17.0921 6.04902 17.1138 6.06737 17.1382 6.08573C17.3183 6.21986 17.4916 6.36105 17.6582 6.51212C17.6717 6.52342 17.6826 6.5333 17.6961 6.54883C17.8694 6.70838 18.0387 6.8778 18.1985 7.05427C17.5742 7.74893 16.8362 8.29392 16.0278 8.69205C15.784 7.21096 15.3845 5.88521 14.8374 4.95904ZM7.15111 7.90141C7.9203 8.72594 8.82892 9.3726 9.82698 9.81313C9.74708 10.5685 9.70916 11.345 9.70916 12.1117C9.70916 12.8783 9.75114 13.6549 9.82698 14.4103C8.82895 14.8508 7.9203 15.4988 7.15111 16.322C6.33589 15.0936 5.89579 13.6182 5.89579 12.1119C5.89308 10.6011 6.33724 9.13101 7.15111 7.90141ZM18.8512 16.3191C18.082 15.4917 17.1734 14.8451 16.1753 14.4074C16.2552 13.652 16.2931 12.8783 16.2931 12.1088C16.2931 11.3421 16.2511 10.5656 16.1753 9.81024C17.1706 9.37256 18.082 8.7259 18.8512 7.89852C19.6664 9.12685 20.1092 10.5981 20.1092 12.1061C20.1065 13.6196 19.6623 15.0908 18.8512 16.3191Z" fill="#053C61"/>
</svg>
