<svg width="24" height="22" viewBox="0 0 24 22" fill="none" xmlns="http://www.w3.org/2000/svg">
<path d="M17.1285 10.2314C15.7138 10.2314 14.3496 10.6609 13.1875 11.4693C14.5264 12.9599 15.3601 14.9556 15.3601 17.1283V20.1093C15.3601 20.5893 15.2338 21.0441 15.0317 21.4483H22.6612C23.3938 21.4483 24.0001 20.8419 24.0001 20.1093V17.103C24.0001 13.3135 20.918 10.2314 17.1285 10.2314Z" fill="white"/>
<path d="M6.87157 10.2314C3.0821 10.2314 0 13.3135 0 17.103V20.0841C0 20.8167 0.606315 21.423 1.33894 21.423H12.4294C13.1621 21.423 13.7684 20.8167 13.7684 20.0841V17.103C13.7684 13.3135 10.6863 10.2314 6.87157 10.2314Z" fill="white"/>
<path d="M6.87175 8.63998C9.24648 8.63998 11.1917 6.69472 11.1917 4.31999C11.1917 1.94526 9.24648 0 6.87175 0C4.49702 0 2.55176 1.94526 2.55176 4.31999C2.55176 6.69472 4.49702 8.63998 6.87175 8.63998Z" fill="white"/>
<path d="M17.1288 8.63998C19.5036 8.63998 21.4488 6.69472 21.4488 4.31999C21.4488 1.94526 19.5036 0 17.1288 0C14.7541 0 12.8088 1.94526 12.8088 4.31999C12.7836 6.69472 14.7288 8.63998 17.1288 8.63998Z" fill="white"/>
</svg>
