<svg width="22" height="18" viewBox="0 0 22 18" fill="none" xmlns="http://www.w3.org/2000/svg">
<path d="M20.3745 17.8846H8.2738C7.92984 17.8846 7.64844 17.6032 7.64844 17.2593V12.2564C7.64844 12.1001 7.77351 11.9437 7.96112 11.9437C8.11746 11.9437 8.2738 12.0688 8.2738 12.2564V17.2593H20.3745V1.59409L8.2738 1.62536V8.66059C8.2738 8.81693 8.14872 8.97327 7.96112 8.97327C7.80478 8.97327 7.64844 8.8482 7.64844 8.66059V1.62536C7.64844 1.2814 7.92984 1 8.2738 1H20.3745C20.7185 1 20.9999 1.2814 20.9999 1.62536V17.2593C20.9999 17.6033 20.7185 17.8846 20.3745 17.8846Z" fill="white" stroke="white" stroke-width="0.25"/>
<path d="M12.5264 3.0008C12.8703 2.93827 13.4019 2.87573 13.9022 2.87573C14.6526 2.87573 15.1529 3.0008 15.4968 3.31348C15.7782 3.56363 15.9346 3.93884 15.9346 4.34532C15.9346 5.06449 15.4656 5.56477 14.9027 5.75236V5.78363C15.3405 5.93997 15.5906 6.31518 15.7157 6.87802C15.9033 7.65971 16.0284 8.15999 16.1535 8.37888H15.3718C15.278 8.22254 15.1529 7.75352 14.9966 7.06563C14.8402 6.3152 14.5275 6.03379 13.9022 6.00252H13.2456V8.37888H12.5264L12.5264 3.0008ZM13.2455 5.50224H13.9647C14.7151 5.50224 15.2154 5.09577 15.2154 4.47041C15.2154 3.75123 14.7151 3.43858 13.9647 3.43858C13.6208 3.43858 13.3706 3.46984 13.2768 3.50111V5.50226L13.2455 5.50224Z" fill="white" stroke="white" stroke-width="0.25"/>
<path d="M12.8391 15.5395C12.8079 15.5395 12.7766 15.5395 12.714 15.5083L9.61847 14.3201C9.5872 14.3201 9.55594 14.2888 9.52467 14.2576L1.17608 5.94039C0.957195 5.72151 0.925937 5.34629 1.17608 5.09615L2.55187 3.65782C2.67694 3.53275 2.80201 3.47021 2.98962 3.47021C3.14596 3.47021 3.3023 3.53275 3.42737 3.65782L11.7445 12.0064C11.7758 12.0377 11.8071 12.0689 11.8071 12.1002L13.1203 15.1332C13.1829 15.2582 13.1516 15.3833 13.0578 15.4771C12.9953 15.5084 12.9015 15.5396 12.8389 15.5396L12.8391 15.5395ZM9.89983 13.7885L12.245 14.6953L11.2444 12.3816L2.95845 4.09562L1.58266 5.53395L9.89983 13.7885Z" fill="white" stroke="white" stroke-width="0.25"/>
<path d="M9.74335 14.3513C9.68082 14.3513 9.58701 14.32 9.52447 14.2575C9.3994 14.1324 9.3994 13.9448 9.52447 13.8197L11.2755 11.9749C11.4005 11.8498 11.5882 11.8498 11.7132 11.9749C11.8383 12.1 11.8383 12.2876 11.7132 12.4127L9.96222 14.2575C9.89968 14.32 9.83717 14.3513 9.74335 14.3513Z" fill="white" stroke="white" stroke-width="0.25"/>
<path d="M2.48945 7.12857C2.39564 7.12857 2.33311 7.0973 2.27056 7.03476C2.14549 6.90969 2.14549 6.72209 2.27056 6.59701L4.11538 4.81475C4.24045 4.68968 4.42806 4.68968 4.55313 4.81475C4.6782 4.93982 4.6782 5.12743 4.55313 5.2525L2.70831 7.03476C2.64578 7.0973 2.58326 7.12857 2.48945 7.12857Z" fill="white" stroke="white" stroke-width="0.25"/>
<path d="M18.53 11.6935H14.1525C13.9962 11.6935 13.8398 11.5684 13.8398 11.3808C13.8398 11.2245 13.9649 11.0681 14.1525 11.0681H18.53C18.6864 11.0681 18.8427 11.1932 18.8427 11.3808C18.8427 11.5684 18.7176 11.6935 18.53 11.6935Z" fill="white" stroke="white" stroke-width="0.25"/>
<path d="M18.5295 13.6947H15.1525C14.9962 13.6947 14.8398 13.5696 14.8398 13.382C14.8398 13.2257 14.9649 13.0693 15.1525 13.0693H18.5607C18.717 13.0693 18.8734 13.1944 18.8734 13.382C18.8421 13.5696 18.7171 13.6947 18.5295 13.6947Z" fill="white" stroke="white" stroke-width="0.25"/>
<path d="M18.5301 15.6957H15.8097C15.6534 15.6957 15.4971 15.5706 15.4971 15.383C15.4971 15.2267 15.6221 15.0703 15.8097 15.0703H18.5301C18.6864 15.0703 18.8428 15.1954 18.8428 15.383C18.8428 15.5706 18.7177 15.6957 18.5301 15.6957Z" fill="white" stroke="white" stroke-width="0.25"/>
</svg>
