<svg width="24" height="20" viewBox="0 0 24 20" fill="none" xmlns="http://www.w3.org/2000/svg">
<path d="M23.1996 14.8418H19.7356C19.0042 14.8397 18.3034 14.5483 17.7863 14.0311C17.2692 13.514 16.9777 12.8132 16.9756 12.0818V10.4098C16.9756 9.67711 17.2661 8.97427 17.7835 8.4554C18.3009 7.93653 19.0029 7.64396 19.7356 7.64185H23.1996C23.4118 7.64185 23.6152 7.72613 23.7653 7.87616C23.9153 8.02619 23.9996 8.22967 23.9996 8.44185V14.0418C23.9996 14.254 23.9153 14.4575 23.7653 14.6075C23.6152 14.7576 23.4118 14.8418 23.1996 14.8418ZM19.7356 9.24185C19.4272 9.24396 19.1322 9.36795 18.9149 9.58676C18.6975 9.80557 18.5756 10.1015 18.5756 10.4098V12.0818C18.5756 12.3895 18.6978 12.6845 18.9153 12.9021C19.1329 13.1196 19.4279 13.2418 19.7356 13.2418H22.3996V9.24185H19.7356Z" fill="white"/>
<path d="M23.1994 14.8418C22.9872 14.8418 22.7838 14.7576 22.6337 14.6075C22.4837 14.4575 22.3994 14.254 22.3994 14.0418V8.44185C22.3994 8.22967 22.4837 8.02619 22.6337 7.87616C22.7838 7.72613 22.9872 7.64185 23.1994 7.64185C23.4116 7.64185 23.6151 7.72613 23.7651 7.87616C23.9151 8.02619 23.9994 8.22967 23.9994 8.44185V14.0418C23.9994 14.254 23.9151 14.4575 23.7651 14.6075C23.6151 14.7576 23.4116 14.8418 23.1994 14.8418Z" fill="white"/>
<path d="M21.296 19.4899H2.704C1.98824 19.4899 1.30168 19.2061 0.794806 18.7007C0.287937 18.1954 0.00211764 17.5097 0 16.7939V5.6899C0.00211764 4.97414 0.287937 4.28842 0.794806 3.78305C1.30168 3.27768 1.98824 2.99389 2.704 2.9939H21.296C22.0118 2.99389 22.6983 3.27768 23.2052 3.78305C23.7121 4.28842 23.9979 4.97414 24 5.6899V8.4419C24 8.65407 23.9157 8.85755 23.7657 9.00758C23.6157 9.15761 23.4122 9.2419 23.2 9.2419H19.736C19.4276 9.24401 19.1326 9.368 18.9153 9.58681C18.698 9.80562 18.576 10.1015 18.576 10.4099V12.0819C18.576 12.3895 18.6982 12.6846 18.9158 12.9021C19.1333 13.1197 19.4283 13.2419 19.736 13.2419H23.2C23.4122 13.2419 23.6157 13.3262 23.7657 13.4762C23.9157 13.6262 24 13.8297 24 14.0419V16.7939C23.9979 17.5097 23.7121 18.1954 23.2052 18.7007C22.6983 19.2061 22.0118 19.4899 21.296 19.4899ZM2.704 4.5939C2.41258 4.59389 2.13298 4.7091 1.92617 4.91442C1.71936 5.11973 1.60211 5.39849 1.6 5.6899V16.7939C1.6 16.9385 1.62861 17.0817 1.68419 17.2152C1.73977 17.3487 1.82121 17.4698 1.92383 17.5717C2.02646 17.6736 2.14822 17.7542 2.28212 17.8088C2.41602 17.8634 2.5594 17.891 2.704 17.8899H21.296C21.4406 17.891 21.584 17.8634 21.7179 17.8088C21.8518 17.7542 21.9735 17.6736 22.0762 17.5717C22.1788 17.4698 22.2602 17.3487 22.3158 17.2152C22.3714 17.0817 22.4 16.9385 22.4 16.7939V14.8419H19.736C19.0047 14.8398 18.3039 14.5483 17.7867 14.0312C17.2696 13.514 16.9781 12.8132 16.976 12.0819V10.4099C16.976 9.67716 17.2665 8.97432 17.7839 8.45545C18.3013 7.93658 19.0033 7.64401 19.736 7.6419H22.4V5.6899C22.3979 5.39849 22.2806 5.11973 22.0738 4.91442C21.867 4.7091 21.5874 4.59389 21.296 4.5939H2.704Z" fill="white"/>
<path d="M21.2 4.59387H2.51195C2.29978 4.61296 2.08871 4.54699 1.92518 4.41046C1.84421 4.34286 1.77734 4.25997 1.7284 4.16653C1.67946 4.07309 1.64941 3.97092 1.63995 3.86587C1.6305 3.76081 1.64183 3.65492 1.6733 3.55424C1.70476 3.45356 1.75575 3.36006 1.82336 3.27909C1.95988 3.11556 2.15578 3.01296 2.36795 2.99386L18.608 0.0658646C19.0137 -0.0245445 19.4347 -0.0218457 19.8393 0.0737586C20.2439 0.169363 20.6216 0.355388 20.944 0.617865C21.2761 0.881536 21.5438 1.21741 21.7268 1.59998C21.9098 1.98256 22.0032 2.4018 22 2.82586V3.79387C22 4.00604 21.9157 4.20952 21.7656 4.35955C21.6156 4.50958 21.4121 4.59387 21.2 4.59387ZM11.456 2.99386H20.4V2.82586C20.3997 2.64437 20.3586 2.46525 20.2797 2.30182C20.2008 2.13839 20.086 1.99485 19.944 1.88186C19.8029 1.7693 19.6384 1.68998 19.4625 1.64981C19.2866 1.60965 19.1039 1.60966 18.928 1.64986L11.456 2.99386Z" fill="white"/>
</svg>
