<svg width="25" height="23" viewBox="0 0 25 23" fill="none" xmlns="http://www.w3.org/2000/svg">
<path d="M23.7881 12.6225L18.2613 9.61634V3.61411C18.2624 3.44814 18.1713 3.28207 18.0152 3.19729L12.2423 0.0572932C12.1019 -0.0190977 11.9324 -0.0190977 11.7919 0.0572932L6.01901 3.19729C5.8634 3.28216 5.77179 3.44677 5.77292 3.61411V9.61629L0.246101 12.6224C0.0901621 12.7076 -0.00112063 12.8713 1.0388e-05 13.0393V19.3164C1.0388e-05 19.4891 0.0944505 19.6479 0.246101 19.7303L6.01788 22.8697C6.15959 22.9475 6.33344 22.945 6.47053 22.8697L12.0171 19.8529L17.5637 22.8698C17.7044 22.947 17.8783 22.9455 18.0163 22.8698L23.7881 19.7304C23.9398 19.6479 24.0342 19.4891 24.0342 19.3164V13.0393C24.0354 12.8722 23.9436 12.707 23.7881 12.6225ZM17.3188 9.61111L12.4884 12.2385V6.35717L17.3188 4.32133V9.61111ZM6.71549 4.32128L11.5459 6.35712V12.2384L6.71549 9.61111V4.32128ZM5.77297 21.6636L0.942574 19.0363V13.7464L5.77297 15.7823V21.6636ZM11.5459 19.0363L6.71549 21.6636V15.7823L11.5459 13.7465V19.0363ZM17.3188 21.6636L12.4884 19.0363V13.7464L17.3188 15.7823V21.6636ZM23.0917 19.0363L18.2613 21.6636V15.7823L23.0917 13.7464V19.0363Z" fill="white"/>
</svg>
