<svg width="30" height="30" viewBox="0 0 30 30" fill="none" xmlns="http://www.w3.org/2000/svg">
<path d="M19.0909 2.04545C19.0909 1.66909 19.3964 1.36364 19.7727 1.36364H22.5C25.1318 1.36364 27.2727 3.50455 27.2727 6.13636V8.58136L28.8355 7.01864C29.1014 6.75273 29.5336 6.75273 29.7995 7.01864C30.0655 7.28455 30.0655 7.71682 29.7995 7.98273L27.0736 10.7086C27.0682 10.7141 27.0627 10.7195 27.0573 10.725C27.0559 10.725 27.0559 10.725 27.0559 10.7264C26.9932 10.7836 26.9236 10.8286 26.85 10.8586C26.7777 10.8886 26.6959 10.9064 26.6114 10.9091C26.6114 10.9091 26.61 10.9091 26.6086 10.9091C26.6032 10.9091 26.5964 10.9091 26.5909 10.9091C26.5855 10.9091 26.5786 10.9091 26.5732 10.9091C26.5718 10.9091 26.5705 10.9091 26.5705 10.9091C26.4859 10.9064 26.4041 10.8886 26.3305 10.8573C26.2555 10.8273 26.1873 10.7823 26.1245 10.725C26.1245 10.725 26.1245 10.725 26.1232 10.7236C26.1177 10.7182 26.1123 10.7127 26.1068 10.7073L23.3809 7.98136C23.115 7.71546 23.115 7.28318 23.3809 7.01727C23.6468 6.75136 24.0791 6.75136 24.345 7.01727L25.9091 8.58136V6.13636C25.9091 4.25727 24.3805 2.72727 22.5 2.72727H19.7727C19.3964 2.72727 19.0909 2.42182 19.0909 2.04545ZM10.2273 27.2727H7.5C5.62091 27.2727 4.09091 25.7427 4.09091 23.8636V21.4186L5.65364 22.9814C5.91955 23.2473 6.35182 23.2473 6.61773 22.9814C6.88364 22.7155 6.88364 22.2832 6.61773 22.0173L3.89182 19.2914C3.88636 19.2859 3.88091 19.2805 3.87545 19.275C3.87273 19.275 3.87273 19.275 3.87409 19.2736C3.81273 19.2164 3.74182 19.1714 3.66818 19.1414C3.59455 19.1114 3.51409 19.0936 3.42955 19.0909H3.42818C3.41591 19.0909 3.40364 19.0909 3.39273 19.0909C3.39273 19.0909 3.39136 19.0909 3.39 19.0909C3.30545 19.0936 3.225 19.1114 3.15136 19.1427C3.07636 19.1727 3.00682 19.2177 2.94545 19.275C2.94409 19.2764 2.94545 19.2764 2.94409 19.2764C2.93864 19.2818 2.93318 19.2873 2.92773 19.2927L0.201818 22.0186C-0.0640909 22.2845 -0.0640909 22.7168 0.201818 22.9827C0.467727 23.2486 0.9 23.2486 1.16591 22.9827L2.72727 21.4186V23.8636C2.72727 26.4955 4.86818 28.6364 7.5 28.6364H10.2273C10.6036 28.6364 10.9091 28.3309 10.9091 27.9545C10.9091 27.5782 10.6036 27.2727 10.2273 27.2727ZM12.9545 4.09091H8.87864C8.86909 4.09091 8.86091 4.09091 8.85 4.09091H4.77273C4.39636 4.09091 4.09091 4.39636 4.09091 4.77273C4.09091 5.14909 4.39636 5.45455 4.77273 5.45455H7.76045L6.39682 8.18182H4.77273C4.39636 8.18182 4.09091 8.48727 4.09091 8.86364C4.09091 9.24 4.39636 9.54545 4.77273 9.54545H5.715L4.16318 12.6491C3.99409 12.9859 4.13182 13.395 4.46864 13.5641C4.56545 13.6132 4.66909 13.6364 4.77273 13.6364C5.02364 13.6364 5.26364 13.4986 5.38364 13.26L7.00364 10.0214L9.69682 13.3814C9.93136 13.6759 10.3609 13.7223 10.6555 13.4864C10.9486 13.2505 10.9964 12.8223 10.7605 12.5277L8.36727 9.54545H11.5909C11.9673 9.54545 12.2727 9.24 12.2727 8.86364C12.2727 8.48727 11.9673 8.18182 11.5909 8.18182H7.92136L9.285 5.45455H12.9545C13.3309 5.45455 13.6364 5.14909 13.6364 4.77273C13.6364 4.39636 13.3309 4.09091 12.9545 4.09091ZM30 12.9545V29.3182C30 29.6945 29.6945 30 29.3182 30H12.9545C12.5782 30 12.2727 29.6945 12.2727 29.3182V17.7273H0.681818C0.305455 17.7273 0 17.4218 0 17.0455V0.681818C0 0.305455 0.305455 0 0.681818 0H17.0455C17.4218 0 17.7273 0.305455 17.7273 0.681818V12.2727H29.3182C29.6945 12.2727 30 12.5782 30 12.9545ZM12.9545 12.2727H16.3636V1.36364H1.36364V16.3636H12.2727V12.9545C12.2727 12.5782 12.5782 12.2727 12.9545 12.2727ZM28.6364 13.6364H13.6364V28.6364H28.6364V13.6364ZM16.4359 24.9218L17.7927 22.2082C17.7968 22.2 17.8009 22.1905 17.8064 22.1823L20.5268 16.74C20.7586 16.2777 21.5155 16.2777 21.7473 16.74L24.4677 22.1823C24.4732 22.1905 24.4773 22.1986 24.4814 22.2082L25.8382 24.9218C26.0059 25.2586 25.8695 25.6677 25.5327 25.8368C25.4332 25.8859 25.3295 25.9091 25.2273 25.9091C24.9777 25.9091 24.7377 25.7714 24.6177 25.5327L23.4423 23.1818H18.8291L17.655 25.5327C17.4873 25.8709 17.0782 26.0045 16.74 25.8382C16.4032 25.6691 16.2668 25.2586 16.4359 24.9218ZM19.5123 21.8182H22.7618L21.1364 18.57L19.5123 21.8182Z" fill="rgba(255, 255, 255, 1)"/>
</svg>
