<svg width="30" height="30" viewBox="0 0 30 30" fill="none" xmlns="http://www.w3.org/2000/svg">
<path d="M29.1407 3.68646L15.2944 0.0378565C15.1011 -0.0126188 14.8992 -0.0126188 14.7059 0.0378565L0.859614 3.68646C0.353357 3.82058 0 4.27775 0 4.80266V10.2858C0 19.2962 6.03329 27.3825 14.6712 29.951C14.7779 29.9827 14.8889 30 15 30C15.1111 30 15.2221 29.9841 15.3288 29.951C23.9671 27.3825 30 19.2966 30 10.2858V4.80266C30 4.27915 29.6469 3.82055 29.1407 3.68646ZM27.6926 10.2842C27.6926 18.1671 22.4915 25.2522 15.0001 27.636C7.50875 25.2522 2.30771 18.1671 2.30771 10.2842V5.69115L15.0001 2.34827L27.6926 5.69115V10.2842Z" fill="#053C61"/>
<path d="M10.4985 14.7072C9.96487 14.3626 9.24948 14.514 8.90332 15.0505C8.55861 15.5855 8.71005 16.2994 9.2466 16.6455L13.6412 19.4836C13.8345 19.6076 14.0508 19.6682 14.2672 19.6682C14.622 19.6682 14.9725 19.5038 15.1989 19.1981L21.059 11.2347C21.4369 10.7213 21.3273 9.99878 20.8138 9.62239C20.3004 9.24456 19.5777 9.35704 19.2013 9.86755L13.9844 16.9585L10.5012 14.7103L10.4985 14.7072Z" fill="#053C61"/>
</svg>
