<svg width="26" height="26" viewBox="0 0 26 26" fill="none" xmlns="http://www.w3.org/2000/svg">
<path d="M22.0896 7.51082C21.668 4.59587 19.1746 2.42384 16.2033 2.42384C15.5812 2.42384 14.9707 2.51908 14.385 2.70692C13.1757 1.60468 11.6171 1 9.97428 1C6.36051 1 3.42052 3.94001 3.42052 7.55383C3.42052 7.60474 3.42105 7.6554 3.42237 7.70579C1.94341 8.40491 1 9.87914 1 11.5227C1 13.851 2.89395 15.7449 5.22213 15.7449H6.45759V22.9045C6.45759 23.5624 7.20578 24.1138 8.62169 24.4987C9.80992 24.8219 11.3649 25 13 25C14.6349 25 16.1898 24.8219 17.3781 24.4987C18.794 24.1138 19.5424 23.5627 19.5424 22.9045V15.7452H20.7779C23.1061 15.7452 25 13.8512 25 11.523C24.9997 9.69657 23.8136 8.07724 22.0896 7.51082ZM7.10605 13.6188C8.22306 14.3643 10.6212 14.7501 12.9997 14.7501C15.3783 14.7501 17.7764 14.3643 18.8934 13.6188V15.2168C18.8934 15.4062 18.5383 15.8233 17.2076 16.1852C16.0727 16.4939 14.5782 16.6638 12.9997 16.6638C11.4211 16.6638 9.92653 16.4939 8.79158 16.1852C7.46089 15.8235 7.10605 15.4062 7.10605 15.2168V13.6188ZM12.9997 14.1013C9.40206 14.1013 7.10605 13.2442 7.10605 12.6543C7.10605 12.0644 9.40206 11.2075 12.9997 11.2075C16.5974 11.2075 18.8934 12.0644 18.8934 12.6543C18.8934 13.2442 16.5974 14.1013 12.9997 14.1013ZM17.2076 23.873C16.0732 24.1816 14.5787 24.3515 12.9997 24.3515C11.4205 24.3515 9.926 24.1816 8.79158 23.873C7.46089 23.5113 7.10605 23.0939 7.10605 22.9047V21.3086C7.46669 21.549 7.97322 21.7603 8.62142 21.9365C9.81045 22.2597 11.3654 22.4378 12.9997 22.4378C14.6341 22.4378 16.189 22.2597 17.3778 21.9365C18.0262 21.7603 18.5328 21.5487 18.8934 21.3084V22.9047C18.8934 23.0942 18.5386 23.5113 17.2076 23.873ZM17.2076 21.3105C16.0724 21.6189 14.5782 21.789 12.9997 21.789C11.4213 21.789 9.92679 21.6189 8.79158 21.3105C7.46089 20.9485 7.10605 20.5314 7.10605 20.342V18.7456C7.46669 18.986 7.97322 19.1973 8.62142 19.3735C9.80992 19.6967 11.3649 19.8748 12.9997 19.8748C14.6343 19.8748 16.1893 19.6967 17.3778 19.3735C18.0262 19.1973 18.5328 18.9857 18.8934 18.7453V20.3417C18.8934 20.5314 18.5383 20.9485 17.2076 21.3105ZM17.2076 18.7477C16.0729 19.0561 14.5787 19.2263 12.9997 19.2263C11.4208 19.2263 9.92626 19.0564 8.79158 18.7477C7.46089 18.386 7.10605 17.9687 7.10605 17.7795V16.1831C7.46669 16.4235 7.97322 16.6348 8.62142 16.811C9.81018 17.1345 11.3651 17.3123 12.9997 17.3123C14.6343 17.3123 16.189 17.1342 17.3778 16.811C18.0262 16.6348 18.5328 16.4232 18.8934 16.1831V17.7795C18.8934 17.9689 18.5386 18.386 17.2076 18.7477ZM20.7776 15.0964H19.5421V12.654V12.6535C19.5408 11.2782 16.2505 10.5587 12.9997 10.5587C9.74898 10.5587 6.45865 11.2782 6.45733 12.6535V12.654V15.0964H5.22187C3.25142 15.0964 1.64846 13.4935 1.64846 11.523C1.64846 10.0672 2.52355 8.76819 3.87825 8.21364L4.09247 8.12605L4.07928 7.89521C4.07295 7.78229 4.06925 7.66859 4.06925 7.55409C4.06925 4.29802 6.71824 1.649 9.97428 1.649C11.5147 1.649 12.9726 2.2389 14.0795 3.31001L14.2246 3.45036L14.4146 3.38203C14.9868 3.17678 15.5888 3.07257 16.2033 3.07257C18.9156 3.07257 21.1805 5.1032 21.472 7.79575L21.4957 8.01577L21.7091 8.07381C23.2643 8.49698 24.3507 9.91528 24.3507 11.523C24.351 13.4935 22.7481 15.0964 20.7776 15.0964ZM12.9596 4.96047C13.0884 5.08499 13.0918 5.29051 12.9673 5.41899C12.843 5.548 12.6373 5.55116 12.5088 5.42664C11.9273 4.86391 11.1617 4.55419 10.3526 4.55419C8.642 4.55419 7.25063 5.94558 7.25063 7.65592C7.25063 7.83506 7.10526 7.98016 6.92639 7.98016C6.74753 7.98016 6.60216 7.83506 6.60216 7.65592C6.60216 5.58784 8.28453 3.90545 10.3529 3.90545C11.3306 3.90572 12.2566 4.28034 12.9596 4.96047Z" fill="white" stroke="white" stroke-width="0.75"/>
</svg>
