<svg width="26" height="26" viewBox="0 0 26 26" fill="none" xmlns="http://www.w3.org/2000/svg">
<path d="M23.3648 10.1903C22.7787 10.1684 22.2585 9.80644 22.0343 9.26425C21.8101 8.7221 21.923 8.09933 22.3215 7.67001C22.6307 7.36083 22.8036 6.94323 22.8036 6.50655C22.8036 6.06988 22.6307 5.6523 22.3215 5.34309L20.6716 3.69319C20.3639 3.38254 19.9448 3.20816 19.5082 3.20816C19.0715 3.20816 18.6524 3.38253 18.3447 3.69319C17.9125 4.1108 17.2706 4.22949 16.7168 3.99357C16.1746 3.76792 15.823 3.23749 15.8244 2.64991C15.82 1.73703 15.08 1 14.1672 1H11.8403C10.9274 1.0044 10.1904 1.74584 10.1904 2.65872C10.1625 3.24192 9.79912 3.75624 9.25843 3.97602C8.71774 4.19727 8.0979 4.08445 7.67004 3.68589C7.36086 3.37671 6.94325 3.20379 6.50658 3.20379C6.06991 3.20379 5.65233 3.37669 5.34312 3.68589L3.69321 5.3358C3.38404 5.64497 3.21111 6.06258 3.21111 6.49925C3.21111 6.93593 3.38402 7.3535 3.69321 7.66271C4.11668 8.09496 4.23829 8.73971 4.00092 9.29799C3.7738 9.83868 3.24484 10.1904 2.65872 10.1904C1.74584 10.1904 1.00439 10.9274 1 11.8403V14.1745C1.0044 15.0844 1.73999 15.82 2.64991 15.8244C3.23164 15.8522 3.74596 16.2127 3.9672 16.7519C4.18993 17.2897 4.08003 17.9081 3.68586 18.3374C3.04701 18.9822 3.04701 20.0196 3.68586 20.6643L5.34459 22.323L5.34312 22.3216C5.6523 22.6307 6.06991 22.8036 6.50658 22.8021C6.94325 22.8036 7.36083 22.6307 7.67004 22.3216C8.09936 21.8995 8.74118 21.775 9.29797 22.0065C9.84012 22.2322 10.1933 22.7626 10.1903 23.3487C10.1947 24.2587 10.9303 24.9957 11.8402 25.0001H14.1671C15.0771 24.9957 15.8126 24.2586 15.817 23.3487C15.8419 22.767 16.2024 22.2497 16.7416 22.027C17.2808 21.8028 17.9006 21.9127 18.33 22.3069C18.6392 22.6205 19.0612 22.7963 19.5008 22.7949C19.9404 22.7963 20.3624 22.6205 20.6715 22.3069L22.3141 20.657V20.6555C22.6248 20.3493 22.7992 19.9302 22.7992 19.4935C22.7992 19.0569 22.6248 18.6378 22.3141 18.3301C21.9156 17.9095 21.7954 17.2956 22.0064 16.7549C22.2321 16.2127 22.7625 15.8596 23.3486 15.8625C24.2586 15.8581 24.9956 15.1211 25 14.2112V11.833C25 10.9289 24.2689 10.1947 23.3648 10.1903ZM23.507 14.1744C23.507 14.214 23.4908 14.2521 23.463 14.2799C23.4352 14.3078 23.3971 14.3239 23.3575 14.3239C22.1604 14.3195 21.0804 15.0404 20.6262 16.1467C20.1661 17.253 20.4181 18.5264 21.2636 19.3733C21.3178 19.4334 21.3178 19.5228 21.2636 19.5829L19.6137 21.2562C19.5859 21.2914 19.5448 21.3119 19.5009 21.3119C19.4569 21.3119 19.4159 21.2914 19.388 21.2562C18.5279 20.4357 17.2663 20.1997 16.1688 20.6554C15.0713 21.1097 14.3445 22.1691 14.3167 23.3574C14.3167 23.397 14.3006 23.4351 14.2727 23.4629C14.2449 23.4908 14.2068 23.5069 14.1672 23.5069H11.8403C11.7583 23.5069 11.6909 23.4395 11.6909 23.3574C11.6909 22.1515 10.9568 21.0672 9.83727 20.6188C9.47828 20.4708 9.09289 20.3946 8.70461 20.3931C7.92069 20.3917 7.1675 20.7008 6.61218 21.2562C6.58287 21.2811 6.54477 21.2943 6.50668 21.2943C6.46858 21.2943 6.43195 21.2811 6.40118 21.2562L4.75127 19.6063C4.72196 19.5784 4.70438 19.5404 4.70438 19.5008C4.70438 19.4612 4.72196 19.4231 4.75127 19.3953C5.59381 18.5366 5.84143 17.2589 5.38135 16.1467C4.92712 15.0404 3.8472 14.3195 2.65006 14.3239C2.568 14.3239 2.5006 14.2565 2.5006 14.1744V11.8402C2.5006 11.7581 2.568 11.6907 2.65006 11.6907C3.84135 11.6658 4.90514 10.9376 5.36087 9.83713C5.8151 8.73669 5.57627 7.47067 4.75131 6.61199C4.722 6.58415 4.70442 6.54606 4.70442 6.50649C4.70442 6.46693 4.722 6.42883 4.75131 6.40099L6.40121 4.75108C6.42905 4.72178 6.46715 4.70419 6.50671 4.70419C6.54628 4.70419 6.58437 4.72178 6.61222 4.75108C7.47089 5.57604 8.73691 5.81487 9.83735 5.36065C10.9378 4.90496 11.666 3.84113 11.6909 2.64984C11.6909 2.56778 11.7583 2.50038 11.8404 2.50038H14.1673C14.2068 2.50038 14.2449 2.51649 14.2728 2.54434C14.3006 2.57218 14.3167 2.61027 14.3167 2.64984C14.3417 3.84113 15.0699 4.90492 16.1703 5.36065C17.2708 5.81487 18.5368 5.57605 19.3955 4.75108C19.4555 4.69687 19.5464 4.69687 19.6065 4.75108L21.2564 6.40099C21.2857 6.42883 21.3033 6.46693 21.3033 6.50649C21.3033 6.54606 21.2857 6.58415 21.2564 6.61199C20.43 7.47213 20.1926 8.73961 20.6497 9.84005C21.1069 10.942 22.1722 11.6687 23.3649 11.6907C23.4411 11.6951 23.5027 11.7567 23.5071 11.8329L23.507 14.1744Z" fill="white" stroke="white" stroke-width="0.25"/>
<path d="M13.0036 7.00146C11.4123 7.00146 9.88547 7.63447 8.76031 8.75982C7.63515 9.88517 7.00195 11.412 7.00195 13.0031C7.00195 14.5943 7.63496 16.1213 8.76031 17.2464C9.88565 18.3716 11.4125 19.0048 13.0036 19.0048C14.5947 19.0048 16.1218 18.3718 17.2469 17.2464C18.3721 16.1211 19.0053 14.5943 19.0053 13.0031C19.0053 11.412 18.3723 9.88498 17.2469 8.75982C16.1216 7.63466 14.5947 7.00146 13.0036 7.00146ZM13.0036 17.5047C11.1822 17.5047 9.54111 16.4086 8.84508 14.7265C8.14759 13.0444 8.53298 11.1073 9.82098 9.82076C11.1075 8.53276 13.0447 8.14741 14.7267 8.84486C16.4089 9.54088 17.5049 11.182 17.5049 13.0034C17.5049 15.49 15.4902 17.5047 13.0036 17.5047Z" fill="white" stroke="white" stroke-width="0.25"/>
</svg>
