<svg width="20" height="16" viewBox="0 0 20 16" fill="none" xmlns="http://www.w3.org/2000/svg">
<path d="M1.55551 12.4418H6.73957C7.02469 12.4418 7.25797 12.2086 7.25797 11.9234C7.25797 11.6383 7.02469 11.405 6.73957 11.405H1.55551C1.27039 11.405 1.03711 11.6383 1.03711 11.9234" fill="white"/>
<path d="M2.48316 11.5604C2.38466 11.4619 2.25506 11.3997 2.11509 11.4049C1.52411 11.4257 1.03681 10.9539 1.03681 10.3681V2.07362C1.03681 1.50338 1.50338 1.03681 2.07362 1.03681H14.5153C15.0856 1.03681 15.5522 1.50338 15.5522 2.07362V6.73927C15.5522 7.02439 15.7854 7.25767 16.0706 7.25767C16.3557 7.25767 16.589 7.02439 16.589 6.73927V2.07362C16.589 0.927945 15.661 0 14.5153 0H2.07362C0.927945 0 0 0.927945 0 2.07362V10.3681C0 11.436 0.813896 12.3173 1.887 12.4314" fill="white"/>
<path d="M13.3176 8.44999L11.4824 9.60604C11.3632 9.66825 11.2595 9.75637 11.1766 9.85487H9.50732C8.83339 9.85487 8.28906 10.394 8.28906 11.0524V12.8046C8.28906 13.463 8.83339 14.0021 9.50732 14.0021H11.1766C11.2595 14.1006 11.358 14.1836 11.4462 14.2302L13.3435 15.4225C13.5146 15.5159 13.7012 15.5573 13.8827 15.5573C14.173 15.5573 14.4685 15.4433 14.6966 15.2152C14.9195 14.9975 15.0231 14.676 15.0231 14.365V9.50236C15.0231 9.15502 14.8987 8.80769 14.6343 8.57959C14.2611 8.26337 13.7634 8.20634 13.3072 8.45518L13.3176 8.44999ZM10.8863 12.9601H9.5125C9.414 12.9601 9.33106 12.8875 9.33106 12.7994V11.0472C9.33106 10.9591 9.414 10.8865 9.5125 10.8865H10.8863V12.9601ZM13.9967 14.5724C13.9967 14.5724 13.9967 14.6242 13.95 14.6553C13.9293 14.6657 13.8878 14.6864 13.8671 14.676L11.9594 13.4785L11.9231 13.4526L11.8764 10.674L11.892 10.6221L13.8308 9.38831C13.8308 9.38831 13.8723 9.37275 13.8878 9.37275C13.9138 9.37275 13.9345 9.38312 13.9449 9.38831C13.9915 9.41423 13.9915 9.4557 13.9915 9.47125V14.5724H13.9967Z" fill="white"/>
<path d="M18.3667 8.39302C18.1541 8.20121 17.8275 8.22195 17.6357 8.4345C17.4439 8.64704 17.4646 8.97364 17.6772 9.16545C18.4911 9.89121 18.9628 10.9332 18.9628 12.0167C18.9628 13.1001 18.4963 14.1473 17.6772 14.8731C17.4646 15.0649 17.4439 15.3915 17.6357 15.604C17.7394 15.7181 17.8794 15.7803 18.0245 15.7803C18.1489 15.7803 18.2682 15.7388 18.3667 15.6507C19.4035 14.7279 19.9996 13.406 19.9996 12.0167C19.9996 10.6274 19.4035 9.3106 18.3667 8.38784V8.39302Z" fill="white"/>
<path d="M16.8065 9.40904C16.5836 9.2276 16.257 9.2587 16.0756 9.47643C15.8942 9.69416 15.9253 10.0259 16.143 10.2074C16.6821 10.6584 16.9932 11.3168 16.9932 12.0218C16.9932 12.7268 16.6821 13.3904 16.1378 13.8414C15.9201 14.0228 15.889 14.3494 16.0704 14.5724C16.1741 14.6968 16.3192 14.759 16.4696 14.759C16.5836 14.759 16.7029 14.7175 16.8014 14.6397C17.5842 13.9917 18.03 13.0379 18.03 12.0218C18.03 11.0057 17.5842 10.057 16.8065 9.40904Z" fill="white"/>
<path d="M12.3276 3.1106H3.68578C3.36955 3.1106 3.11035 3.34388 3.11035 3.629C3.11035 3.91412 3.36955 4.14741 3.68578 4.14741H12.3276C12.6438 4.14741 12.903 3.91412 12.903 3.629C12.903 3.34388 12.6438 3.1106 12.3276 3.1106Z" fill="white"/>
<path d="M12.3276 5.18408H3.68578C3.36955 5.18408 3.11035 5.41736 3.11035 5.70249C3.11035 5.98761 3.36955 6.22089 3.68578 6.22089H12.3276C12.6438 6.22089 12.903 5.98761 12.903 5.70249C12.903 5.41736 12.6438 5.18408 12.3276 5.18408Z" fill="white"/>
<path d="M10.368 7.25781H3.62876C3.34363 7.25781 3.11035 7.49109 3.11035 7.77622C3.11035 8.06134 3.34363 8.29462 3.62876 8.29462H10.368C10.6531 8.29462 10.8864 8.06134 10.8864 7.77622C10.8864 7.49109 10.6531 7.25781 10.368 7.25781Z" fill="white"/>
</svg>
