<svg width="26" height="26" viewBox="0 0 26 26" fill="none" xmlns="http://www.w3.org/2000/svg">
<path d="M22.1743 10.9525V10.1762C22.1743 5.11456 18.059 1 12.9986 1C7.93724 0.999008 3.82292 5.11456 3.82292 10.1762V10.9525C2.21389 11.2771 1 12.7036 1 14.4109V17.941C1 19.8896 2.58126 21.4711 4.52986 21.4711H5.94137C7.10571 21.4711 8.05863 20.5181 8.05863 19.3537V13.0005C8.05863 11.8361 7.10571 10.8831 5.94137 10.8831H5.23563V10.1774C5.23563 5.89305 8.71568 2.41253 13 2.41253C17.2843 2.41253 20.7644 5.89279 20.7644 10.1774V10.8831H20.0586C18.8943 10.8831 17.9414 11.8361 17.9414 13.0005V19.3537C17.9414 20.5181 18.8943 21.4711 20.0586 21.4711V22.8826C20.0586 23.2708 19.741 23.5884 19.3529 23.5884H13.0001C12.612 23.5884 12.2944 23.9061 12.2944 24.2942C12.2944 24.6823 12.612 25 13.0001 25H19.3529C20.5172 25 21.4701 24.047 21.4701 22.8826V21.471C23.4187 21.471 25 19.8897 25 17.941V14.4109C25 12.7094 23.786 11.2839 22.1771 10.9525L22.1743 10.9525ZM6.64585 12.9994V19.3526C6.64585 19.7407 6.32821 20.0584 5.9401 20.0584H4.52859C3.36425 20.0584 2.41133 19.1054 2.41133 17.941V14.4109C2.41133 13.2465 3.36425 12.2935 4.52859 12.2935H5.9401C6.32821 12.2935 6.64585 12.6113 6.64585 12.9994ZM23.5869 17.9409C23.5869 19.1053 22.634 20.0583 21.4697 20.0583H20.0582C19.6701 20.0583 19.3524 19.7406 19.3524 19.3525V12.9994C19.3524 12.6112 19.6701 12.2936 20.0582 12.2936H21.4697C22.634 12.2936 23.5869 13.2465 23.5869 14.4109V17.9409Z" fill="white" stroke="white" stroke-width="0.5"/>
</svg>
