<svg width="22" height="17" viewBox="0 0 22 17" fill="none" xmlns="http://www.w3.org/2000/svg">
<path d="M21 10.0591C20.9987 10.963 20.6513 11.8296 20.0339 12.4688C19.4166 13.1079 18.5796 13.4676 17.7065 13.4689H16.5466C16.4505 13.4689 16.3583 13.4294 16.2903 13.359C16.2224 13.2886 16.1842 13.1932 16.1842 13.0937C16.1842 12.9941 16.2224 12.8987 16.2903 12.8283C16.3583 12.758 16.4505 12.7184 16.5466 12.7184H17.7065C18.07 12.7271 18.4312 12.6557 18.7661 12.509C19.101 12.3624 19.402 12.1438 19.6492 11.8677C19.8964 11.5916 20.0842 11.2643 20.2001 10.9074C20.316 10.5506 20.3574 10.1723 20.3216 9.7977C20.2857 9.42305 20.1735 9.06056 19.9922 8.73419C19.8109 8.40782 19.5648 8.12502 19.2701 7.90449C18.9754 7.68397 18.6388 7.53074 18.2826 7.45495C17.9264 7.37916 17.5587 7.38253 17.2039 7.46485C17.1751 7.58857 17.1396 7.71052 17.0976 7.8301C17.0857 7.88134 17.0636 7.92943 17.0327 7.97125C17.0017 8.01306 16.9626 8.04766 16.9179 8.07279C16.8732 8.09793 16.8239 8.11303 16.7731 8.11712C16.7224 8.12121 16.6714 8.11419 16.6235 8.09653C16.5755 8.07887 16.5317 8.05095 16.4949 8.0146C16.4581 7.97825 16.429 7.93428 16.4097 7.88555C16.3904 7.83682 16.3812 7.78442 16.3827 7.73176C16.3842 7.67911 16.3964 7.62737 16.4186 7.57993C16.4722 7.43058 16.5126 7.27651 16.5394 7.11961C16.6095 6.7349 16.5966 6.33891 16.5018 5.95993C16.407 5.58094 16.2325 5.22831 15.9908 4.9272C15.7492 4.62609 15.4463 4.38395 15.1037 4.21804C14.7612 4.05214 14.3876 3.96658 14.0094 3.96747C13.5334 3.9678 13.0671 4.10649 12.6635 4.36774C12.7106 4.5215 12.7501 4.67764 12.7819 4.83556C12.7914 4.88386 12.7917 4.93362 12.7826 4.98201C12.7736 5.0304 12.7554 5.07646 12.7291 5.11758C12.7029 5.1587 12.6691 5.19406 12.6296 5.22165C12.5902 5.24923 12.5458 5.26851 12.4992 5.27836C12.4526 5.28822 12.4045 5.28847 12.3578 5.27909C12.311 5.26971 12.2665 5.2509 12.2268 5.22372C12.1871 5.19654 12.1529 5.16153 12.1263 5.12068C12.0996 5.07984 12.081 5.03396 12.0715 4.98566C11.9758 4.45281 11.7782 3.94513 11.4904 3.49244C11.2025 3.03975 10.8301 2.65119 10.3952 2.34957C9.96024 2.04795 9.47146 1.83937 8.95756 1.73607C8.44365 1.63277 7.91499 1.63683 7.40263 1.74802C6.89026 1.85922 6.40453 2.0753 5.97395 2.38357C5.54338 2.69184 5.17665 3.08609 4.89531 3.54315C4.61397 4.00021 4.42369 4.51088 4.33564 5.04515C4.2476 5.57941 4.26357 6.12651 4.38262 6.6543C4.75292 6.66879 5.11816 6.74831 5.46274 6.88946C5.55214 6.92628 5.62375 6.99836 5.66181 7.08985C5.69988 7.18134 5.70128 7.28473 5.66571 7.37729C5.63014 7.46985 5.56052 7.54398 5.47215 7.58339C5.38379 7.6228 5.28392 7.62426 5.19452 7.58743C4.84318 7.44303 4.46538 7.38071 4.08808 7.40489C3.71079 7.42908 3.34331 7.53918 3.01185 7.72734C2.68039 7.91551 2.39314 8.1771 2.17058 8.49344C1.94802 8.80979 1.79565 9.17309 1.72434 9.55743C1.65303 9.94177 1.66453 10.3377 1.75803 10.7169C1.85152 11.0961 2.02471 11.4492 2.26523 11.7512C2.50576 12.0531 2.80768 12.2963 3.14946 12.4635C3.49124 12.6307 3.86446 12.7178 4.24247 12.7184H5.40233C5.49846 12.7184 5.59065 12.758 5.65862 12.8283C5.7266 12.8987 5.76478 12.9941 5.76478 13.0937C5.76478 13.1932 5.7266 13.2886 5.65862 13.359C5.59065 13.4294 5.49846 13.4689 5.40233 13.4689H4.24247C3.42899 13.4559 2.64896 13.1315 2.05271 12.5585C1.45646 11.9854 1.08619 11.2041 1.01326 10.3652C0.940337 9.52624 1.16991 8.68907 1.65774 8.01497C2.14557 7.34087 2.85713 6.87756 3.65529 6.71434C3.44578 5.57226 3.64237 4.39027 4.20878 3.38652C4.77518 2.38277 5.67316 1.62501 6.73699 1.2531C7.80082 0.881192 8.95868 0.920239 9.99688 1.36303C11.0351 1.80583 11.8835 2.62248 12.3856 3.66226C12.88 3.36951 13.4399 3.21598 14.0094 3.21696C14.8825 3.21829 15.7195 3.57796 16.3369 4.21714C16.9543 4.85631 17.3017 5.72285 17.3029 6.62678C17.3029 6.64179 17.3029 6.6593 17.3029 6.67431C17.7663 6.61387 18.2367 6.65637 18.6829 6.79895C19.1291 6.94154 19.5409 7.18095 19.8907 7.50123C20.2405 7.82151 20.5204 8.2153 20.7117 8.65637C20.903 9.09743 21.0012 9.57563 21 10.0591ZM7.46832 12.7184H11.697C11.7931 12.7184 11.8853 12.6789 11.9533 12.6085C12.0212 12.5381 12.0594 12.4427 12.0594 12.3432C12.0594 12.2436 12.0212 12.1482 11.9533 12.0778C11.8853 12.0074 11.7931 11.9679 11.697 11.9679H7.4804L8.57019 10.8396C8.6058 10.8053 8.63436 10.7639 8.65417 10.7178C8.67398 10.6718 8.68463 10.6221 8.68549 10.5717C8.68635 10.5213 8.6774 10.4713 8.65917 10.4246C8.64094 10.3778 8.61381 10.3354 8.57939 10.2998C8.54497 10.2641 8.50397 10.236 8.45884 10.2172C8.41371 10.1983 8.36537 10.189 8.3167 10.1899C8.26803 10.1908 8.22004 10.2018 8.17558 10.2223C8.13111 10.2428 8.0911 10.2724 8.05792 10.3093L6.34954 12.078C6.33244 12.0955 6.31707 12.1148 6.30363 12.1355V12.153C6.29448 12.1683 6.2864 12.1841 6.27947 12.2006C6.27947 12.2006 6.27947 12.2156 6.27947 12.2256C6.27371 12.2403 6.26887 12.2553 6.26497 12.2706C6.25547 12.3193 6.25547 12.3695 6.26497 12.4182C6.26887 12.4335 6.27371 12.4486 6.27947 12.4632C6.27947 12.4632 6.27947 12.4808 6.27947 12.4883C6.2864 12.5047 6.29448 12.5206 6.30363 12.5358V12.5533C6.31707 12.574 6.33244 12.5933 6.34954 12.6108L8.05792 14.3795C8.0911 14.4164 8.13111 14.446 8.17558 14.4665C8.22004 14.487 8.26803 14.498 8.3167 14.4989C8.36537 14.4998 8.41371 14.4905 8.45884 14.4717C8.50397 14.4528 8.54497 14.4247 8.57939 14.3891C8.61381 14.3534 8.64094 14.311 8.65917 14.2643C8.6774 14.2175 8.68635 14.1675 8.68549 14.1171C8.68463 14.0667 8.67398 14.017 8.65417 13.971C8.63436 13.925 8.6058 13.8835 8.57019 13.8492L7.46832 12.7184ZM15.6743 13.9918C15.6743 13.9918 15.6743 13.9768 15.6743 13.9693C15.6802 13.9538 15.685 13.9379 15.6888 13.9217C15.6983 13.873 15.6983 13.8228 15.6888 13.7741C15.685 13.758 15.6802 13.7421 15.6743 13.7266C15.6743 13.7266 15.6743 13.7116 15.6743 13.7041C15.6675 13.6868 15.6594 13.6701 15.6501 13.6541V13.639C15.6367 13.6183 15.6213 13.5991 15.6042 13.5815L13.8959 11.8128C13.8272 11.7465 13.7363 11.7104 13.6424 11.7121C13.5485 11.7139 13.4589 11.7532 13.3925 11.822C13.3261 11.8907 13.288 11.9835 13.2864 12.0807C13.2847 12.1779 13.3196 12.272 13.3836 12.3432L14.4734 13.4714H10.2471C10.151 13.4714 10.0588 13.511 9.99085 13.5813C9.92288 13.6517 9.88469 13.7472 9.88469 13.8467C9.88469 13.9462 9.92288 14.0417 9.99085 14.112C10.0588 14.1824 10.151 14.2219 10.2471 14.2219H14.4637L13.3739 15.3502C13.3383 15.3846 13.3098 15.426 13.2899 15.472C13.2701 15.518 13.2595 15.5677 13.2586 15.6181C13.2578 15.6685 13.2667 15.7186 13.2849 15.7653C13.3032 15.812 13.3303 15.8545 13.3647 15.8901C13.3991 15.9257 13.4401 15.9538 13.4853 15.9727C13.5304 15.9916 13.5787 16.0008 13.6274 15.9999C13.6761 15.9991 13.7241 15.988 13.7685 15.9675C13.813 15.947 13.853 15.9174 13.8862 15.8806L15.5946 14.1119C15.6117 14.0943 15.6271 14.075 15.6405 14.0543V14.0393C15.653 14.0244 15.6643 14.0085 15.6743 13.9918Z" fill="white" stroke="white" stroke-width="0.4"/>
</svg>
