<svg xmlns="http://www.w3.org/2000/svg" version="1.1" viewBox="-5.0 -10.0 110.0 135.0">
 <path d="m27.07 29.281 28.402-18.941c0.82422-0.55078 1.8398-0.55078 2.6641-0.003906l28.508 18.945c0.69141 0.46094 1.0742 1.1719 1.0742 2.0039v46.516c0 1.3242-1.082 2.4062-2.4062 2.4062h-4.4805c-0.09375 0-0.16797-0.074219-0.16797-0.16797v-44.613c0-1.5586-1.2773-2.8359-2.8359-2.8359h-41.945c-1.5586 0-2.8359 1.2773-2.8359 2.8359v3.7461c0 0.09375-0.074219 0.16797-0.16797 0.16797h-6.7188c-0.09375 0-0.16797-0.074219-0.16797-0.16797v-7.8867c0.007812-0.83203 0.38672-1.543 1.0781-2.0039zm50.816 13.805h-16.934c-0.09375 0-0.16797 0.074218-0.16797 0.16797v16.934c0 0.09375 0.074219 0.16797 0.16797 0.16797h16.934c0.09375 0 0.16797-0.074219 0.16797-0.16797v-16.934c0-0.089844-0.074219-0.16797-0.16797-0.16797zm-19.785 19.734h-8.5938c-0.09375 0-0.16797 0.074219-0.16797 0.16797v2.1719c0 0.09375 0.074218 0.16797 0.16797 0.16797h2.6523c0.09375 0 0.16797 0.074219 0.16797 0.16797v3.1602c0 1.3633-0.71875 2.4766-1.6016 2.4766h-1.2188c-0.09375 0-0.16797 0.074219-0.16797 0.16797v8.625c0 0.09375 0.074218 0.16797 0.16797 0.16797h8.5938c0.09375 0 0.16797-0.074219 0.16797-0.16797v-16.938c0-0.089843-0.074219-0.16797-0.16797-0.16797zm19.785 0h-16.934c-0.09375 0-0.16797 0.074219-0.16797 0.16797v16.934c0 0.09375 0.074219 0.16797 0.16797 0.16797h16.934c0.09375 0 0.16797-0.074219 0.16797-0.16797v-16.934c0-0.089843-0.074219-0.16797-0.16797-0.16797zm-5.9414 2.5078h-5.0508c-0.09375 0-0.16797 0.074219-0.16797 0.16797v3.1602c0 1.3633 0.71875 2.4766 1.6016 2.4766h2.1797c0.88281 0 1.6016-1.1133 1.6016-2.4766v-3.1602c0.003906-0.09375-0.070313-0.16797-0.16406-0.16797zm0-19.734h-5.0508c-0.09375 0-0.16797 0.074219-0.16797 0.16797v3.1602c0 1.3633 0.71875 2.4766 1.6016 2.4766h2.1797c0.88281 0 1.6016-1.1133 1.6016-2.4766l0.003906-3.1641c0-0.089843-0.074219-0.16406-0.16797-0.16406zm-54.766 12.727c-0.48828-0.48828-0.48828-1.2812 0-1.7695 0.48828-0.48828 1.2812-0.48828 1.7695 0l0.75 0.75c0.039062 0.039063 0.085937 0.054688 0.14062 0.046875 0.054687-0.007812 0.097656-0.035156 0.12109-0.082031l2.1094-3.6562c0.34766-0.59766 1.1094-0.80078 1.707-0.45312s0.80078 1.1094 0.45312 1.707l-2.9883 5.1758s0 0.003907-0.003907 0.003907c-0.44141 0.82422-1.4375 0.90625-2.0117 0.33594zm12.27 19.898h11.605c0.69141 0 1.2539-0.5625 1.2539-1.2539s-0.5625-1.2539-1.2539-1.2539h-11.605c-0.69141 0-1.2539 0.5625-1.2539 1.2539 0 0.69531 0.5625 1.2539 1.2539 1.2539zm0-10.051h11.605c0.69141 0 1.2539-0.5625 1.2539-1.2539 0-0.69141-0.5625-1.2539-1.2539-1.2539h-11.605c-0.69141 0-1.2539 0.5625-1.2539 1.2539 0 0.69141 0.5625 1.2539 1.2539 1.2539zm-12.27 10.258c-0.48828-0.48828-0.48828-1.2812 0-1.7695 0.48828-0.48828 1.2812-0.48828 1.7695 0l0.75 0.75c0.039062 0.039062 0.085937 0.054688 0.14062 0.046875 0.054687-0.007813 0.097656-0.035156 0.12109-0.082031l2.1094-3.6562c0.34766-0.59766 1.1094-0.80078 1.707-0.45312 0.59766 0.34766 0.80078 1.1094 0.45312 1.707l-2.9883 5.1758s0 0.003907-0.003907 0.003907c-0.44141 0.82422-1.4375 0.90625-2.0117 0.33594zm0-10.051c-0.48828-0.48828-0.48828-1.2812 0-1.7695 0.48828-0.48828 1.2812-0.48828 1.7695 0l0.75 0.75c0.039062 0.039062 0.085937 0.054687 0.14062 0.046875 0.054687-0.007813 0.097656-0.035156 0.12109-0.082032l2.1094-3.6523c0.34375-0.59766 1.1055-0.80469 1.7031-0.46094 0.59766 0.34375 0.80469 1.1055 0.46094 1.7031l-2.9727 5.1523c0 0.003906-0.003907 0.003906-0.003907 0.007812-0.44922 0.86719-1.4531 0.92969-2.0234 0.35938zm12.27-10.258h11.605c0.69141 0 1.2539-0.5625 1.2539-1.2539 0-0.69141-0.5625-1.2539-1.2539-1.2539h-11.605c-0.69141 0-1.2539 0.5625-1.2539 1.2539 0 0.69141 0.5625 1.2539 1.2539 1.2539zm-4.832-16.293c-0.83594 0-1.5195 0.68359-1.5195 1.5195v0.24609c0 0.09375-0.074218 0.16797-0.16797 0.16797h-7.6758c-1.6328 0-2.9727 1.3359-2.9727 2.9727v40.371c0 1.6328 1.3359 2.9727 2.9727 2.9727h28.609c1.6328 0 2.9727-1.3359 2.9727-2.9727v-40.371c0-1.6328-1.3359-2.9727-2.9727-2.9727h-7.6758c-0.09375 0-0.16797-0.074218-0.16797-0.16797v-0.24609c0-0.83594-0.68359-1.5195-1.5195-1.5195zm11.406 4.6016c-0.019532 0.81641-0.69531 1.4805-1.5195 1.4805h-9.8867c-0.82422 0-1.5-0.66406-1.5195-1.4805-0.003906-0.089843-0.078125-0.16406-0.16797-0.16406h-7.6758c-0.25 0-0.46484 0.21484-0.46484 0.46484v40.371c0 0.25 0.21484 0.46484 0.46484 0.46484h28.609c0.25 0 0.46484-0.21484 0.46484-0.46484v-40.371c0-0.25-0.21484-0.46484-0.46484-0.46484h-7.6758c-0.089844 0-0.16406 0.074219-0.16406 0.16406z" fill-rule="evenodd"/>
</svg>